{"glyphs":{"0":{"ha":831,"x_min":56,"x_max":775,"o":"m 775 486 q 745 280 775 372 q 664 122 715 188 q 548 21 613 56 q 415 -14 483 -14 q 283 21 347 -14 q 167 122 218 56 q 85 280 115 188 q 56 486 56 372 q 85 693 56 601 q 167 851 115 785 q 283 951 218 917 q 415 986 347 986 q 548 951 483 986 q 664 851 613 917 q 745 693 715 785 q 775 486 775 601 m 196 486 q 222 263 196 358 q 298 113 249 167 q 415 60 347 60 q 533 113 485 60 q 608 263 582 167 q 635 486 635 358 q 608 710 635 614 q 533 859 582 806 q 415 913 485 913 q 298 859 347 913 q 222 710 249 806 q 196 486 196 614 z "},"1":{"ha":567,"x_min":49,"x_max":546,"o":"m 361 160 q 380 92 361 113 q 458 67 399 71 l 546 61 l 546 0 l 49 0 l 49 61 l 136 67 q 215 92 197 71 q 233 160 233 113 l 233 794 l 49 794 l 49 857 l 124 865 q 235 899 188 872 q 308 986 283 925 l 361 986 l 361 160 z "},"2":{"ha":703,"x_min":21,"x_max":689,"o":"m 85 704 l 24 738 q 164 926 79 865 q 353 986 249 986 q 497 951 438 986 q 586 857 556 915 q 617 729 617 799 q 585 591 617 660 q 502 456 553 522 q 392 328 451 389 q 275 213 332 267 q 175 114 218 158 l 475 114 q 573 147 538 114 q 639 250 608 181 l 689 250 l 624 0 l 21 0 l 21 65 q 213 254 128 167 q 358 419 297 342 q 451 566 419 497 q 483 699 483 635 q 444 825 483 772 q 317 878 406 878 q 184 832 242 878 q 85 704 126 786 z "},"3":{"ha":669,"x_min":21,"x_max":621,"o":"m 565 789 q 545 706 565 744 q 494 638 525 668 q 431 583 464 607 q 372 544 399 560 q 493 504 436 533 q 585 426 550 475 q 621 307 621 378 q 588 173 621 232 q 499 72 554 114 q 377 8 443 31 q 244 -14 311 -14 q 135 1 186 -14 q 53 44 85 15 q 21 114 21 72 q 42 165 21 146 q 94 185 64 185 q 149 164 129 185 q 183 117 168 143 q 217 69 197 90 q 271 49 236 49 q 375 74 324 49 q 461 148 426 100 q 496 261 496 196 q 465 367 496 325 q 376 432 433 410 q 242 460 319 454 l 229 508 q 342 583 294 547 q 417 658 390 618 q 443 751 443 699 q 406 840 443 804 q 304 875 369 875 q 190 842 238 875 q 94 739 142 808 l 42 775 q 131 897 83 850 q 232 965 178 943 q 349 986 286 986 q 460 961 411 986 q 537 892 508 936 q 565 789 565 849 z "},"4":{"ha":851,"x_min":28,"x_max":824,"o":"m 474 157 l 474 326 l 28 326 l 28 388 l 485 972 l 599 972 l 599 401 l 824 401 l 824 326 l 599 326 l 599 157 q 635 81 599 103 q 740 56 672 58 l 740 0 l 332 0 l 332 56 q 437 81 400 58 q 474 157 474 103 m 138 401 l 474 401 l 474 835 l 138 401 z "},"5":{"ha":665,"x_min":28,"x_max":624,"o":"m 600 972 l 600 847 l 239 847 l 199 694 q 368 652 290 681 q 503 580 446 624 q 592 476 560 536 q 624 340 624 417 q 595 204 624 268 q 516 91 567 140 q 397 14 465 42 q 251 -14 329 -14 q 142 1 193 -14 q 60 44 92 15 q 28 114 28 72 q 49 165 28 146 q 101 185 71 185 q 156 165 136 185 q 190 119 175 144 q 223 73 204 93 q 272 53 242 53 q 384 82 329 53 q 475 165 439 111 q 511 293 511 219 q 458 450 511 389 q 312 544 404 511 q 101 590 219 578 l 200 972 l 600 972 z "},"6":{"ha":775,"x_min":56,"x_max":719,"o":"m 719 321 q 678 158 719 235 q 565 34 638 82 q 394 -14 492 -14 q 224 39 301 -14 q 101 183 147 92 q 56 390 56 275 q 95 597 56 499 q 209 774 135 694 q 388 908 283 853 q 622 988 493 964 l 644 924 q 452 844 543 900 q 295 701 361 788 q 204 496 229 614 q 294 570 236 538 q 435 603 351 603 q 568 569 503 603 q 676 473 633 536 q 719 321 719 410 m 190 367 q 218 201 190 269 q 294 97 246 133 q 401 61 342 61 q 506 94 464 61 q 570 181 549 128 q 592 292 592 235 q 534 451 592 388 q 382 514 476 514 q 277 498 321 514 q 194 444 233 482 q 192 406 193 426 q 190 367 190 386 z "},"7":{"ha":753,"x_min":35,"x_max":718,"o":"m 318 854 q 213 842 254 854 q 146 790 172 829 q 97 665 119 750 l 35 665 l 83 972 l 718 972 l 718 914 l 335 24 q 309 -6 325 3 q 275 -14 293 -15 q 244 -2 257 -12 q 226 26 231 8 q 233 67 222 43 l 611 854 l 318 854 z "},"8":{"ha":746,"x_min":49,"x_max":697,"o":"m 697 254 q 674 153 697 201 q 607 67 650 106 q 505 8 564 29 q 376 -14 446 -14 q 209 19 283 -14 q 92 109 135 51 q 49 239 49 167 q 109 394 49 333 q 265 494 169 456 q 178 550 218 519 q 115 622 139 581 q 90 719 90 664 q 124 847 90 786 q 222 947 158 908 q 372 986 285 986 q 522 953 457 986 q 624 866 588 921 q 661 743 661 811 q 613 616 661 671 q 481 517 565 561 q 587 453 538 489 q 667 370 636 418 q 697 254 697 322 m 207 749 q 239 662 207 697 q 322 598 271 626 q 431 542 374 569 q 513 626 483 574 q 543 739 543 679 q 499 865 543 817 q 372 914 454 914 q 250 864 293 914 q 207 749 207 814 m 172 251 q 201 148 172 192 q 276 81 229 104 q 376 58 322 58 q 518 106 463 58 q 574 229 574 153 q 535 335 574 293 q 437 408 496 376 q 314 471 378 440 q 210 377 247 438 q 172 251 172 317 z "},"9":{"ha":775,"x_min":56,"x_max":719,"o":"m 719 582 q 680 376 719 474 q 566 199 640 278 q 387 64 492 119 q 153 -15 282 8 l 131 49 q 323 128 232 72 q 480 272 414 185 q 571 476 546 360 q 481 402 539 435 q 340 369 424 369 q 207 403 272 369 q 99 499 142 436 q 56 651 56 563 q 97 814 56 738 q 210 938 138 890 q 381 986 283 986 q 551 933 475 986 q 674 790 628 881 q 719 582 719 699 m 183 681 q 241 522 183 585 q 393 458 299 458 q 498 474 454 458 q 581 528 542 490 q 584 567 583 547 q 585 606 585 586 q 557 771 585 703 q 482 875 529 839 q 374 911 435 911 q 269 878 313 911 q 205 792 226 844 q 183 681 183 739 z "}," ":{"ha":236,"x_min":0,"x_max":0,"o":""}," ":{"ha":278,"x_min":0,"x_max":0,"o":""}," ":{"ha":236,"x_min":0,"x_max":0,"o":""},"A":{"ha":1017,"x_min":14,"x_max":1003,"o":"m 411 986 l 544 986 l 863 165 q 921 84 885 110 q 1003 56 957 58 l 1003 0 l 592 0 l 592 56 q 717 89 686 61 q 724 181 749 117 l 656 356 l 311 356 l 244 181 q 251 89 219 117 q 376 56 282 61 l 376 0 l 14 0 l 14 56 q 96 83 60 58 q 154 165 132 108 l 443 906 l 411 986 m 338 425 l 629 425 l 482 803 l 338 425 z "},"B":{"ha":851,"x_min":28,"x_max":815,"o":"m 28 0 l 28 56 q 133 81 96 58 q 169 157 169 103 l 169 815 q 133 892 169 869 q 28 917 96 914 l 28 972 l 385 972 q 662 914 567 972 q 757 738 757 856 q 724 628 757 675 q 637 551 690 581 q 519 511 583 522 q 676 472 610 503 q 778 390 742 440 q 815 271 815 339 q 769 131 815 192 q 639 35 722 69 q 442 0 556 0 l 28 0 m 350 908 l 297 908 l 297 529 l 351 529 q 548 581 482 529 q 614 731 614 633 q 547 863 614 817 q 350 908 479 908 m 406 467 l 297 467 l 297 165 q 331 85 297 110 q 438 60 364 60 q 608 113 544 60 q 672 271 672 165 q 647 369 672 325 q 564 440 622 414 q 406 467 506 467 z "},"C":{"ha":928,"x_min":53,"x_max":889,"o":"m 553 58 q 722 119 654 58 q 828 297 789 179 l 889 297 l 847 63 q 707 7 778 28 q 533 -14 636 -14 q 340 22 428 -14 q 188 121 251 57 q 88 272 124 185 q 53 461 53 358 q 92 678 53 581 q 201 844 132 775 q 360 949 271 913 q 549 986 449 986 q 728 960 650 986 q 856 899 807 933 l 856 681 l 800 681 q 706 858 774 801 q 536 915 638 915 q 359 860 433 915 q 244 710 285 804 q 204 500 204 617 q 246 278 204 379 q 366 118 288 178 q 553 58 444 58 z "},"D":{"ha":1017,"x_min":28,"x_max":964,"o":"m 28 972 l 375 972 q 634 936 524 972 q 818 837 744 900 q 928 692 892 774 q 964 519 964 610 q 922 303 964 399 q 804 140 879 207 q 632 36 729 72 q 426 0 535 0 l 28 0 l 28 56 q 133 81 96 58 q 169 157 169 103 l 169 815 q 133 892 169 869 q 28 917 96 914 l 28 972 m 349 908 l 297 908 l 297 174 q 331 88 297 113 q 431 64 364 64 q 626 113 539 64 q 763 257 713 161 q 814 494 814 353 q 764 702 814 608 q 610 852 714 796 q 349 908 507 908 z "},"E":{"ha":872,"x_min":28,"x_max":844,"o":"m 28 972 l 775 972 l 775 719 l 719 719 q 685 824 708 782 q 622 888 663 867 q 513 908 581 908 l 297 908 l 297 533 l 479 533 q 561 568 533 533 q 590 665 589 603 l 644 665 l 644 335 l 590 335 q 561 432 589 397 q 479 467 533 467 l 297 467 l 297 167 q 333 85 297 111 q 461 58 369 58 q 602 76 547 58 q 691 124 657 93 q 745 197 725 156 q 781 286 765 239 l 844 286 l 796 0 l 28 0 l 28 56 q 133 81 96 58 q 169 157 169 103 l 169 815 q 133 892 169 869 q 28 917 96 914 l 28 972 z "},"F":{"ha":817,"x_min":28,"x_max":775,"o":"m 297 157 q 337 83 297 103 q 467 56 376 63 l 467 0 l 28 0 l 28 56 q 133 81 96 58 q 169 157 169 103 l 169 815 q 133 892 169 869 q 28 917 96 914 l 28 972 l 775 972 l 775 719 l 719 719 q 685 824 708 782 q 622 888 663 867 q 513 908 581 908 l 297 908 l 297 533 l 479 533 q 561 568 533 533 q 590 665 589 603 l 644 665 l 644 335 l 590 335 q 561 432 589 397 q 479 467 533 467 l 297 467 l 297 157 z "},"G":{"ha":1013,"x_min":53,"x_max":999,"o":"m 760 313 q 723 389 760 367 q 618 414 686 411 l 618 469 l 999 469 l 999 414 q 915 389 944 411 q 885 313 885 367 l 885 86 q 730 13 818 39 q 543 -14 642 -14 q 289 48 400 -14 q 115 217 178 110 q 53 461 53 324 q 93 678 53 581 q 203 844 133 775 q 363 949 274 913 q 553 986 453 986 q 734 960 654 986 q 863 899 814 933 l 863 681 l 807 681 q 711 858 781 801 q 540 915 642 915 q 362 860 438 915 q 245 710 286 804 q 204 500 204 617 q 248 279 204 379 q 373 119 292 179 q 567 60 454 60 q 671 74 619 60 q 760 119 722 88 l 760 313 z "},"H":{"ha":1078,"x_min":28,"x_max":1050,"o":"m 439 56 l 439 0 l 28 0 l 28 56 q 133 81 96 58 q 169 157 169 103 l 169 815 q 133 892 169 869 q 28 917 96 914 l 28 972 l 439 972 l 439 917 q 334 892 371 914 q 297 815 297 869 l 297 536 l 781 536 l 781 815 q 744 892 781 869 q 639 917 707 914 l 639 972 l 1050 972 l 1050 917 q 945 892 982 914 q 908 815 908 869 l 908 157 q 945 81 908 103 q 1050 56 982 58 l 1050 0 l 639 0 l 639 56 q 744 81 707 58 q 781 157 781 103 l 781 467 l 297 467 l 297 157 q 334 81 297 103 q 439 56 371 58 z "},"I":{"ha":467,"x_min":28,"x_max":439,"o":"m 439 56 l 439 0 l 28 0 l 28 56 q 133 81 96 58 q 169 157 169 103 l 169 815 q 133 892 169 869 q 28 917 96 914 l 28 972 l 439 972 l 439 917 q 334 892 371 914 q 297 815 297 869 l 297 157 q 334 81 297 103 q 439 56 371 58 z "},"J":{"ha":439,"x_min":-181,"x_max":425,"o":"m 283 51 q 258 -84 283 -22 q 190 -191 233 -146 q 92 -261 147 -236 q -21 -286 38 -286 q -133 -254 -86 -286 q -181 -171 -181 -222 q -158 -112 -181 -135 q -106 -89 -136 -89 q -60 -101 -78 -89 q -29 -132 -42 -114 q -6 -169 -17 -150 q 18 -200 4 -187 q 53 -212 32 -212 q 97 -192 74 -212 q 138 -127 121 -171 q 156 -12 156 -83 l 156 815 q 119 892 156 869 q 14 917 82 914 l 14 972 l 425 972 l 425 917 q 320 892 357 914 q 283 815 283 869 l 283 51 z "},"K":{"ha":963,"x_min":28,"x_max":950,"o":"m 439 56 l 439 0 l 28 0 l 28 56 q 133 81 96 58 q 169 157 169 103 l 169 815 q 133 892 169 869 q 28 917 96 914 l 28 972 l 439 972 l 439 917 q 334 892 371 914 q 297 815 297 869 l 297 157 q 334 81 297 103 q 439 56 371 58 m 950 35 l 950 0 l 792 0 l 314 497 l 632 806 q 665 858 661 833 q 644 899 669 882 q 554 917 618 915 l 554 972 l 944 972 l 944 917 q 832 889 879 914 q 740 821 785 864 l 447 543 l 950 35 z "},"L":{"ha":844,"x_min":28,"x_max":817,"o":"m 297 815 l 297 167 q 333 85 297 111 q 461 58 369 58 q 617 89 561 58 q 703 172 674 119 q 753 286 732 224 l 817 286 l 768 0 l 28 0 l 28 56 q 133 81 96 58 q 169 157 169 103 l 169 815 q 133 892 169 869 q 28 917 96 914 l 28 972 l 439 972 l 439 917 q 334 892 371 914 q 297 815 297 869 z "},"M":{"ha":1274,"x_min":7,"x_max":1267,"o":"m 635 0 l 586 0 l 297 835 l 231 181 q 235 109 226 135 q 274 72 243 83 q 368 56 306 60 l 368 0 l 7 0 l 7 56 q 112 84 74 58 q 157 185 150 110 l 222 815 q 185 892 222 869 q 81 917 149 914 l 81 972 l 394 972 q 398 928 396 947 q 408 883 400 910 l 638 214 l 867 883 q 877 928 875 910 q 881 972 879 947 l 1193 972 l 1193 917 q 1088 892 1125 914 q 1051 815 1051 869 l 1117 185 q 1140 108 1122 135 q 1190 69 1158 81 q 1267 56 1222 58 l 1267 0 l 853 0 l 853 56 q 947 72 917 60 q 987 109 978 83 q 990 181 996 135 l 924 835 l 635 0 z "},"N":{"ha":1028,"x_min":14,"x_max":1028,"o":"m 244 797 l 244 157 q 283 81 244 103 q 400 56 322 58 l 400 0 l 14 0 l 14 56 q 131 81 92 58 q 169 157 169 103 l 169 815 q 133 892 169 869 q 28 917 96 914 l 28 972 l 278 972 l 797 244 l 797 815 q 758 892 797 869 q 642 918 719 915 l 642 972 l 1028 972 l 1028 917 q 911 892 950 914 q 872 815 872 869 l 872 0 l 815 0 l 244 797 z "},"O":{"ha":1011,"x_min":53,"x_max":958,"o":"m 958 506 q 921 290 958 386 q 818 126 883 194 q 671 22 753 58 q 501 -14 589 -14 q 324 24 406 -14 q 182 129 243 63 q 87 283 121 196 q 53 467 53 369 q 90 682 53 586 q 193 846 128 778 q 340 950 258 914 q 510 986 422 986 q 687 948 606 986 q 829 843 768 910 q 924 690 890 776 q 958 506 958 603 m 810 468 q 790 626 810 547 q 729 768 769 704 q 628 870 689 832 q 486 908 568 908 q 332 857 396 908 q 235 715 268 806 q 201 504 201 624 q 221 347 201 425 q 281 204 240 268 q 382 102 321 140 q 525 64 443 64 q 679 115 615 64 q 776 258 743 167 q 810 468 810 350 z "},"P":{"ha":817,"x_min":28,"x_max":789,"o":"m 297 157 q 337 83 297 103 q 467 56 376 63 l 467 0 l 28 0 l 28 56 q 133 81 96 58 q 169 157 169 103 l 169 815 q 133 892 169 869 q 28 917 96 914 l 28 972 l 374 972 q 681 901 572 972 q 789 706 789 829 q 743 559 789 622 q 616 460 697 496 q 425 425 535 425 l 381 425 l 381 485 q 526 511 468 485 q 615 585 585 538 q 644 697 644 633 q 567 853 644 797 q 349 908 490 908 l 297 908 l 297 157 z "},"Q":{"ha":1011,"x_min":53,"x_max":958,"o":"m 722 -278 l 451 -11 q 292 40 365 -1 q 166 147 219 82 q 83 294 113 213 q 53 467 53 376 q 90 682 53 586 q 193 846 128 778 q 340 950 258 914 q 510 986 422 986 q 687 948 606 986 q 829 843 768 910 q 924 690 890 776 q 958 506 958 603 q 911 268 958 372 q 786 96 864 164 q 614 1 708 28 l 874 -244 l 874 -278 l 722 -278 m 810 468 q 790 626 810 547 q 729 768 769 704 q 628 870 689 832 q 486 908 568 908 q 332 857 396 908 q 235 715 268 806 q 201 504 201 624 q 221 347 201 425 q 281 204 240 268 q 382 102 321 140 q 525 64 443 64 q 679 115 615 64 q 776 258 743 167 q 810 468 810 350 z "},"R":{"ha":969,"x_min":53,"x_max":957,"o":"m 322 157 q 359 81 322 103 q 464 56 396 58 l 464 0 l 53 0 l 53 56 q 158 81 121 58 q 194 157 194 103 l 194 815 q 158 892 194 869 q 53 917 121 914 l 53 972 l 435 972 q 650 940 565 972 q 776 851 735 907 q 817 725 817 796 q 790 619 817 664 q 722 542 764 574 q 635 493 681 511 q 553 467 590 475 l 957 35 l 957 0 l 801 0 l 404 450 l 322 450 l 322 157 m 407 908 l 322 908 l 322 508 l 413 508 q 606 560 536 508 q 675 714 675 613 q 606 856 675 803 q 407 908 538 908 z "},"S":{"ha":729,"x_min":46,"x_max":676,"o":"m 56 88 l 46 308 l 104 308 q 197 126 132 194 q 358 58 263 58 q 500 106 447 58 q 553 238 553 153 q 527 328 553 292 q 458 389 501 364 q 364 434 415 414 q 261 476 313 454 q 167 528 210 497 q 98 604 124 558 q 72 717 72 650 q 108 851 72 790 q 210 949 143 913 q 367 986 276 986 q 514 960 449 986 q 633 896 579 935 l 633 697 l 578 697 q 535 815 564 767 q 463 890 507 864 q 356 917 418 917 q 232 872 278 917 q 186 760 186 826 q 213 675 186 710 q 283 615 239 640 q 379 569 326 590 q 484 525 432 549 q 580 470 536 501 q 650 394 624 439 q 676 285 676 350 q 631 128 676 196 q 512 24 586 61 q 347 -14 438 -14 q 229 1 285 -14 q 129 39 174 15 q 56 88 85 63 z "},"T":{"ha":917,"x_min":28,"x_max":889,"o":"m 889 972 l 889 706 l 833 706 q 772 860 815 810 q 626 911 729 911 l 522 911 l 522 157 q 562 83 522 103 q 692 56 601 63 l 692 0 l 225 0 l 225 56 q 355 83 315 63 q 394 157 394 103 l 394 911 l 290 911 q 145 860 189 911 q 83 706 101 810 l 28 706 l 28 972 l 889 972 z "},"U":{"ha":1042,"x_min":17,"x_max":1039,"o":"m 808 815 q 769 892 808 869 q 653 918 731 915 l 653 972 l 1039 972 l 1039 917 q 922 892 961 914 q 883 815 883 869 l 883 357 q 835 160 883 243 q 705 33 786 78 q 524 -12 624 -12 q 326 32 407 -12 q 201 159 244 76 q 158 356 158 242 l 158 815 q 122 892 158 869 q 17 917 85 914 l 17 972 l 428 972 l 428 917 q 323 892 360 914 q 286 815 286 869 l 286 383 q 350 160 286 239 q 535 81 414 81 q 738 160 667 81 q 808 383 808 239 l 808 815 z "},"V":{"ha":1019,"x_min":14,"x_max":1006,"o":"m 543 -14 l 475 -14 l 154 807 q 96 888 132 863 q 14 917 60 914 l 14 972 l 428 972 l 428 917 q 302 884 333 911 q 296 792 271 857 l 538 164 l 775 792 q 768 884 799 857 q 643 917 738 911 l 643 972 l 1006 972 l 1006 917 q 924 889 960 914 q 865 807 889 864 l 543 -14 z "},"W":{"ha":1411,"x_min":14,"x_max":1397,"o":"m 501 -14 l 439 -14 l 154 807 q 98 888 136 863 q 14 917 60 914 l 14 972 l 421 972 l 421 917 q 297 884 326 911 q 289 792 267 857 l 499 175 l 678 701 l 646 807 q 590 888 629 863 q 506 917 551 914 l 506 972 l 904 972 l 904 917 q 782 884 810 911 q 772 792 754 857 l 950 174 l 1167 792 q 1160 883 1190 856 q 1035 917 1129 911 l 1035 972 l 1397 972 l 1397 917 q 1315 889 1351 914 q 1257 807 1278 864 l 958 -14 l 896 -14 l 713 589 l 501 -14 z "},"X":{"ha":1003,"x_min":14,"x_max":989,"o":"m 371 792 l 529 568 l 699 792 q 718 878 738 843 q 604 917 699 913 l 604 972 l 967 972 l 967 917 q 876 883 921 914 q 796 807 831 851 l 569 511 l 815 165 q 891 88 849 118 q 989 56 933 58 l 989 0 l 561 0 l 561 56 q 680 94 656 61 q 667 181 704 128 l 488 432 l 299 181 q 278 94 260 129 q 392 56 297 60 l 392 0 l 14 0 l 14 56 q 118 90 71 58 q 200 165 165 121 l 449 488 l 221 807 q 147 884 188 854 q 61 917 107 914 l 61 972 l 475 972 l 475 917 q 357 878 381 911 q 371 792 333 844 z "},"Y":{"ha":942,"x_min":14,"x_max":928,"o":"m 704 56 l 704 0 l 238 0 l 238 56 q 367 83 328 63 q 407 157 407 103 l 407 419 l 160 807 q 94 885 129 856 q 14 917 60 914 l 14 972 l 428 972 l 428 917 q 303 879 333 911 q 308 792 274 847 l 500 485 l 692 792 q 697 880 726 847 q 572 917 667 913 l 572 972 l 928 972 l 928 917 q 848 885 882 914 q 782 807 814 856 l 535 421 l 535 157 q 574 83 535 103 q 704 56 614 63 z "},"Z":{"ha":828,"x_min":19,"x_max":801,"o":"m 328 908 q 219 887 260 908 q 156 820 178 865 q 121 706 133 775 l 65 706 l 65 972 l 775 972 l 775 936 l 185 64 l 486 64 q 614 93 567 64 q 689 173 661 122 q 738 286 717 224 l 801 286 l 753 0 l 19 0 l 19 42 l 604 908 l 328 908 z "},"Á":{"ha":1017,"x_min":14,"x_max":1003,"o":"m 411 986 l 544 986 l 863 165 q 921 84 885 110 q 1003 56 957 58 l 1003 0 l 592 0 l 592 56 q 717 89 686 61 q 724 181 749 117 l 656 356 l 311 356 l 244 181 q 251 89 219 117 q 376 56 282 61 l 376 0 l 14 0 l 14 56 q 96 83 60 58 q 154 165 132 108 l 443 906 l 411 986 m 338 425 l 629 425 l 482 803 l 338 425 m 610 1261 q 661 1290 636 1288 q 704 1281 686 1293 q 728 1247 722 1268 q 726 1204 735 1226 q 685 1165 717 1182 l 446 1042 l 421 1076 l 610 1261 z "},"Ă":{"ha":1017,"x_min":14,"x_max":1003,"o":"m 411 986 l 544 986 l 863 165 q 921 84 885 110 q 1003 56 957 58 l 1003 0 l 592 0 l 592 56 q 717 89 686 61 q 724 181 749 117 l 656 356 l 311 356 l 244 181 q 251 89 219 117 q 376 56 282 61 l 376 0 l 14 0 l 14 56 q 96 83 60 58 q 154 165 132 108 l 443 906 l 411 986 m 338 425 l 629 425 l 482 803 l 338 425 m 507 1136 q 578 1153 544 1136 q 638 1204 613 1169 q 675 1293 664 1239 l 733 1279 q 655 1099 719 1157 q 507 1040 590 1040 q 360 1099 424 1040 q 281 1279 296 1157 l 339 1293 q 376 1204 351 1239 q 435 1153 401 1169 q 507 1136 469 1136 z "},"Â":{"ha":1017,"x_min":14,"x_max":1003,"o":"m 411 986 l 544 986 l 863 165 q 921 84 885 110 q 1003 56 957 58 l 1003 0 l 592 0 l 592 56 q 717 89 686 61 q 724 181 749 117 l 656 356 l 311 356 l 244 181 q 251 89 219 117 q 376 56 282 61 l 376 0 l 14 0 l 14 56 q 96 83 60 58 q 154 165 132 108 l 443 906 l 411 986 m 338 425 l 629 425 l 482 803 l 338 425 m 554 1274 l 736 1060 l 704 1026 l 507 1176 l 310 1026 l 278 1060 l 460 1274 q 507 1297 479 1297 q 554 1274 535 1297 z "},"Ä":{"ha":1017,"x_min":14,"x_max":1003,"o":"m 411 986 l 544 986 l 863 165 q 921 84 885 110 q 1003 56 957 58 l 1003 0 l 592 0 l 592 56 q 717 89 686 61 q 724 181 749 117 l 656 356 l 311 356 l 244 181 q 251 89 219 117 q 376 56 282 61 l 376 0 l 14 0 l 14 56 q 96 83 60 58 q 154 165 132 108 l 443 906 l 411 986 m 338 425 l 629 425 l 482 803 l 338 425 m 383 1078 q 324 1101 349 1078 q 300 1161 300 1125 q 324 1219 300 1194 q 383 1243 349 1243 q 442 1219 417 1243 q 467 1161 467 1194 q 442 1101 467 1125 q 383 1078 417 1078 m 632 1078 q 574 1101 599 1078 q 549 1161 549 1125 q 574 1219 549 1194 q 632 1243 599 1243 q 691 1219 667 1243 q 715 1161 715 1194 q 691 1101 715 1125 q 632 1078 667 1078 z "},"À":{"ha":1017,"x_min":14,"x_max":1003,"o":"m 411 986 l 544 986 l 863 165 q 921 84 885 110 q 1003 56 957 58 l 1003 0 l 592 0 l 592 56 q 717 89 686 61 q 724 181 749 117 l 656 356 l 311 356 l 244 181 q 251 89 219 117 q 376 56 282 61 l 376 0 l 14 0 l 14 56 q 96 83 60 58 q 154 165 132 108 l 443 906 l 411 986 m 338 425 l 629 425 l 482 803 l 338 425 m 404 1261 l 593 1076 l 568 1042 l 329 1165 q 289 1204 299 1182 q 285 1247 279 1226 q 310 1281 292 1268 q 353 1290 328 1293 q 404 1261 378 1288 z "},"Ā":{"ha":1017,"x_min":14,"x_max":1003,"o":"m 411 986 l 544 986 l 863 165 q 921 84 885 110 q 1003 56 957 58 l 1003 0 l 592 0 l 592 56 q 717 89 686 61 q 724 181 749 117 l 656 356 l 311 356 l 244 181 q 251 89 219 117 q 376 56 282 61 l 376 0 l 14 0 l 14 56 q 96 83 60 58 q 154 165 132 108 l 443 906 l 411 986 m 338 425 l 629 425 l 482 803 l 338 425 m 289 1106 l 289 1192 l 725 1192 l 725 1106 l 289 1106 z "},"Ą":{"ha":1017,"x_min":14,"x_max":1003,"o":"m 411 986 l 544 986 l 863 165 q 921 84 885 110 q 1003 56 957 58 l 1003 0 l 838 0 q 705 -30 761 0 q 619 -103 649 -60 q 589 -185 589 -146 q 606 -237 589 -218 q 658 -257 624 -257 q 724 -238 694 -257 q 789 -185 754 -219 l 817 -218 q 737 -297 786 -260 q 626 -333 688 -333 q 535 -301 572 -333 q 497 -211 497 -268 q 528 -106 497 -160 q 622 -10 560 -53 q 774 50 683 32 l 656 356 l 311 356 l 244 181 q 251 89 219 117 q 376 56 282 61 l 376 0 l 14 0 l 14 56 q 96 83 60 58 q 154 165 132 108 l 443 906 l 411 986 m 338 425 l 628 425 l 482 803 l 338 425 z "},"Å":{"ha":1017,"x_min":14,"x_max":1003,"o":"m 356 1072 q 398 1174 356 1132 q 499 1215 440 1215 q 599 1174 557 1215 q 642 1072 642 1132 q 619 995 642 1029 q 561 943 597 961 l 863 165 q 921 84 885 110 q 1003 56 957 58 l 1003 0 l 592 0 l 592 56 q 717 89 686 61 q 724 181 749 117 l 656 356 l 311 356 l 244 181 q 251 89 219 117 q 376 56 282 61 l 376 0 l 14 0 l 14 56 q 96 83 60 58 q 154 165 132 108 l 443 906 l 425 950 q 375 1001 394 969 q 356 1072 356 1033 m 581 1072 q 556 1133 581 1108 q 499 1157 532 1157 q 441 1133 465 1157 q 417 1072 417 1108 q 441 1012 417 1036 q 499 988 465 988 q 556 1012 532 988 q 581 1072 581 1036 m 338 425 l 629 425 l 482 803 l 338 425 z "},"Ã":{"ha":1017,"x_min":14,"x_max":1003,"o":"m 411 986 l 544 986 l 863 165 q 921 84 885 110 q 1003 56 957 58 l 1003 0 l 592 0 l 592 56 q 717 89 686 61 q 724 181 749 117 l 656 356 l 311 356 l 244 181 q 251 89 219 117 q 376 56 282 61 l 376 0 l 14 0 l 14 56 q 96 83 60 58 q 154 165 132 108 l 443 906 l 411 986 m 338 425 l 629 425 l 482 803 l 338 425 m 425 1258 q 477 1244 453 1258 q 525 1212 501 1231 q 570 1179 549 1193 q 613 1165 592 1165 q 669 1191 643 1165 q 718 1261 696 1217 l 767 1236 q 682 1103 726 1139 q 592 1067 638 1067 q 539 1081 564 1067 q 491 1113 514 1094 q 446 1146 468 1132 q 403 1160 424 1160 q 347 1134 374 1160 q 297 1064 321 1108 l 247 1089 q 333 1222 288 1186 q 425 1258 379 1258 z "},"Æ":{"ha":1389,"x_min":14,"x_max":1361,"o":"m 475 972 l 1292 972 l 1292 719 l 1236 719 q 1202 824 1225 782 q 1138 888 1179 867 q 1029 908 1097 908 l 814 908 l 814 533 l 996 533 q 1078 568 1050 533 q 1107 665 1106 603 l 1161 665 l 1161 335 l 1107 335 q 1078 432 1106 397 q 996 467 1050 467 l 814 467 l 814 167 q 850 85 814 111 q 978 58 886 58 q 1119 76 1064 58 q 1208 124 1174 93 q 1262 197 1242 156 q 1297 286 1282 239 l 1361 286 l 1313 0 l 544 0 l 544 56 q 649 81 613 58 q 686 157 686 103 l 686 342 l 365 342 l 268 181 q 258 92 233 122 q 376 56 282 61 l 376 0 l 14 0 l 14 56 q 99 86 60 58 q 168 165 138 114 l 608 903 q 546 912 579 908 q 475 917 513 915 l 475 972 m 407 411 l 686 411 l 686 878 l 407 411 z "},"Ǽ":{"ha":1389,"x_min":14,"x_max":1361,"o":"m 475 972 l 1292 972 l 1292 719 l 1236 719 q 1202 824 1225 782 q 1138 888 1179 867 q 1029 908 1097 908 l 814 908 l 814 533 l 996 533 q 1078 568 1050 533 q 1107 665 1106 603 l 1161 665 l 1161 335 l 1107 335 q 1078 432 1106 397 q 996 467 1050 467 l 814 467 l 814 167 q 850 85 814 111 q 978 58 886 58 q 1119 76 1064 58 q 1208 124 1174 93 q 1262 197 1242 156 q 1297 286 1282 239 l 1361 286 l 1313 0 l 544 0 l 544 56 q 649 81 613 58 q 686 157 686 103 l 686 342 l 365 342 l 268 181 q 258 92 233 122 q 376 56 282 61 l 376 0 l 14 0 l 14 56 q 99 86 60 58 q 168 165 138 114 l 608 903 q 546 912 579 908 q 475 917 513 915 l 475 972 m 407 411 l 686 411 l 686 878 l 407 411 m 1015 1261 q 1067 1290 1042 1288 q 1110 1281 1092 1293 q 1134 1247 1128 1268 q 1131 1204 1140 1226 q 1090 1165 1122 1182 l 851 1042 l 826 1076 l 1015 1261 z "},"Ć":{"ha":928,"x_min":53,"x_max":889,"o":"m 553 58 q 722 119 654 58 q 828 297 789 179 l 889 297 l 847 63 q 707 7 778 28 q 533 -14 636 -14 q 340 22 428 -14 q 188 121 251 57 q 88 272 124 185 q 53 461 53 358 q 92 678 53 581 q 201 844 132 775 q 360 949 271 913 q 549 986 449 986 q 728 960 650 986 q 856 899 807 933 l 856 681 l 800 681 q 706 858 774 801 q 536 915 638 915 q 359 860 433 915 q 244 710 285 804 q 204 500 204 617 q 246 278 204 379 q 366 118 288 178 q 553 58 444 58 m 657 1261 q 708 1290 683 1288 q 751 1281 733 1293 q 776 1247 769 1268 q 773 1204 782 1226 q 732 1165 764 1182 l 493 1042 l 468 1076 l 657 1261 z "},"Č":{"ha":928,"x_min":53,"x_max":889,"o":"m 553 58 q 722 119 654 58 q 828 297 789 179 l 889 297 l 847 63 q 707 7 778 28 q 533 -14 636 -14 q 340 22 428 -14 q 188 121 251 57 q 88 272 124 185 q 53 461 53 358 q 92 678 53 581 q 201 844 132 775 q 360 949 271 913 q 549 986 449 986 q 728 960 650 986 q 856 899 807 933 l 856 681 l 800 681 q 706 858 774 801 q 536 915 638 915 q 359 860 433 915 q 244 710 285 804 q 204 500 204 617 q 246 278 204 379 q 366 118 288 178 q 553 58 444 58 m 601 1049 q 554 1026 582 1026 q 507 1049 526 1026 l 325 1263 l 357 1296 l 554 1146 l 751 1296 l 783 1263 l 601 1049 z "},"Ç":{"ha":928,"x_min":53,"x_max":889,"o":"m 343 -325 l 351 -271 q 481 -272 433 -289 q 529 -219 529 -254 q 493 -167 529 -182 q 394 -146 457 -151 l 449 -7 q 242 76 331 11 q 103 240 153 140 q 53 461 53 339 q 92 678 53 581 q 201 844 132 775 q 360 949 271 913 q 549 986 449 986 q 728 960 650 986 q 856 899 807 933 l 856 681 l 800 681 q 706 858 774 801 q 536 915 638 915 q 359 860 433 915 q 244 710 285 804 q 204 500 204 617 q 246 278 204 379 q 366 118 288 178 q 553 58 444 58 q 722 119 654 58 q 828 297 789 179 l 889 297 l 847 63 q 707 7 778 28 q 533 -14 636 -14 q 515 -14 524 -14 q 496 -12 506 -14 l 472 -79 q 582 -115 538 -86 q 626 -192 626 -143 q 588 -281 626 -246 q 484 -327 549 -315 q 343 -325 419 -339 z "},"Ĉ":{"ha":928,"x_min":53,"x_max":889,"o":"m 553 58 q 722 119 654 58 q 828 297 789 179 l 889 297 l 847 63 q 707 7 778 28 q 533 -14 636 -14 q 340 22 428 -14 q 188 121 251 57 q 88 272 124 185 q 53 461 53 358 q 92 678 53 581 q 201 844 132 775 q 360 949 271 913 q 549 986 449 986 q 728 960 650 986 q 856 899 807 933 l 856 681 l 800 681 q 706 858 774 801 q 536 915 638 915 q 359 860 433 915 q 244 710 285 804 q 204 500 204 617 q 246 278 204 379 q 366 118 288 178 q 553 58 444 58 m 601 1274 l 783 1060 l 751 1026 l 554 1176 l 357 1026 l 325 1060 l 507 1274 q 554 1297 526 1297 q 601 1274 582 1297 z "},"Ċ":{"ha":928,"x_min":53,"x_max":889,"o":"m 553 58 q 722 119 654 58 q 828 297 789 179 l 889 297 l 847 63 q 707 7 778 28 q 533 -14 636 -14 q 340 22 428 -14 q 188 121 251 57 q 88 272 124 185 q 53 461 53 358 q 92 678 53 581 q 201 844 132 775 q 360 949 271 913 q 549 986 449 986 q 728 960 650 986 q 856 899 807 933 l 856 681 l 800 681 q 706 858 774 801 q 536 915 638 915 q 359 860 433 915 q 244 710 285 804 q 204 500 204 617 q 246 278 204 379 q 366 118 288 178 q 553 58 444 58 m 554 1078 q 492 1103 518 1078 q 467 1165 467 1129 q 492 1227 467 1201 q 554 1253 518 1253 q 616 1227 590 1253 q 642 1165 642 1201 q 616 1103 642 1129 q 554 1078 590 1078 z "},"Ď":{"ha":1017,"x_min":28,"x_max":964,"o":"m 28 972 l 375 972 q 634 936 524 972 q 818 837 744 900 q 928 692 892 774 q 964 519 964 610 q 922 303 964 399 q 804 140 879 207 q 632 36 729 72 q 426 0 535 0 l 28 0 l 28 56 q 133 81 96 58 q 169 157 169 103 l 169 815 q 133 892 169 869 q 28 917 96 914 l 28 972 m 349 908 l 297 908 l 297 174 q 331 88 297 113 q 431 64 364 64 q 626 113 539 64 q 763 257 713 161 q 814 494 814 353 q 764 702 814 608 q 610 852 714 796 q 349 908 507 908 m 543 1049 q 496 1026 524 1026 q 449 1049 468 1026 l 267 1263 l 299 1296 l 496 1146 l 693 1296 l 725 1263 l 543 1049 z "},"Đ":{"ha":1017,"x_min":28,"x_max":964,"o":"m 28 972 l 375 972 q 634 936 524 972 q 818 837 744 900 q 928 692 892 774 q 964 519 964 610 q 922 303 964 399 q 804 140 879 207 q 632 36 729 72 q 426 0 535 0 l 28 0 l 28 56 q 133 81 96 58 q 169 157 169 103 l 169 467 l 56 467 l 56 536 l 169 536 l 169 815 q 133 892 169 869 q 28 917 96 914 l 28 972 m 472 467 l 297 467 l 297 174 q 331 88 297 113 q 431 64 364 64 q 626 113 539 64 q 763 257 713 161 q 814 494 814 353 q 764 702 814 608 q 610 852 714 796 q 349 908 507 908 l 297 908 l 297 536 l 472 536 l 472 467 z "},"É":{"ha":872,"x_min":28,"x_max":844,"o":"m 28 972 l 775 972 l 775 719 l 719 719 q 685 824 708 782 q 622 888 663 867 q 513 908 581 908 l 297 908 l 297 533 l 479 533 q 561 568 533 533 q 590 665 589 603 l 644 665 l 644 335 l 590 335 q 561 432 589 397 q 479 467 533 467 l 297 467 l 297 167 q 333 85 297 111 q 461 58 369 58 q 602 76 547 58 q 691 124 657 93 q 745 197 725 156 q 781 286 765 239 l 844 286 l 796 0 l 28 0 l 28 56 q 133 81 96 58 q 169 157 169 103 l 169 815 q 133 892 169 869 q 28 917 96 914 l 28 972 m 553 1261 q 604 1290 579 1288 q 647 1281 629 1293 q 672 1247 665 1268 q 669 1204 678 1226 q 628 1165 660 1182 l 389 1042 l 364 1076 l 553 1261 z "},"Ĕ":{"ha":872,"x_min":28,"x_max":844,"o":"m 28 972 l 775 972 l 775 719 l 719 719 q 685 824 708 782 q 622 888 663 867 q 513 908 581 908 l 297 908 l 297 533 l 479 533 q 561 568 533 533 q 590 665 589 603 l 644 665 l 644 335 l 590 335 q 561 432 589 397 q 479 467 533 467 l 297 467 l 297 167 q 333 85 297 111 q 461 58 369 58 q 602 76 547 58 q 691 124 657 93 q 745 197 725 156 q 781 286 765 239 l 844 286 l 796 0 l 28 0 l 28 56 q 133 81 96 58 q 169 157 169 103 l 169 815 q 133 892 169 869 q 28 917 96 914 l 28 972 m 450 1136 q 522 1153 488 1136 q 581 1204 556 1169 q 618 1293 607 1239 l 676 1279 q 598 1099 663 1157 q 450 1040 533 1040 q 303 1099 367 1040 q 224 1279 239 1157 l 282 1293 q 319 1204 294 1239 q 378 1153 344 1169 q 450 1136 413 1136 z "},"Ě":{"ha":872,"x_min":28,"x_max":844,"o":"m 28 972 l 775 972 l 775 719 l 719 719 q 685 824 708 782 q 622 888 663 867 q 513 908 581 908 l 297 908 l 297 533 l 479 533 q 561 568 533 533 q 590 665 589 603 l 644 665 l 644 335 l 590 335 q 561 432 589 397 q 479 467 533 467 l 297 467 l 297 167 q 333 85 297 111 q 461 58 369 58 q 602 76 547 58 q 691 124 657 93 q 745 197 725 156 q 781 286 765 239 l 844 286 l 796 0 l 28 0 l 28 56 q 133 81 96 58 q 169 157 169 103 l 169 815 q 133 892 169 869 q 28 917 96 914 l 28 972 m 497 1049 q 450 1026 478 1026 q 403 1049 422 1026 l 221 1263 l 253 1296 l 450 1146 l 647 1296 l 679 1263 l 497 1049 z "},"Ê":{"ha":872,"x_min":28,"x_max":844,"o":"m 28 972 l 775 972 l 775 719 l 719 719 q 685 824 708 782 q 622 888 663 867 q 513 908 581 908 l 297 908 l 297 533 l 479 533 q 561 568 533 533 q 590 665 589 603 l 644 665 l 644 335 l 590 335 q 561 432 589 397 q 479 467 533 467 l 297 467 l 297 167 q 333 85 297 111 q 461 58 369 58 q 602 76 547 58 q 691 124 657 93 q 745 197 725 156 q 781 286 765 239 l 844 286 l 796 0 l 28 0 l 28 56 q 133 81 96 58 q 169 157 169 103 l 169 815 q 133 892 169 869 q 28 917 96 914 l 28 972 m 497 1274 l 679 1060 l 647 1026 l 450 1176 l 253 1026 l 221 1060 l 403 1274 q 450 1297 422 1297 q 497 1274 478 1297 z "},"Ë":{"ha":872,"x_min":28,"x_max":844,"o":"m 28 972 l 775 972 l 775 719 l 719 719 q 685 824 708 782 q 622 888 663 867 q 513 908 581 908 l 297 908 l 297 533 l 479 533 q 561 568 533 533 q 590 665 589 603 l 644 665 l 644 335 l 590 335 q 561 432 589 397 q 479 467 533 467 l 297 467 l 297 167 q 333 85 297 111 q 461 58 369 58 q 602 76 547 58 q 691 124 657 93 q 745 197 725 156 q 781 286 765 239 l 844 286 l 796 0 l 28 0 l 28 56 q 133 81 96 58 q 169 157 169 103 l 169 815 q 133 892 169 869 q 28 917 96 914 l 28 972 m 326 1078 q 267 1101 292 1078 q 243 1161 243 1125 q 267 1219 243 1194 q 326 1243 292 1243 q 385 1219 360 1243 q 410 1161 410 1194 q 385 1101 410 1125 q 326 1078 360 1078 m 575 1078 q 517 1101 542 1078 q 492 1161 492 1125 q 517 1219 492 1194 q 575 1243 542 1243 q 634 1219 610 1243 q 658 1161 658 1194 q 634 1101 658 1125 q 575 1078 610 1078 z "},"Ė":{"ha":872,"x_min":28,"x_max":844,"o":"m 28 972 l 775 972 l 775 719 l 719 719 q 685 824 708 782 q 622 888 663 867 q 513 908 581 908 l 297 908 l 297 533 l 479 533 q 561 568 533 533 q 590 665 589 603 l 644 665 l 644 335 l 590 335 q 561 432 589 397 q 479 467 533 467 l 297 467 l 297 167 q 333 85 297 111 q 461 58 369 58 q 602 76 547 58 q 691 124 657 93 q 745 197 725 156 q 781 286 765 239 l 844 286 l 796 0 l 28 0 l 28 56 q 133 81 96 58 q 169 157 169 103 l 169 815 q 133 892 169 869 q 28 917 96 914 l 28 972 m 450 1078 q 388 1103 414 1078 q 363 1165 363 1129 q 388 1227 363 1201 q 450 1253 414 1253 q 512 1227 486 1253 q 538 1165 538 1201 q 512 1103 538 1129 q 450 1078 486 1078 z "},"È":{"ha":872,"x_min":28,"x_max":844,"o":"m 28 972 l 775 972 l 775 719 l 719 719 q 685 824 708 782 q 622 888 663 867 q 513 908 581 908 l 297 908 l 297 533 l 479 533 q 561 568 533 533 q 590 665 589 603 l 644 665 l 644 335 l 590 335 q 561 432 589 397 q 479 467 533 467 l 297 467 l 297 167 q 333 85 297 111 q 461 58 369 58 q 602 76 547 58 q 691 124 657 93 q 745 197 725 156 q 781 286 765 239 l 844 286 l 796 0 l 28 0 l 28 56 q 133 81 96 58 q 169 157 169 103 l 169 815 q 133 892 169 869 q 28 917 96 914 l 28 972 m 347 1261 l 536 1076 l 511 1042 l 272 1165 q 232 1204 242 1182 q 228 1247 222 1226 q 253 1281 235 1268 q 296 1290 271 1293 q 347 1261 321 1288 z "},"Ē":{"ha":872,"x_min":28,"x_max":844,"o":"m 28 972 l 775 972 l 775 719 l 719 719 q 685 824 708 782 q 622 888 663 867 q 513 908 581 908 l 297 908 l 297 533 l 479 533 q 561 568 533 533 q 590 665 589 603 l 644 665 l 644 335 l 590 335 q 561 432 589 397 q 479 467 533 467 l 297 467 l 297 167 q 333 85 297 111 q 461 58 369 58 q 602 76 547 58 q 691 124 657 93 q 745 197 725 156 q 781 286 765 239 l 844 286 l 796 0 l 28 0 l 28 56 q 133 81 96 58 q 169 157 169 103 l 169 815 q 133 892 169 869 q 28 917 96 914 l 28 972 m 232 1106 l 232 1192 l 668 1192 l 668 1106 l 232 1106 z "},"Ę":{"ha":872,"x_min":28,"x_max":844,"o":"m 28 972 l 775 972 l 775 719 l 719 719 q 685 824 708 782 q 622 888 663 867 q 513 908 581 908 l 297 908 l 297 533 l 479 533 q 561 568 533 533 q 590 665 589 603 l 644 665 l 644 335 l 590 335 q 561 432 589 397 q 479 467 533 467 l 297 467 l 297 167 q 333 85 297 111 q 461 58 369 58 q 602 76 547 58 q 691 124 657 93 q 745 197 725 156 q 781 286 765 239 l 844 286 l 796 0 l 682 0 q 600 -51 639 -21 q 537 -115 561 -81 q 513 -185 513 -149 q 530 -237 513 -218 q 582 -257 547 -257 q 648 -238 618 -257 q 713 -185 678 -219 l 740 -218 q 660 -297 710 -260 q 550 -333 611 -333 q 458 -301 496 -333 q 421 -211 421 -268 q 470 -92 421 -146 q 592 0 519 -39 l 28 0 l 28 56 q 133 81 96 58 q 169 157 169 103 l 169 815 q 133 892 169 869 q 28 917 96 914 l 28 972 z "},"Ð":{"ha":1017,"x_min":28,"x_max":964,"o":"m 28 972 l 375 972 q 634 936 524 972 q 818 837 744 900 q 928 692 892 774 q 964 519 964 610 q 922 303 964 399 q 804 140 879 207 q 632 36 729 72 q 426 0 535 0 l 28 0 l 28 56 q 133 81 96 58 q 169 157 169 103 l 169 467 l 56 467 l 56 536 l 169 536 l 169 815 q 133 892 169 869 q 28 917 96 914 l 28 972 m 472 467 l 297 467 l 297 174 q 331 88 297 113 q 431 64 364 64 q 626 113 539 64 q 763 257 713 161 q 814 494 814 353 q 764 702 814 608 q 610 852 714 796 q 349 908 507 908 l 297 908 l 297 536 l 472 536 l 472 467 z "},"Ğ":{"ha":1013,"x_min":53,"x_max":999,"o":"m 760 313 q 723 389 760 367 q 618 414 686 411 l 618 469 l 999 469 l 999 414 q 915 389 944 411 q 885 313 885 367 l 885 86 q 730 13 818 39 q 543 -14 642 -14 q 289 48 400 -14 q 115 217 178 110 q 53 461 53 324 q 93 678 53 581 q 203 844 133 775 q 363 949 274 913 q 553 986 453 986 q 734 960 654 986 q 863 899 814 933 l 863 681 l 807 681 q 711 858 781 801 q 540 915 642 915 q 362 860 438 915 q 245 710 286 804 q 204 500 204 617 q 248 279 204 379 q 373 119 292 179 q 567 60 454 60 q 671 74 619 60 q 760 119 722 88 l 760 313 m 567 1136 q 638 1153 604 1136 q 698 1204 672 1169 q 735 1293 724 1239 l 793 1279 q 715 1099 779 1157 q 567 1040 650 1040 q 419 1099 483 1040 q 340 1279 356 1157 l 399 1293 q 436 1204 411 1239 q 495 1153 461 1169 q 567 1136 529 1136 z "},"Ĝ":{"ha":1013,"x_min":53,"x_max":999,"o":"m 760 313 q 723 389 760 367 q 618 414 686 411 l 618 469 l 999 469 l 999 414 q 915 389 944 411 q 885 313 885 367 l 885 86 q 730 13 818 39 q 543 -14 642 -14 q 289 48 400 -14 q 115 217 178 110 q 53 461 53 324 q 93 678 53 581 q 203 844 133 775 q 363 949 274 913 q 553 986 453 986 q 734 960 654 986 q 863 899 814 933 l 863 681 l 807 681 q 711 858 781 801 q 540 915 642 915 q 362 860 438 915 q 245 710 286 804 q 204 500 204 617 q 248 279 204 379 q 373 119 292 179 q 567 60 454 60 q 671 74 619 60 q 760 119 722 88 l 760 313 m 614 1274 l 796 1060 l 764 1026 l 567 1176 l 369 1026 l 338 1060 l 519 1274 q 567 1297 539 1297 q 614 1274 594 1297 z "},"Ģ":{"ha":1013,"x_min":53,"x_max":999,"o":"m 760 313 q 723 389 760 367 q 618 414 686 411 l 618 469 l 999 469 l 999 414 q 915 389 944 411 q 885 313 885 367 l 885 86 q 730 13 818 39 q 543 -14 642 -14 q 289 48 400 -14 q 115 217 178 110 q 53 461 53 324 q 93 678 53 581 q 203 844 133 775 q 363 949 274 913 q 553 986 453 986 q 734 960 654 986 q 863 899 814 933 l 863 681 l 807 681 q 711 858 781 801 q 540 915 642 915 q 362 860 438 915 q 245 710 286 804 q 204 500 204 617 q 248 279 204 379 q 373 119 292 179 q 567 60 454 60 q 671 74 619 60 q 760 119 722 88 l 760 313 m 539 -231 q 526 -210 539 -215 q 496 -199 513 -204 q 466 -183 479 -194 q 453 -146 453 -172 q 478 -92 453 -111 q 535 -72 503 -72 q 603 -101 576 -72 q 629 -175 629 -131 q 606 -254 629 -218 q 540 -314 583 -290 q 433 -342 497 -337 l 419 -292 q 514 -269 489 -285 q 539 -231 539 -253 z "},"Ġ":{"ha":1013,"x_min":53,"x_max":999,"o":"m 760 313 q 723 389 760 367 q 618 414 686 411 l 618 469 l 999 469 l 999 414 q 915 389 944 411 q 885 313 885 367 l 885 86 q 730 13 818 39 q 543 -14 642 -14 q 289 48 400 -14 q 115 217 178 110 q 53 461 53 324 q 93 678 53 581 q 203 844 133 775 q 363 949 274 913 q 553 986 453 986 q 734 960 654 986 q 863 899 814 933 l 863 681 l 807 681 q 711 858 781 801 q 540 915 642 915 q 362 860 438 915 q 245 710 286 804 q 204 500 204 617 q 248 279 204 379 q 373 119 292 179 q 567 60 454 60 q 671 74 619 60 q 760 119 722 88 l 760 313 m 567 1078 q 505 1103 531 1078 q 479 1165 479 1129 q 505 1227 479 1201 q 567 1253 531 1253 q 628 1227 603 1253 q 654 1165 654 1201 q 628 1103 654 1129 q 567 1078 603 1078 z "},"Ħ":{"ha":1078,"x_min":28,"x_max":1050,"o":"m 439 56 l 439 0 l 28 0 l 28 56 q 133 81 96 58 q 169 157 169 103 l 169 647 l 56 647 l 56 717 l 169 717 l 169 815 q 133 892 169 869 q 28 917 96 914 l 28 972 l 439 972 l 439 917 q 334 892 371 914 q 297 815 297 869 l 297 717 l 781 717 l 781 815 q 744 892 781 869 q 639 917 707 914 l 639 972 l 1050 972 l 1050 917 q 945 892 982 914 q 908 815 908 869 l 908 717 l 1022 717 l 1022 647 l 908 647 l 908 157 q 945 81 908 103 q 1050 56 982 58 l 1050 0 l 639 0 l 639 56 q 744 81 707 58 q 781 157 781 103 l 781 411 l 297 411 l 297 157 q 334 81 297 103 q 439 56 371 58 m 297 481 l 781 481 l 781 647 l 297 647 l 297 481 z "},"Ĥ":{"ha":1078,"x_min":28,"x_max":1050,"o":"m 439 56 l 439 0 l 28 0 l 28 56 q 133 81 96 58 q 169 157 169 103 l 169 815 q 133 892 169 869 q 28 917 96 914 l 28 972 l 439 972 l 439 917 q 334 892 371 914 q 297 815 297 869 l 297 536 l 781 536 l 781 815 q 744 892 781 869 q 639 917 707 914 l 639 972 l 1050 972 l 1050 917 q 945 892 982 914 q 908 815 908 869 l 908 157 q 945 81 908 103 q 1050 56 982 58 l 1050 0 l 639 0 l 639 56 q 744 81 707 58 q 781 157 781 103 l 781 467 l 297 467 l 297 157 q 334 81 297 103 q 439 56 371 58 m 586 1274 l 768 1060 l 736 1026 l 539 1176 l 342 1026 l 310 1060 l 492 1274 q 539 1297 511 1297 q 586 1274 567 1297 z "},"Í":{"ha":467,"x_min":28,"x_max":461,"o":"m 439 56 l 439 0 l 28 0 l 28 56 q 133 81 96 58 q 169 157 169 103 l 169 815 q 133 892 169 869 q 28 917 96 914 l 28 972 l 439 972 l 439 917 q 334 892 371 914 q 297 815 297 869 l 297 157 q 334 81 297 103 q 439 56 371 58 m 336 1261 q 388 1290 363 1288 q 431 1281 413 1293 q 455 1247 449 1268 q 452 1204 461 1226 q 411 1165 443 1182 l 172 1042 l 147 1076 l 336 1261 z "},"Ĭ":{"ha":467,"x_min":7,"x_max":460,"o":"m 439 56 l 439 0 l 28 0 l 28 56 q 133 81 96 58 q 169 157 169 103 l 169 815 q 133 892 169 869 q 28 917 96 914 l 28 972 l 439 972 l 439 917 q 334 892 371 914 q 297 815 297 869 l 297 157 q 334 81 297 103 q 439 56 371 58 m 233 1136 q 305 1153 271 1136 q 365 1204 339 1169 q 401 1293 390 1239 l 460 1279 q 381 1099 446 1157 q 233 1040 317 1040 q 86 1099 150 1040 q 7 1279 22 1157 l 65 1293 q 103 1204 78 1239 q 162 1153 128 1169 q 233 1136 196 1136 z "},"Î":{"ha":467,"x_min":4,"x_max":463,"o":"m 439 56 l 439 0 l 28 0 l 28 56 q 133 81 96 58 q 169 157 169 103 l 169 815 q 133 892 169 869 q 28 917 96 914 l 28 972 l 439 972 l 439 917 q 334 892 371 914 q 297 815 297 869 l 297 157 q 334 81 297 103 q 439 56 371 58 m 281 1274 l 463 1060 l 431 1026 l 233 1176 l 36 1026 l 4 1060 l 186 1274 q 233 1297 206 1297 q 281 1274 261 1297 z "},"Ï":{"ha":467,"x_min":26,"x_max":442,"o":"m 439 56 l 439 0 l 28 0 l 28 56 q 133 81 96 58 q 169 157 169 103 l 169 815 q 133 892 169 869 q 28 917 96 914 l 28 972 l 439 972 l 439 917 q 334 892 371 914 q 297 815 297 869 l 297 157 q 334 81 297 103 q 439 56 371 58 m 110 1078 q 51 1101 75 1078 q 26 1161 26 1125 q 51 1219 26 1194 q 110 1243 75 1243 q 168 1219 143 1243 q 193 1161 193 1194 q 168 1101 193 1125 q 110 1078 143 1078 m 358 1078 q 300 1101 325 1078 q 275 1161 275 1125 q 300 1219 275 1194 q 358 1243 325 1243 q 417 1219 393 1243 q 442 1161 442 1194 q 417 1101 442 1125 q 358 1078 393 1078 z "},"İ":{"ha":467,"x_min":28,"x_max":439,"o":"m 439 56 l 439 0 l 28 0 l 28 56 q 133 81 96 58 q 169 157 169 103 l 169 815 q 133 892 169 869 q 28 917 96 914 l 28 972 l 439 972 l 439 917 q 334 892 371 914 q 297 815 297 869 l 297 157 q 334 81 297 103 q 439 56 371 58 m 233 1078 q 172 1103 197 1078 q 146 1165 146 1129 q 172 1227 146 1201 q 233 1253 197 1253 q 295 1227 269 1253 q 321 1165 321 1201 q 295 1103 321 1129 q 233 1078 269 1078 z "},"Ì":{"ha":467,"x_min":6,"x_max":439,"o":"m 439 56 l 439 0 l 28 0 l 28 56 q 133 81 96 58 q 169 157 169 103 l 169 815 q 133 892 169 869 q 28 917 96 914 l 28 972 l 439 972 l 439 917 q 334 892 371 914 q 297 815 297 869 l 297 157 q 334 81 297 103 q 439 56 371 58 m 131 1261 l 319 1076 l 294 1042 l 56 1165 q 15 1204 25 1182 q 12 1247 6 1226 q 36 1281 18 1268 q 79 1290 54 1293 q 131 1261 104 1288 z "},"Ī":{"ha":467,"x_min":15,"x_max":451,"o":"m 439 56 l 439 0 l 28 0 l 28 56 q 133 81 96 58 q 169 157 169 103 l 169 815 q 133 892 169 869 q 28 917 96 914 l 28 972 l 439 972 l 439 917 q 334 892 371 914 q 297 815 297 869 l 297 157 q 334 81 297 103 q 439 56 371 58 m 15 1106 l 15 1192 l 451 1192 l 451 1106 l 15 1106 z "},"Į":{"ha":467,"x_min":28,"x_max":439,"o":"m 439 56 l 439 0 l 381 0 q 299 -51 338 -21 q 235 -115 260 -81 q 211 -185 211 -149 q 228 -237 211 -218 q 281 -257 246 -257 q 347 -238 317 -257 q 411 -185 376 -219 l 439 -218 q 359 -297 408 -260 q 249 -333 310 -333 q 157 -301 194 -333 q 119 -211 119 -268 q 169 -92 119 -146 q 290 0 218 -39 l 28 0 l 28 56 q 133 81 96 58 q 169 157 169 103 l 169 815 q 133 892 169 869 q 28 917 96 914 l 28 972 l 439 972 l 439 917 q 334 892 371 914 q 297 815 297 869 l 297 157 q 334 81 297 103 q 439 56 371 58 z "},"Ĩ":{"ha":467,"x_min":-26,"x_max":493,"o":"m 439 56 l 439 0 l 28 0 l 28 56 q 133 81 96 58 q 169 157 169 103 l 169 815 q 133 892 169 869 q 28 917 96 914 l 28 972 l 439 972 l 439 917 q 334 892 371 914 q 297 815 297 869 l 297 157 q 334 81 297 103 q 439 56 371 58 m 151 1258 q 203 1244 179 1258 q 251 1212 228 1231 q 297 1179 275 1193 q 339 1165 318 1165 q 396 1191 369 1165 q 444 1261 422 1217 l 493 1236 q 408 1103 453 1139 q 318 1067 364 1067 q 265 1081 290 1067 q 217 1113 240 1094 q 172 1146 194 1132 q 129 1160 150 1160 q 74 1134 100 1160 q 24 1064 47 1108 l -26 1089 q 60 1222 14 1186 q 151 1258 106 1258 z "},"Ĳ":{"ha":906,"x_min":28,"x_max":892,"o":"m 439 56 l 439 0 l 28 0 l 28 56 q 133 81 96 58 q 169 157 169 103 l 169 815 q 133 892 169 869 q 28 917 96 914 l 28 972 l 439 972 l 439 917 q 334 892 371 914 q 297 815 297 869 l 297 157 q 334 81 297 103 q 439 56 371 58 m 750 51 q 725 -84 750 -22 q 657 -191 700 -146 q 559 -261 614 -236 q 446 -286 504 -286 q 333 -254 381 -286 q 286 -171 286 -222 q 308 -112 286 -135 q 361 -89 331 -89 q 407 -101 389 -89 q 438 -132 425 -114 q 460 -169 450 -150 q 485 -200 471 -187 q 519 -212 499 -212 q 564 -192 540 -212 q 605 -127 588 -171 q 622 -12 622 -83 l 622 815 q 585 892 622 869 q 481 917 549 914 l 481 972 l 892 972 l 892 917 q 787 892 824 914 q 750 815 750 869 l 750 51 z "},"Ĵ":{"ha":439,"x_min":-181,"x_max":450,"o":"m 283 51 q 258 -84 283 -22 q 190 -191 233 -146 q 92 -261 147 -236 q -21 -286 38 -286 q -133 -254 -86 -286 q -181 -171 -181 -222 q -158 -112 -181 -135 q -106 -89 -136 -89 q -60 -101 -78 -89 q -29 -132 -42 -114 q -6 -169 -17 -150 q 18 -200 4 -187 q 53 -212 32 -212 q 97 -192 74 -212 q 138 -127 121 -171 q 156 -12 156 -83 l 156 815 q 119 892 156 869 q 14 917 82 914 l 14 972 l 425 972 l 425 917 q 320 892 357 914 q 283 815 283 869 l 283 51 m 268 1274 l 450 1060 l 418 1026 l 221 1176 l 24 1026 l -8 1060 l 174 1274 q 221 1297 193 1297 q 268 1274 249 1297 z "},"Ķ":{"ha":963,"x_min":28,"x_max":950,"o":"m 439 56 l 439 0 l 28 0 l 28 56 q 133 81 96 58 q 169 157 169 103 l 169 815 q 133 892 169 869 q 28 917 96 914 l 28 972 l 439 972 l 439 917 q 334 892 371 914 q 297 815 297 869 l 297 157 q 334 81 297 103 q 439 56 371 58 m 950 35 l 950 0 l 792 0 l 314 497 l 632 806 q 665 858 661 833 q 644 899 669 882 q 554 917 618 915 l 554 972 l 944 972 l 944 917 q 832 889 879 914 q 740 821 785 864 l 447 543 l 950 35 m 536 -231 q 523 -210 536 -215 q 493 -199 510 -204 q 463 -183 476 -194 q 450 -146 450 -172 q 475 -92 450 -111 q 532 -72 500 -72 q 600 -101 574 -72 q 626 -175 626 -131 q 603 -254 626 -218 q 538 -314 581 -290 q 431 -342 494 -337 l 417 -292 q 511 -269 486 -285 q 536 -231 536 -253 z "},"Ĺ":{"ha":844,"x_min":28,"x_max":817,"o":"m 297 815 l 297 167 q 333 85 297 111 q 461 58 369 58 q 617 89 561 58 q 703 172 674 119 q 753 286 732 224 l 817 286 l 768 0 l 28 0 l 28 56 q 133 81 96 58 q 169 157 169 103 l 169 815 q 133 892 169 869 q 28 917 96 914 l 28 972 l 439 972 l 439 917 q 334 892 371 914 q 297 815 297 869 m 335 1261 q 386 1290 361 1288 q 429 1281 411 1293 q 453 1247 447 1268 q 451 1204 460 1226 q 410 1165 442 1182 l 171 1042 l 146 1076 l 335 1261 z "},"Ľ":{"ha":844,"x_min":28,"x_max":817,"o":"m 297 815 l 297 167 q 333 85 297 111 q 461 58 369 58 q 617 89 561 58 q 703 172 674 119 q 753 286 732 224 l 817 286 l 768 0 l 28 0 l 28 56 q 133 81 96 58 q 169 157 169 103 l 169 815 q 133 892 169 869 q 28 917 96 914 l 28 972 l 439 972 l 439 917 q 334 892 371 914 q 297 815 297 869 m 575 899 q 598 954 581 936 q 637 974 615 972 q 675 963 658 975 q 697 926 692 950 q 686 871 701 903 l 575 639 l 538 649 l 575 899 z "},"Ļ":{"ha":844,"x_min":28,"x_max":817,"o":"m 297 815 l 297 167 q 333 85 297 111 q 461 58 369 58 q 617 89 561 58 q 703 172 674 119 q 753 286 732 224 l 817 286 l 768 0 l 28 0 l 28 56 q 133 81 96 58 q 169 157 169 103 l 169 815 q 133 892 169 869 q 28 917 96 914 l 28 972 l 439 972 l 439 917 q 334 892 371 914 q 297 815 297 869 m 450 -231 q 437 -210 450 -215 q 407 -199 424 -204 q 377 -183 390 -194 q 364 -146 364 -172 q 389 -92 364 -111 q 446 -72 414 -72 q 514 -101 488 -72 q 540 -175 540 -131 q 517 -254 540 -218 q 451 -314 494 -290 q 344 -342 408 -337 l 331 -292 q 425 -269 400 -285 q 450 -231 450 -253 z "},"Ŀ":{"ha":844,"x_min":28,"x_max":817,"o":"m 297 815 l 297 167 q 333 85 297 111 q 461 58 369 58 q 617 89 561 58 q 703 172 674 119 q 753 286 732 224 l 817 286 l 768 0 l 28 0 l 28 56 q 133 81 96 58 q 169 157 169 103 l 169 815 q 133 892 169 869 q 28 917 96 914 l 28 972 l 439 972 l 439 917 q 334 892 371 914 q 297 815 297 869 m 656 447 q 594 473 619 447 q 568 535 568 499 q 594 597 568 571 q 656 622 619 622 q 717 597 692 622 q 743 535 743 571 q 717 473 743 499 q 656 447 692 447 z "},"Ł":{"ha":844,"x_min":28,"x_max":817,"o":"m 514 540 l 297 439 l 297 167 q 333 85 297 111 q 461 58 369 58 q 617 89 561 58 q 703 172 674 119 q 753 286 732 224 l 817 286 l 768 0 l 28 0 l 28 56 q 133 81 96 58 q 169 157 169 103 l 169 385 l 53 331 l 53 407 l 169 461 l 169 815 q 133 892 169 869 q 28 917 96 914 l 28 972 l 439 972 l 439 917 q 334 892 371 914 q 297 815 297 869 l 297 515 l 514 617 l 514 540 z "},"Ń":{"ha":1028,"x_min":14,"x_max":1028,"o":"m 244 797 l 244 157 q 283 81 244 103 q 400 56 322 58 l 400 0 l 14 0 l 14 56 q 131 81 92 58 q 169 157 169 103 l 169 815 q 133 892 169 869 q 28 917 96 914 l 28 972 l 278 972 l 797 244 l 797 815 q 758 892 797 869 q 642 918 719 915 l 642 972 l 1028 972 l 1028 917 q 911 892 950 914 q 872 815 872 869 l 872 0 l 815 0 l 244 797 m 624 1261 q 675 1290 650 1288 q 718 1281 700 1293 q 742 1247 736 1268 q 740 1204 749 1226 q 699 1165 731 1182 l 460 1042 l 435 1076 l 624 1261 z "},"Ň":{"ha":1028,"x_min":14,"x_max":1028,"o":"m 244 797 l 244 157 q 283 81 244 103 q 400 56 322 58 l 400 0 l 14 0 l 14 56 q 131 81 92 58 q 169 157 169 103 l 169 815 q 133 892 169 869 q 28 917 96 914 l 28 972 l 278 972 l 797 244 l 797 815 q 758 892 797 869 q 642 918 719 915 l 642 972 l 1028 972 l 1028 917 q 911 892 950 914 q 872 815 872 869 l 872 0 l 815 0 l 244 797 m 568 1049 q 521 1026 549 1026 q 474 1049 493 1026 l 292 1263 l 324 1296 l 521 1146 l 718 1296 l 750 1263 l 568 1049 z "},"Ņ":{"ha":1028,"x_min":14,"x_max":1028,"o":"m 244 797 l 244 157 q 283 81 244 103 q 400 56 322 58 l 400 0 l 14 0 l 14 56 q 131 81 92 58 q 169 157 169 103 l 169 815 q 133 892 169 869 q 28 917 96 914 l 28 972 l 278 972 l 797 244 l 797 815 q 758 892 797 869 q 642 918 719 915 l 642 972 l 1028 972 l 1028 917 q 911 892 950 914 q 872 815 872 869 l 872 0 l 815 0 l 244 797 m 535 -231 q 522 -210 535 -215 q 492 -199 508 -204 q 462 -183 475 -194 q 449 -146 449 -172 q 474 -92 449 -111 q 531 -72 499 -72 q 599 -101 572 -72 q 625 -175 625 -131 q 602 -254 625 -218 q 536 -314 579 -290 q 429 -342 493 -337 l 415 -292 q 510 -269 485 -285 q 535 -231 535 -253 z "},"Ñ":{"ha":1028,"x_min":14,"x_max":1028,"o":"m 244 797 l 244 157 q 283 81 244 103 q 400 56 322 58 l 400 0 l 14 0 l 14 56 q 131 81 92 58 q 169 157 169 103 l 169 815 q 133 892 169 869 q 28 917 96 914 l 28 972 l 278 972 l 797 244 l 797 815 q 758 892 797 869 q 642 918 719 915 l 642 972 l 1028 972 l 1028 917 q 911 892 950 914 q 872 815 872 869 l 872 0 l 815 0 l 244 797 m 439 1258 q 491 1244 467 1258 q 539 1212 515 1231 q 584 1179 563 1193 q 626 1165 606 1165 q 683 1191 657 1165 q 732 1261 710 1217 l 781 1236 q 696 1103 740 1139 q 606 1067 651 1067 q 553 1081 578 1067 q 505 1113 528 1094 q 460 1146 482 1132 q 417 1160 438 1160 q 361 1134 388 1160 q 311 1064 335 1108 l 261 1089 q 347 1222 301 1186 q 439 1258 393 1258 z "},"Ŋ":{"ha":1028,"x_min":14,"x_max":1028,"o":"m 796 28 l 244 797 l 244 157 q 283 81 244 103 q 400 56 322 58 l 400 0 l 14 0 l 14 56 q 131 81 92 58 q 169 157 169 103 l 169 815 q 133 892 169 869 q 28 917 96 914 l 28 972 l 278 972 l 797 244 l 797 815 q 758 892 797 869 q 642 918 719 915 l 642 972 l 1028 972 l 1028 917 q 911 892 950 914 q 872 815 872 869 l 872 -18 q 815 -198 872 -121 q 653 -333 758 -275 l 621 -297 q 718 -204 679 -250 q 776 -103 757 -158 q 796 28 796 -47 z "},"Ó":{"ha":1011,"x_min":53,"x_max":958,"o":"m 958 506 q 921 290 958 386 q 818 126 883 194 q 671 22 753 58 q 501 -14 589 -14 q 324 24 406 -14 q 182 129 243 63 q 87 283 121 196 q 53 467 53 369 q 90 682 53 586 q 193 846 128 778 q 340 950 258 914 q 510 986 422 986 q 687 948 606 986 q 829 843 768 910 q 924 690 890 776 q 958 506 958 603 m 810 468 q 790 626 810 547 q 729 768 769 704 q 628 870 689 832 q 486 908 568 908 q 332 857 396 908 q 235 715 268 806 q 201 504 201 624 q 221 347 201 425 q 281 204 240 268 q 382 102 321 140 q 525 64 443 64 q 679 115 615 64 q 776 258 743 167 q 810 468 810 350 m 608 1261 q 660 1290 635 1288 q 703 1281 685 1293 q 727 1247 721 1268 q 724 1204 733 1226 q 683 1165 715 1182 l 444 1042 l 419 1076 l 608 1261 z "},"Ŏ":{"ha":1011,"x_min":53,"x_max":958,"o":"m 958 506 q 921 290 958 386 q 818 126 883 194 q 671 22 753 58 q 501 -14 589 -14 q 324 24 406 -14 q 182 129 243 63 q 87 283 121 196 q 53 467 53 369 q 90 682 53 586 q 193 846 128 778 q 340 950 258 914 q 510 986 422 986 q 687 948 606 986 q 829 843 768 910 q 924 690 890 776 q 958 506 958 603 m 810 468 q 790 626 810 547 q 729 768 769 704 q 628 870 689 832 q 486 908 568 908 q 332 857 396 908 q 235 715 268 806 q 201 504 201 624 q 221 347 201 425 q 281 204 240 268 q 382 102 321 140 q 525 64 443 64 q 679 115 615 64 q 776 258 743 167 q 810 468 810 350 m 506 1136 q 577 1153 543 1136 q 637 1204 611 1169 q 674 1293 663 1239 l 732 1279 q 653 1099 718 1157 q 506 1040 589 1040 q 358 1099 422 1040 q 279 1279 294 1157 l 338 1293 q 375 1204 350 1239 q 434 1153 400 1169 q 506 1136 468 1136 z "},"Ô":{"ha":1011,"x_min":53,"x_max":958,"o":"m 958 506 q 921 290 958 386 q 818 126 883 194 q 671 22 753 58 q 501 -14 589 -14 q 324 24 406 -14 q 182 129 243 63 q 87 283 121 196 q 53 467 53 369 q 90 682 53 586 q 193 846 128 778 q 340 950 258 914 q 510 986 422 986 q 687 948 606 986 q 829 843 768 910 q 924 690 890 776 q 958 506 958 603 m 810 468 q 790 626 810 547 q 729 768 769 704 q 628 870 689 832 q 486 908 568 908 q 332 857 396 908 q 235 715 268 806 q 201 504 201 624 q 221 347 201 425 q 281 204 240 268 q 382 102 321 140 q 525 64 443 64 q 679 115 615 64 q 776 258 743 167 q 810 468 810 350 m 553 1274 l 735 1060 l 703 1026 l 506 1176 l 308 1026 l 276 1060 l 458 1274 q 506 1297 478 1297 q 553 1274 533 1297 z "},"Ö":{"ha":1011,"x_min":53,"x_max":958,"o":"m 958 506 q 921 290 958 386 q 818 126 883 194 q 671 22 753 58 q 501 -14 589 -14 q 324 24 406 -14 q 182 129 243 63 q 87 283 121 196 q 53 467 53 369 q 90 682 53 586 q 193 846 128 778 q 340 950 258 914 q 510 986 422 986 q 687 948 606 986 q 829 843 768 910 q 924 690 890 776 q 958 506 958 603 m 810 468 q 790 626 810 547 q 729 768 769 704 q 628 870 689 832 q 486 908 568 908 q 332 857 396 908 q 235 715 268 806 q 201 504 201 624 q 221 347 201 425 q 281 204 240 268 q 382 102 321 140 q 525 64 443 64 q 679 115 615 64 q 776 258 743 167 q 810 468 810 350 m 382 1078 q 323 1101 347 1078 q 299 1161 299 1125 q 323 1219 299 1194 q 382 1243 347 1243 q 440 1219 415 1243 q 465 1161 465 1194 q 440 1101 465 1125 q 382 1078 415 1078 m 631 1078 q 572 1101 597 1078 q 547 1161 547 1125 q 572 1219 547 1194 q 631 1243 597 1243 q 690 1219 665 1243 q 714 1161 714 1194 q 690 1101 714 1125 q 631 1078 665 1078 z "},"Ò":{"ha":1011,"x_min":53,"x_max":958,"o":"m 958 506 q 921 290 958 386 q 818 126 883 194 q 671 22 753 58 q 501 -14 589 -14 q 324 24 406 -14 q 182 129 243 63 q 87 283 121 196 q 53 467 53 369 q 90 682 53 586 q 193 846 128 778 q 340 950 258 914 q 510 986 422 986 q 687 948 606 986 q 829 843 768 910 q 924 690 890 776 q 958 506 958 603 m 810 468 q 790 626 810 547 q 729 768 769 704 q 628 870 689 832 q 486 908 568 908 q 332 857 396 908 q 235 715 268 806 q 201 504 201 624 q 221 347 201 425 q 281 204 240 268 q 382 102 321 140 q 525 64 443 64 q 679 115 615 64 q 776 258 743 167 q 810 468 810 350 m 403 1261 l 592 1076 l 567 1042 l 328 1165 q 288 1204 297 1182 q 284 1247 278 1226 q 308 1281 290 1268 q 351 1290 326 1293 q 403 1261 376 1288 z "},"Ő":{"ha":1011,"x_min":53,"x_max":958,"o":"m 958 506 q 921 290 958 386 q 818 126 883 194 q 671 22 753 58 q 501 -14 589 -14 q 324 24 406 -14 q 182 129 243 63 q 87 283 121 196 q 53 467 53 369 q 90 682 53 586 q 193 846 128 778 q 340 950 258 914 q 510 986 422 986 q 687 948 606 986 q 829 843 768 910 q 924 690 890 776 q 958 506 958 603 m 810 468 q 790 626 810 547 q 729 768 769 704 q 628 870 689 832 q 486 908 568 908 q 332 857 396 908 q 235 715 268 806 q 201 504 201 624 q 221 347 201 425 q 281 204 240 268 q 382 102 321 140 q 525 64 443 64 q 679 115 615 64 q 776 258 743 167 q 810 468 810 350 m 732 1254 q 779 1288 756 1282 q 822 1282 803 1293 q 848 1251 840 1271 q 848 1208 856 1231 q 810 1165 840 1185 l 613 1042 l 588 1076 l 732 1254 m 454 1254 q 501 1288 478 1282 q 544 1282 525 1293 q 570 1251 563 1271 q 570 1208 578 1231 q 532 1165 563 1185 l 335 1042 l 310 1076 l 454 1254 z "},"Ō":{"ha":1011,"x_min":53,"x_max":958,"o":"m 958 506 q 921 290 958 386 q 818 126 883 194 q 671 22 753 58 q 501 -14 589 -14 q 324 24 406 -14 q 182 129 243 63 q 87 283 121 196 q 53 467 53 369 q 90 682 53 586 q 193 846 128 778 q 340 950 258 914 q 510 986 422 986 q 687 948 606 986 q 829 843 768 910 q 924 690 890 776 q 958 506 958 603 m 810 468 q 790 626 810 547 q 729 768 769 704 q 628 870 689 832 q 486 908 568 908 q 332 857 396 908 q 235 715 268 806 q 201 504 201 624 q 221 347 201 425 q 281 204 240 268 q 382 102 321 140 q 525 64 443 64 q 679 115 615 64 q 776 258 743 167 q 810 468 810 350 m 288 1106 l 288 1192 l 724 1192 l 724 1106 l 288 1106 z "},"Ø":{"ha":1011,"x_min":53,"x_max":958,"o":"m 958 506 q 921 290 958 386 q 818 126 883 194 q 671 22 753 58 q 501 -14 589 -14 q 352 14 422 -14 q 225 89 282 42 l 119 -42 l 61 4 l 172 140 q 85 290 117 206 q 53 467 53 374 q 90 682 53 586 q 193 846 128 778 q 340 950 258 914 q 510 986 422 986 q 660 959 589 986 q 786 883 731 932 l 892 1014 l 950 968 l 839 832 q 927 683 896 767 q 958 506 958 599 m 199 504 q 214 365 199 435 q 260 238 229 296 l 708 800 q 614 878 669 849 q 486 908 558 908 q 331 857 396 908 q 233 715 267 806 q 199 504 199 624 m 813 468 q 797 606 813 538 q 751 735 782 675 l 301 172 q 397 94 342 124 q 525 64 453 64 q 681 115 617 64 q 778 258 744 167 q 813 468 813 350 z "},"Ǿ":{"ha":1011,"x_min":53,"x_max":958,"o":"m 958 506 q 921 290 958 386 q 818 126 883 194 q 671 22 753 58 q 501 -14 589 -14 q 352 14 422 -14 q 225 89 282 42 l 119 -42 l 61 4 l 172 140 q 85 290 117 206 q 53 467 53 374 q 90 682 53 586 q 193 846 128 778 q 340 950 258 914 q 510 986 422 986 q 660 959 589 986 q 786 883 731 932 l 892 1014 l 950 968 l 839 832 q 927 683 896 767 q 958 506 958 599 m 199 504 q 214 365 199 435 q 260 238 229 296 l 708 800 q 614 878 669 849 q 486 908 558 908 q 331 857 396 908 q 233 715 267 806 q 199 504 199 624 m 813 468 q 797 606 813 538 q 751 735 782 675 l 301 172 q 397 94 342 124 q 525 64 453 64 q 681 115 617 64 q 778 258 744 167 q 813 468 813 350 m 608 1261 q 660 1290 635 1288 q 703 1281 685 1293 q 727 1247 721 1268 q 724 1204 733 1226 q 683 1165 715 1182 l 444 1042 l 419 1076 l 608 1261 z "},"Õ":{"ha":1011,"x_min":53,"x_max":958,"o":"m 958 506 q 921 290 958 386 q 818 126 883 194 q 671 22 753 58 q 501 -14 589 -14 q 324 24 406 -14 q 182 129 243 63 q 87 283 121 196 q 53 467 53 369 q 90 682 53 586 q 193 846 128 778 q 340 950 258 914 q 510 986 422 986 q 687 948 606 986 q 829 843 768 910 q 924 690 890 776 q 958 506 958 603 m 810 468 q 790 626 810 547 q 729 768 769 704 q 628 870 689 832 q 486 908 568 908 q 332 857 396 908 q 235 715 268 806 q 201 504 201 624 q 221 347 201 425 q 281 204 240 268 q 382 102 321 140 q 525 64 443 64 q 679 115 615 64 q 776 258 743 167 q 810 468 810 350 m 424 1258 q 476 1244 451 1258 q 524 1212 500 1231 q 569 1179 547 1193 q 611 1165 590 1165 q 668 1191 642 1165 q 717 1261 694 1217 l 765 1236 q 681 1103 725 1139 q 590 1067 636 1067 q 538 1081 563 1067 q 490 1113 513 1094 q 444 1146 467 1132 q 401 1160 422 1160 q 346 1134 372 1160 q 296 1064 319 1108 l 246 1089 q 332 1222 286 1186 q 424 1258 378 1258 z "},"Œ":{"ha":1397,"x_min":28,"x_max":1369,"o":"m 28 453 q 70 669 28 574 q 188 833 113 765 q 360 936 263 900 q 565 972 457 972 l 1300 972 l 1300 719 l 1244 719 q 1210 824 1233 782 q 1147 888 1188 867 q 1038 908 1106 908 l 822 908 l 822 533 l 1004 533 q 1086 568 1058 533 q 1115 665 1114 603 l 1169 665 l 1169 335 l 1115 335 q 1086 432 1114 397 q 1004 467 1058 467 l 822 467 l 822 167 q 858 85 822 111 q 986 58 894 58 q 1127 76 1072 58 q 1216 124 1182 93 q 1270 197 1250 156 q 1306 286 1290 239 l 1369 286 l 1321 0 l 617 0 q 358 36 468 0 q 174 135 247 72 q 64 281 100 199 q 28 453 28 363 m 643 64 l 694 64 l 694 799 q 661 884 694 860 q 561 908 628 908 q 367 860 454 908 q 228 715 279 811 q 178 478 178 619 q 228 270 178 364 q 382 120 279 176 q 643 64 485 64 z "},"Ŕ":{"ha":969,"x_min":53,"x_max":957,"o":"m 322 157 q 359 81 322 103 q 464 56 396 58 l 464 0 l 53 0 l 53 56 q 158 81 121 58 q 194 157 194 103 l 194 815 q 158 892 194 869 q 53 917 121 914 l 53 972 l 435 972 q 650 940 565 972 q 776 851 735 907 q 817 725 817 796 q 790 619 817 664 q 722 542 764 574 q 635 493 681 511 q 553 467 590 475 l 957 35 l 957 0 l 801 0 l 404 450 l 322 450 l 322 157 m 407 908 l 322 908 l 322 508 l 413 508 q 606 560 536 508 q 675 714 675 613 q 606 856 675 803 q 407 908 538 908 m 594 1261 q 646 1290 621 1288 q 689 1281 671 1293 q 713 1247 707 1268 q 710 1204 719 1226 q 669 1165 701 1182 l 431 1042 l 406 1076 l 594 1261 z "},"Ř":{"ha":969,"x_min":53,"x_max":957,"o":"m 322 157 q 359 81 322 103 q 464 56 396 58 l 464 0 l 53 0 l 53 56 q 158 81 121 58 q 194 157 194 103 l 194 815 q 158 892 194 869 q 53 917 121 914 l 53 972 l 435 972 q 650 940 565 972 q 776 851 735 907 q 817 725 817 796 q 790 619 817 664 q 722 542 764 574 q 635 493 681 511 q 553 467 590 475 l 957 35 l 957 0 l 801 0 l 404 450 l 322 450 l 322 157 m 407 908 l 322 908 l 322 508 l 413 508 q 606 560 536 508 q 675 714 675 613 q 606 856 675 803 q 407 908 538 908 m 539 1049 q 492 1026 519 1026 q 444 1049 464 1026 l 263 1263 l 294 1296 l 492 1146 l 689 1296 l 721 1263 l 539 1049 z "},"Ŗ":{"ha":969,"x_min":53,"x_max":957,"o":"m 322 157 q 359 81 322 103 q 464 56 396 58 l 464 0 l 53 0 l 53 56 q 158 81 121 58 q 194 157 194 103 l 194 815 q 158 892 194 869 q 53 917 121 914 l 53 972 l 435 972 q 650 940 565 972 q 776 851 735 907 q 817 725 817 796 q 790 619 817 664 q 722 542 764 574 q 635 493 681 511 q 553 467 590 475 l 957 35 l 957 0 l 801 0 l 404 450 l 322 450 l 322 157 m 407 908 l 322 908 l 322 508 l 413 508 q 606 560 536 508 q 675 714 675 613 q 606 856 675 803 q 407 908 538 908 m 528 -231 q 515 -210 528 -215 q 485 -199 501 -204 q 455 -183 468 -194 q 442 -146 442 -172 q 467 -92 442 -111 q 524 -72 492 -72 q 592 -101 565 -72 q 618 -175 618 -131 q 595 -254 618 -218 q 529 -314 572 -290 q 422 -342 486 -337 l 408 -292 q 503 -269 478 -285 q 528 -231 528 -253 z "},"Ś":{"ha":729,"x_min":46,"x_max":676,"o":"m 56 88 l 46 308 l 104 308 q 197 126 132 194 q 358 58 263 58 q 500 106 447 58 q 553 238 553 153 q 527 328 553 292 q 458 389 501 364 q 364 434 415 414 q 261 476 313 454 q 167 528 210 497 q 98 604 124 558 q 72 717 72 650 q 108 851 72 790 q 210 949 143 913 q 367 986 276 986 q 514 960 449 986 q 633 896 579 935 l 633 697 l 578 697 q 535 815 564 767 q 463 890 507 864 q 356 917 418 917 q 232 872 278 917 q 186 760 186 826 q 213 675 186 710 q 283 615 239 640 q 379 569 326 590 q 484 525 432 549 q 580 470 536 501 q 650 394 624 439 q 676 285 676 350 q 631 128 676 196 q 512 24 586 61 q 347 -14 438 -14 q 229 1 285 -14 q 129 39 174 15 q 56 88 85 63 m 478 1261 q 529 1290 504 1288 q 572 1281 554 1293 q 597 1247 590 1268 q 594 1204 603 1226 q 553 1165 585 1182 l 314 1042 l 289 1076 l 478 1261 z "},"Š":{"ha":729,"x_min":46,"x_max":676,"o":"m 56 88 l 46 308 l 104 308 q 197 126 132 194 q 358 58 263 58 q 500 106 447 58 q 553 238 553 153 q 527 328 553 292 q 458 389 501 364 q 364 434 415 414 q 261 476 313 454 q 167 528 210 497 q 98 604 124 558 q 72 717 72 650 q 108 851 72 790 q 210 949 143 913 q 367 986 276 986 q 514 960 449 986 q 633 896 579 935 l 633 697 l 578 697 q 535 815 564 767 q 463 890 507 864 q 356 917 418 917 q 232 872 278 917 q 186 760 186 826 q 213 675 186 710 q 283 615 239 640 q 379 569 326 590 q 484 525 432 549 q 580 470 536 501 q 650 394 624 439 q 676 285 676 350 q 631 128 676 196 q 512 24 586 61 q 347 -14 438 -14 q 229 1 285 -14 q 129 39 174 15 q 56 88 85 63 m 422 1049 q 375 1026 403 1026 q 328 1049 347 1026 l 146 1263 l 178 1296 l 375 1146 l 572 1296 l 604 1263 l 422 1049 z "},"Ş":{"ha":729,"x_min":46,"x_max":676,"o":"m 56 88 l 46 308 l 104 308 q 197 126 132 194 q 358 58 263 58 q 500 106 447 58 q 553 238 553 153 q 527 328 553 292 q 458 389 501 364 q 364 434 415 414 q 261 476 313 454 q 167 528 210 497 q 98 604 124 558 q 72 717 72 650 q 108 851 72 790 q 210 949 143 913 q 367 986 276 986 q 514 960 449 986 q 633 896 579 935 l 633 697 l 578 697 q 503 858 557 800 q 356 917 449 917 q 232 872 278 917 q 186 760 186 826 q 213 675 186 710 q 283 615 239 640 q 379 569 326 590 q 484 525 432 549 q 580 470 536 501 q 650 394 624 439 q 676 285 676 350 q 631 128 676 196 q 512 24 586 61 q 347 -14 438 -14 l 344 -14 l 321 -79 q 431 -115 386 -86 q 475 -192 475 -143 q 436 -281 475 -246 q 333 -327 397 -315 q 192 -325 268 -339 l 200 -271 q 330 -272 282 -289 q 378 -219 378 -254 q 342 -167 378 -182 q 243 -146 306 -151 l 296 -11 q 156 26 218 -3 q 56 88 93 54 z "},"Ŝ":{"ha":729,"x_min":46,"x_max":676,"o":"m 56 88 l 46 308 l 104 308 q 197 126 132 194 q 358 58 263 58 q 500 106 447 58 q 553 238 553 153 q 527 328 553 292 q 458 389 501 364 q 364 434 415 414 q 261 476 313 454 q 167 528 210 497 q 98 604 124 558 q 72 717 72 650 q 108 851 72 790 q 210 949 143 913 q 367 986 276 986 q 514 960 449 986 q 633 896 579 935 l 633 697 l 578 697 q 535 815 564 767 q 463 890 507 864 q 356 917 418 917 q 232 872 278 917 q 186 760 186 826 q 213 675 186 710 q 283 615 239 640 q 379 569 326 590 q 484 525 432 549 q 580 470 536 501 q 650 394 624 439 q 676 285 676 350 q 631 128 676 196 q 512 24 586 61 q 347 -14 438 -14 q 229 1 285 -14 q 129 39 174 15 q 56 88 85 63 m 422 1274 l 604 1060 l 572 1026 l 375 1176 l 178 1026 l 146 1060 l 328 1274 q 375 1297 347 1297 q 422 1274 403 1297 z "},"Ș":{"ha":729,"x_min":46,"x_max":676,"o":"m 56 88 l 46 308 l 104 308 q 197 126 132 194 q 358 58 263 58 q 500 106 447 58 q 553 238 553 153 q 527 328 553 292 q 458 389 501 364 q 364 434 415 414 q 261 476 313 454 q 167 528 210 497 q 98 604 124 558 q 72 717 72 650 q 108 851 72 790 q 210 949 143 913 q 367 986 276 986 q 514 960 449 986 q 633 896 579 935 l 633 697 l 578 697 q 535 815 564 767 q 463 890 507 864 q 356 917 418 917 q 232 872 278 917 q 186 760 186 826 q 213 675 186 710 q 283 615 239 640 q 379 569 326 590 q 484 525 432 549 q 580 470 536 501 q 650 394 624 439 q 676 285 676 350 q 631 128 676 196 q 512 24 586 61 q 347 -14 438 -14 q 229 1 285 -14 q 129 39 174 15 q 56 88 85 63 m 347 -231 q 334 -210 347 -215 q 304 -199 321 -204 q 274 -183 288 -194 q 261 -146 261 -172 q 286 -92 261 -111 q 343 -72 311 -72 q 411 -101 385 -72 q 438 -175 438 -131 q 415 -254 438 -218 q 349 -314 392 -290 q 242 -342 306 -337 l 228 -292 q 322 -269 297 -285 q 347 -231 347 -253 z "},"ẞ":{"ha":1029,"x_min":14,"x_max":993,"o":"m 685 58 q 781 82 738 58 q 849 151 824 106 q 874 263 874 197 q 833 400 874 344 q 721 486 792 456 q 557 522 650 517 l 557 567 l 776 835 q 674 894 733 871 q 549 917 615 917 q 399 870 458 917 q 312 748 340 824 q 283 585 283 672 l 283 0 l 14 0 l 14 56 q 119 81 82 58 q 156 157 156 103 l 156 593 q 208 801 156 713 q 353 938 260 889 q 571 986 447 986 q 744 969 663 986 q 903 919 825 951 l 903 885 l 679 621 q 838 562 767 604 q 951 456 908 519 q 993 306 993 392 q 970 189 993 246 q 905 86 947 132 q 804 13 863 40 q 674 -14 746 -14 q 524 10 596 -14 q 408 72 453 33 l 399 293 l 457 293 q 543 118 481 178 q 685 58 606 58 z "},"Ŧ":{"ha":917,"x_min":28,"x_max":889,"o":"m 675 467 l 522 467 l 522 157 q 562 83 522 103 q 692 56 601 63 l 692 0 l 225 0 l 225 56 q 355 83 315 63 q 394 157 394 103 l 394 467 l 242 467 l 242 536 l 394 536 l 394 911 l 290 911 q 145 860 189 911 q 83 706 101 810 l 28 706 l 28 972 l 889 972 l 889 706 l 833 706 q 772 860 815 810 q 626 911 729 911 l 522 911 l 522 536 l 675 536 l 675 467 z "},"Ť":{"ha":917,"x_min":28,"x_max":889,"o":"m 889 972 l 889 706 l 833 706 q 772 860 815 810 q 626 911 729 911 l 522 911 l 522 157 q 562 83 522 103 q 692 56 601 63 l 692 0 l 225 0 l 225 56 q 355 83 315 63 q 394 157 394 103 l 394 911 l 290 911 q 145 860 189 911 q 83 706 101 810 l 28 706 l 28 972 l 889 972 m 506 1049 q 458 1026 486 1026 q 411 1049 431 1026 l 229 1263 l 261 1296 l 458 1146 l 656 1296 l 688 1263 l 506 1049 z "},"Ţ":{"ha":917,"x_min":28,"x_max":889,"o":"m 317 -325 l 325 -271 q 455 -272 407 -289 q 503 -219 503 -254 q 467 -167 503 -182 q 368 -146 431 -151 l 425 0 l 225 0 l 225 56 q 355 83 315 63 q 394 157 394 103 l 394 911 l 290 911 q 145 860 189 911 q 83 706 101 810 l 28 706 l 28 972 l 889 972 l 889 706 l 833 706 q 772 860 815 810 q 626 911 729 911 l 522 911 l 522 157 q 562 83 522 103 q 692 56 601 63 l 692 0 l 474 0 l 446 -79 q 556 -115 511 -86 q 600 -192 600 -143 q 561 -281 600 -246 q 458 -327 522 -315 q 317 -325 393 -339 z "},"Ț":{"ha":917,"x_min":28,"x_max":889,"o":"m 889 972 l 889 706 l 833 706 q 772 860 815 810 q 626 911 729 911 l 522 911 l 522 157 q 562 83 522 103 q 692 56 601 63 l 692 0 l 225 0 l 225 56 q 355 83 315 63 q 394 157 394 103 l 394 911 l 290 911 q 145 860 189 911 q 83 706 101 810 l 28 706 l 28 972 l 889 972 m 472 -231 q 459 -210 472 -215 q 429 -199 446 -204 q 399 -183 413 -194 q 386 -146 386 -172 q 411 -92 386 -111 q 468 -72 436 -72 q 536 -101 510 -72 q 563 -175 563 -131 q 540 -254 563 -218 q 474 -314 517 -290 q 367 -342 431 -337 l 353 -292 q 447 -269 422 -285 q 472 -231 472 -253 z "},"Þ":{"ha":817,"x_min":28,"x_max":789,"o":"m 28 56 q 133 81 96 58 q 169 157 169 103 l 169 815 q 133 892 169 869 q 28 917 96 914 l 28 972 l 439 972 l 439 917 q 334 892 371 914 q 297 815 297 869 l 297 778 l 374 778 q 681 706 572 778 q 789 511 789 635 q 743 365 789 428 q 616 266 697 301 q 425 231 535 231 l 381 231 l 381 290 q 526 317 468 290 q 615 391 585 343 q 644 503 644 439 q 567 658 644 603 q 349 714 490 714 l 297 714 l 297 157 q 337 83 297 103 q 467 56 376 63 l 467 0 l 28 0 l 28 56 z "},"Ú":{"ha":1042,"x_min":17,"x_max":1039,"o":"m 808 815 q 769 892 808 869 q 653 918 731 915 l 653 972 l 1039 972 l 1039 917 q 922 892 961 914 q 883 815 883 869 l 883 357 q 835 160 883 243 q 705 33 786 78 q 524 -12 624 -12 q 326 32 407 -12 q 201 159 244 76 q 158 356 158 242 l 158 815 q 122 892 158 869 q 17 917 85 914 l 17 972 l 428 972 l 428 917 q 323 892 360 914 q 286 815 286 869 l 286 383 q 350 160 286 239 q 535 81 414 81 q 738 160 667 81 q 808 383 808 239 l 808 815 m 644 1261 q 696 1290 671 1288 q 739 1281 721 1293 q 763 1247 757 1268 q 760 1204 769 1226 q 719 1165 751 1182 l 481 1042 l 456 1076 l 644 1261 z "},"Ŭ":{"ha":1042,"x_min":17,"x_max":1039,"o":"m 808 815 q 769 892 808 869 q 653 918 731 915 l 653 972 l 1039 972 l 1039 917 q 922 892 961 914 q 883 815 883 869 l 883 357 q 835 160 883 243 q 705 33 786 78 q 524 -12 624 -12 q 326 32 407 -12 q 201 159 244 76 q 158 356 158 242 l 158 815 q 122 892 158 869 q 17 917 85 914 l 17 972 l 428 972 l 428 917 q 323 892 360 914 q 286 815 286 869 l 286 383 q 350 160 286 239 q 535 81 414 81 q 738 160 667 81 q 808 383 808 239 l 808 815 m 542 1136 q 613 1153 579 1136 q 673 1204 647 1169 q 710 1293 699 1239 l 768 1279 q 690 1099 754 1157 q 542 1040 625 1040 q 394 1099 458 1040 q 315 1279 331 1157 l 374 1293 q 411 1204 386 1239 q 470 1153 436 1169 q 542 1136 504 1136 z "},"Û":{"ha":1042,"x_min":17,"x_max":1039,"o":"m 808 815 q 769 892 808 869 q 653 918 731 915 l 653 972 l 1039 972 l 1039 917 q 922 892 961 914 q 883 815 883 869 l 883 357 q 835 160 883 243 q 705 33 786 78 q 524 -12 624 -12 q 326 32 407 -12 q 201 159 244 76 q 158 356 158 242 l 158 815 q 122 892 158 869 q 17 917 85 914 l 17 972 l 428 972 l 428 917 q 323 892 360 914 q 286 815 286 869 l 286 383 q 350 160 286 239 q 535 81 414 81 q 738 160 667 81 q 808 383 808 239 l 808 815 m 589 1274 l 771 1060 l 739 1026 l 542 1176 l 344 1026 l 313 1060 l 494 1274 q 542 1297 514 1297 q 589 1274 569 1297 z "},"Ü":{"ha":1042,"x_min":17,"x_max":1039,"o":"m 808 815 q 769 892 808 869 q 653 918 731 915 l 653 972 l 1039 972 l 1039 917 q 922 892 961 914 q 883 815 883 869 l 883 357 q 835 160 883 243 q 705 33 786 78 q 524 -12 624 -12 q 326 32 407 -12 q 201 159 244 76 q 158 356 158 242 l 158 815 q 122 892 158 869 q 17 917 85 914 l 17 972 l 428 972 l 428 917 q 323 892 360 914 q 286 815 286 869 l 286 383 q 350 160 286 239 q 535 81 414 81 q 738 160 667 81 q 808 383 808 239 l 808 815 m 418 1078 q 359 1101 383 1078 q 335 1161 335 1125 q 359 1219 335 1194 q 418 1243 383 1243 q 476 1219 451 1243 q 501 1161 501 1194 q 476 1101 501 1125 q 418 1078 451 1078 m 667 1078 q 608 1101 633 1078 q 583 1161 583 1125 q 608 1219 583 1194 q 667 1243 633 1243 q 726 1219 701 1243 q 750 1161 750 1194 q 726 1101 750 1125 q 667 1078 701 1078 z "},"Ù":{"ha":1042,"x_min":17,"x_max":1039,"o":"m 808 815 q 769 892 808 869 q 653 918 731 915 l 653 972 l 1039 972 l 1039 917 q 922 892 961 914 q 883 815 883 869 l 883 357 q 835 160 883 243 q 705 33 786 78 q 524 -12 624 -12 q 326 32 407 -12 q 201 159 244 76 q 158 356 158 242 l 158 815 q 122 892 158 869 q 17 917 85 914 l 17 972 l 428 972 l 428 917 q 323 892 360 914 q 286 815 286 869 l 286 383 q 350 160 286 239 q 535 81 414 81 q 738 160 667 81 q 808 383 808 239 l 808 815 m 439 1261 l 628 1076 l 603 1042 l 364 1165 q 324 1204 333 1182 q 320 1247 314 1226 q 344 1281 326 1268 q 388 1290 363 1293 q 439 1261 413 1288 z "},"Ű":{"ha":1042,"x_min":17,"x_max":1039,"o":"m 808 815 q 769 892 808 869 q 653 918 731 915 l 653 972 l 1039 972 l 1039 917 q 922 892 961 914 q 883 815 883 869 l 883 357 q 835 160 883 243 q 705 33 786 78 q 524 -12 624 -12 q 326 32 407 -12 q 201 159 244 76 q 158 356 158 242 l 158 815 q 122 892 158 869 q 17 917 85 914 l 17 972 l 428 972 l 428 917 q 323 892 360 914 q 286 815 286 869 l 286 383 q 350 160 286 239 q 535 81 414 81 q 738 160 667 81 q 808 383 808 239 l 808 815 m 768 1254 q 815 1288 792 1282 q 858 1282 839 1293 q 884 1251 876 1271 q 884 1208 892 1231 q 846 1165 876 1185 l 649 1042 l 624 1076 l 768 1254 m 490 1254 q 538 1288 514 1282 q 580 1282 561 1293 q 606 1251 599 1271 q 606 1208 614 1231 q 568 1165 599 1185 l 371 1042 l 346 1076 l 490 1254 z "},"Ū":{"ha":1042,"x_min":17,"x_max":1039,"o":"m 808 815 q 769 892 808 869 q 653 918 731 915 l 653 972 l 1039 972 l 1039 917 q 922 892 961 914 q 883 815 883 869 l 883 357 q 835 160 883 243 q 705 33 786 78 q 524 -12 624 -12 q 326 32 407 -12 q 201 159 244 76 q 158 356 158 242 l 158 815 q 122 892 158 869 q 17 917 85 914 l 17 972 l 428 972 l 428 917 q 323 892 360 914 q 286 815 286 869 l 286 383 q 350 160 286 239 q 535 81 414 81 q 738 160 667 81 q 808 383 808 239 l 808 815 m 324 1106 l 324 1192 l 760 1192 l 760 1106 l 324 1106 z "},"Ų":{"ha":1042,"x_min":17,"x_max":1039,"o":"m 678 19 q 588 -34 631 -1 q 517 -106 544 -67 q 489 -185 489 -144 q 506 -237 489 -218 q 558 -257 524 -257 q 624 -238 594 -257 q 689 -185 654 -219 l 717 -218 q 637 -297 686 -260 q 526 -333 588 -333 q 435 -301 472 -333 q 397 -211 397 -268 q 435 -101 397 -153 q 533 -12 474 -50 l 524 -12 q 326 32 407 -12 q 201 159 244 76 q 158 356 158 242 l 158 815 q 122 892 158 869 q 17 917 85 914 l 17 972 l 428 972 l 428 917 q 323 892 360 914 q 286 815 286 869 l 286 383 q 350 160 286 239 q 535 81 414 81 q 738 160 667 81 q 808 383 808 239 l 808 815 q 769 892 808 869 q 653 918 731 915 l 653 972 l 1039 972 l 1039 917 q 922 892 961 914 q 883 815 883 869 l 883 357 q 826 147 883 235 q 678 19 768 60 z "},"Ů":{"ha":1042,"x_min":17,"x_max":1039,"o":"m 808 815 q 769 892 808 869 q 653 918 731 915 l 653 972 l 1039 972 l 1039 917 q 922 892 961 914 q 883 815 883 869 l 883 357 q 835 160 883 243 q 705 33 786 78 q 524 -12 624 -12 q 326 32 407 -12 q 201 159 244 76 q 158 356 158 242 l 158 815 q 122 892 158 869 q 17 917 85 914 l 17 972 l 428 972 l 428 917 q 323 892 360 914 q 286 815 286 869 l 286 383 q 350 160 286 239 q 535 81 414 81 q 738 160 667 81 q 808 383 808 239 l 808 815 m 399 1156 q 418 1228 399 1196 q 470 1279 438 1260 q 542 1299 503 1299 q 613 1279 581 1299 q 665 1228 646 1260 q 685 1156 685 1196 q 665 1084 685 1117 q 613 1032 646 1051 q 542 1013 581 1013 q 470 1032 503 1013 q 418 1084 438 1051 q 399 1156 399 1117 m 624 1156 q 599 1216 624 1192 q 542 1240 575 1240 q 484 1216 508 1240 q 460 1156 460 1192 q 484 1095 460 1119 q 542 1071 508 1071 q 599 1095 575 1071 q 624 1156 624 1119 z "},"Ũ":{"ha":1042,"x_min":17,"x_max":1039,"o":"m 808 815 q 769 892 808 869 q 653 918 731 915 l 653 972 l 1039 972 l 1039 917 q 922 892 961 914 q 883 815 883 869 l 883 357 q 835 160 883 243 q 705 33 786 78 q 524 -12 624 -12 q 326 32 407 -12 q 201 159 244 76 q 158 356 158 242 l 158 815 q 122 892 158 869 q 17 917 85 914 l 17 972 l 428 972 l 428 917 q 323 892 360 914 q 286 815 286 869 l 286 383 q 350 160 286 239 q 535 81 414 81 q 738 160 667 81 q 808 383 808 239 l 808 815 m 460 1258 q 512 1244 488 1258 q 560 1212 536 1231 q 605 1179 583 1193 q 647 1165 626 1165 q 704 1191 678 1165 q 753 1261 731 1217 l 801 1236 q 717 1103 761 1139 q 626 1067 672 1067 q 574 1081 599 1067 q 526 1113 549 1094 q 481 1146 503 1132 q 438 1160 458 1160 q 382 1134 408 1160 q 332 1064 356 1108 l 282 1089 q 368 1222 322 1186 q 460 1258 414 1258 z "},"Ẃ":{"ha":1411,"x_min":14,"x_max":1397,"o":"m 501 -14 l 439 -14 l 154 807 q 98 888 136 863 q 14 917 60 914 l 14 972 l 421 972 l 421 917 q 297 884 326 911 q 289 792 267 857 l 499 175 l 678 701 l 646 807 q 590 888 629 863 q 506 917 551 914 l 506 972 l 904 972 l 904 917 q 782 884 810 911 q 772 792 754 857 l 950 174 l 1167 792 q 1160 883 1190 856 q 1035 917 1129 911 l 1035 972 l 1397 972 l 1397 917 q 1315 889 1351 914 q 1257 807 1278 864 l 958 -14 l 896 -14 l 713 589 l 501 -14 m 808 1261 q 860 1290 835 1288 q 903 1281 885 1293 q 927 1247 921 1268 q 924 1204 933 1226 q 883 1165 915 1182 l 644 1042 l 619 1076 l 808 1261 z "},"Ŵ":{"ha":1411,"x_min":14,"x_max":1397,"o":"m 501 -14 l 439 -14 l 154 807 q 98 888 136 863 q 14 917 60 914 l 14 972 l 421 972 l 421 917 q 297 884 326 911 q 289 792 267 857 l 499 175 l 678 701 l 646 807 q 590 888 629 863 q 506 917 551 914 l 506 972 l 904 972 l 904 917 q 782 884 810 911 q 772 792 754 857 l 950 174 l 1167 792 q 1160 883 1190 856 q 1035 917 1129 911 l 1035 972 l 1397 972 l 1397 917 q 1315 889 1351 914 q 1257 807 1278 864 l 958 -14 l 896 -14 l 713 589 l 501 -14 m 753 1274 l 935 1060 l 903 1026 l 706 1176 l 508 1026 l 476 1060 l 658 1274 q 706 1297 678 1297 q 753 1274 733 1297 z "},"Ẁ":{"ha":1411,"x_min":14,"x_max":1397,"o":"m 501 -14 l 439 -14 l 154 807 q 98 888 136 863 q 14 917 60 914 l 14 972 l 421 972 l 421 917 q 297 884 326 911 q 289 792 267 857 l 499 175 l 678 701 l 646 807 q 590 888 629 863 q 506 917 551 914 l 506 972 l 904 972 l 904 917 q 782 884 810 911 q 772 792 754 857 l 950 174 l 1167 792 q 1160 883 1190 856 q 1035 917 1129 911 l 1035 972 l 1397 972 l 1397 917 q 1315 889 1351 914 q 1257 807 1278 864 l 958 -14 l 896 -14 l 713 589 l 501 -14 m 603 1261 l 792 1076 l 767 1042 l 528 1165 q 488 1204 497 1182 q 484 1247 478 1226 q 508 1281 490 1268 q 551 1290 526 1293 q 603 1261 576 1288 z "},"Ẅ":{"ha":1411,"x_min":14,"x_max":1397,"o":"m 501 -14 l 439 -14 l 154 807 q 98 888 136 863 q 14 917 60 914 l 14 972 l 421 972 l 421 917 q 297 884 326 911 q 289 792 267 857 l 499 175 l 678 701 l 646 807 q 590 888 629 863 q 506 917 551 914 l 506 972 l 904 972 l 904 917 q 782 884 810 911 q 772 792 754 857 l 950 174 l 1167 792 q 1160 883 1190 856 q 1035 917 1129 911 l 1035 972 l 1397 972 l 1397 917 q 1315 889 1351 914 q 1257 807 1278 864 l 958 -14 l 896 -14 l 713 589 l 501 -14 m 582 1078 q 523 1101 547 1078 q 499 1161 499 1125 q 523 1219 499 1194 q 582 1243 547 1243 q 640 1219 615 1243 q 665 1161 665 1194 q 640 1101 665 1125 q 582 1078 615 1078 m 831 1078 q 772 1101 797 1078 q 747 1161 747 1125 q 772 1219 747 1194 q 831 1243 797 1243 q 890 1219 865 1243 q 914 1161 914 1194 q 890 1101 914 1125 q 831 1078 865 1078 z "},"Ý":{"ha":942,"x_min":14,"x_max":928,"o":"m 704 56 l 704 0 l 238 0 l 238 56 q 367 83 328 63 q 407 157 407 103 l 407 419 l 160 807 q 94 885 129 856 q 14 917 60 914 l 14 972 l 428 972 l 428 917 q 303 879 333 911 q 308 792 274 847 l 500 485 l 692 792 q 697 880 726 847 q 572 917 667 913 l 572 972 l 928 972 l 928 917 q 848 885 882 914 q 782 807 814 856 l 535 421 l 535 157 q 574 83 535 103 q 704 56 614 63 m 589 1261 q 640 1290 615 1288 q 683 1281 665 1293 q 708 1247 701 1268 q 705 1204 714 1226 q 664 1165 696 1182 l 425 1042 l 400 1076 l 589 1261 z "},"Ŷ":{"ha":942,"x_min":14,"x_max":928,"o":"m 704 56 l 704 0 l 238 0 l 238 56 q 367 83 328 63 q 407 157 407 103 l 407 419 l 160 807 q 94 885 129 856 q 14 917 60 914 l 14 972 l 428 972 l 428 917 q 303 879 333 911 q 308 792 274 847 l 500 485 l 692 792 q 697 880 726 847 q 572 917 667 913 l 572 972 l 928 972 l 928 917 q 848 885 882 914 q 782 807 814 856 l 535 421 l 535 157 q 574 83 535 103 q 704 56 614 63 m 533 1274 l 715 1060 l 683 1026 l 486 1176 l 289 1026 l 257 1060 l 439 1274 q 486 1297 458 1297 q 533 1274 514 1297 z "},"Ÿ":{"ha":942,"x_min":14,"x_max":928,"o":"m 704 56 l 704 0 l 238 0 l 238 56 q 367 83 328 63 q 407 157 407 103 l 407 419 l 160 807 q 94 885 129 856 q 14 917 60 914 l 14 972 l 428 972 l 428 917 q 303 879 333 911 q 308 792 274 847 l 500 485 l 692 792 q 697 880 726 847 q 572 917 667 913 l 572 972 l 928 972 l 928 917 q 848 885 882 914 q 782 807 814 856 l 535 421 l 535 157 q 574 83 535 103 q 704 56 614 63 m 363 1078 q 303 1101 328 1078 q 279 1161 279 1125 q 303 1219 279 1194 q 363 1243 328 1243 q 421 1219 396 1243 q 446 1161 446 1194 q 421 1101 446 1125 q 363 1078 396 1078 m 611 1078 q 553 1101 578 1078 q 528 1161 528 1125 q 553 1219 528 1194 q 611 1243 578 1243 q 670 1219 646 1243 q 694 1161 694 1194 q 670 1101 694 1125 q 611 1078 646 1078 z "},"Ỳ":{"ha":942,"x_min":14,"x_max":928,"o":"m 704 56 l 704 0 l 238 0 l 238 56 q 367 83 328 63 q 407 157 407 103 l 407 419 l 160 807 q 94 885 129 856 q 14 917 60 914 l 14 972 l 428 972 l 428 917 q 303 879 333 911 q 308 792 274 847 l 500 485 l 692 792 q 697 880 726 847 q 572 917 667 913 l 572 972 l 928 972 l 928 917 q 848 885 882 914 q 782 807 814 856 l 535 421 l 535 157 q 574 83 535 103 q 704 56 614 63 m 383 1261 l 572 1076 l 547 1042 l 308 1165 q 268 1204 278 1182 q 265 1247 258 1226 q 289 1281 271 1268 q 332 1290 307 1293 q 383 1261 357 1288 z "},"Ź":{"ha":828,"x_min":19,"x_max":801,"o":"m 328 908 q 219 887 260 908 q 156 820 178 865 q 121 706 133 775 l 65 706 l 65 972 l 775 972 l 775 936 l 185 64 l 486 64 q 614 93 567 64 q 689 173 661 122 q 738 286 717 224 l 801 286 l 753 0 l 19 0 l 19 42 l 604 908 l 328 908 m 528 1261 q 579 1290 554 1288 q 622 1281 604 1293 q 647 1247 640 1268 q 644 1204 653 1226 q 603 1165 635 1182 l 364 1042 l 339 1076 l 528 1261 z "},"Ž":{"ha":828,"x_min":19,"x_max":801,"o":"m 328 908 q 219 887 260 908 q 156 820 178 865 q 121 706 133 775 l 65 706 l 65 972 l 775 972 l 775 936 l 185 64 l 486 64 q 614 93 567 64 q 689 173 661 122 q 738 286 717 224 l 801 286 l 753 0 l 19 0 l 19 42 l 604 908 l 328 908 m 472 1049 q 425 1026 453 1026 q 378 1049 397 1026 l 196 1263 l 228 1296 l 425 1146 l 622 1296 l 654 1263 l 472 1049 z "},"Ż":{"ha":828,"x_min":19,"x_max":801,"o":"m 328 908 q 219 887 260 908 q 156 820 178 865 q 121 706 133 775 l 65 706 l 65 972 l 775 972 l 775 936 l 185 64 l 486 64 q 614 93 567 64 q 689 173 661 122 q 738 286 717 224 l 801 286 l 753 0 l 19 0 l 19 42 l 604 908 l 328 908 m 425 1078 q 363 1103 389 1078 q 338 1165 338 1129 q 363 1227 338 1201 q 425 1253 389 1253 q 487 1227 461 1253 q 513 1165 513 1201 q 487 1103 513 1129 q 425 1078 461 1078 z "},"a":{"ha":658,"x_min":51,"x_max":656,"o":"m 583 83 q 616 89 600 83 q 643 100 632 94 l 656 68 q 603 11 636 36 q 531 -14 571 -14 q 458 11 494 -14 q 408 83 421 36 q 364 44 392 67 q 300 3 336 21 q 219 -14 264 -14 q 99 28 147 -14 q 51 139 51 71 q 86 241 51 199 q 178 314 121 283 q 300 367 235 344 l 410 404 l 410 504 q 378 589 410 557 q 283 621 346 621 q 219 597 243 621 q 196 539 196 572 q 203 502 196 521 q 225 460 211 483 l 121 428 q 88 458 103 436 q 72 511 72 479 q 93 579 72 547 q 150 635 114 611 q 232 674 186 660 q 326 689 278 689 q 483 645 438 689 q 529 514 529 601 l 529 142 q 545 97 529 111 q 583 83 561 83 m 174 171 q 203 103 174 128 q 275 78 232 78 q 344 89 308 78 q 410 126 379 100 l 410 340 q 299 302 353 324 q 209 249 244 281 q 174 171 174 218 z "},"b":{"ha":744,"x_min":-4,"x_max":700,"o":"m 700 381 q 672 213 700 286 q 593 90 643 140 q 478 13 543 39 q 342 -14 414 -14 q 215 8 275 -14 q 101 68 154 29 l 101 907 l -4 968 l -4 992 l 199 1064 l 224 1064 l 224 576 q 324 656 264 622 q 446 690 383 690 q 579 651 522 690 q 668 541 636 611 q 700 381 700 471 m 224 533 l 224 214 q 270 94 224 135 q 381 53 317 53 q 484 88 439 53 q 555 185 529 124 q 581 322 581 246 q 527 520 581 449 q 374 592 474 592 q 292 576 335 592 q 224 533 249 561 z "},"c":{"ha":604,"x_min":44,"x_max":575,"o":"m 343 624 q 251 592 293 624 q 182 503 208 561 q 156 361 156 444 q 181 231 156 292 q 253 135 206 171 q 368 99 301 99 q 461 117 415 99 q 546 181 507 135 l 575 154 q 478 34 540 82 q 329 -14 415 -14 q 183 29 247 -14 q 81 149 118 72 q 44 325 44 225 q 69 467 44 401 q 139 583 94 533 q 242 661 183 633 q 369 689 301 689 q 467 672 421 689 q 541 622 513 654 q 569 546 569 590 q 551 495 569 515 q 503 475 533 475 q 461 490 476 475 q 439 533 446 504 q 408 601 428 579 q 343 624 388 624 z "},"d":{"ha":796,"x_min":44,"x_max":764,"o":"m 764 17 l 560 -14 l 531 -14 l 531 106 q 435 20 490 54 q 319 -14 381 -14 q 183 26 246 -14 q 83 139 121 67 q 44 306 44 211 q 71 464 44 393 q 144 585 97 535 q 251 662 190 635 q 381 689 313 689 q 465 676 429 689 q 531 644 500 664 l 531 907 l 425 968 l 425 992 l 628 1064 l 653 1064 l 653 146 q 665 96 653 113 q 713 75 678 79 l 764 68 l 764 17 m 531 149 l 531 447 q 482 575 531 532 q 365 618 433 618 q 261 587 307 618 q 189 499 215 556 q 163 365 163 442 q 226 165 163 239 q 390 90 289 90 q 467 106 429 90 q 531 149 504 121 z "},"e":{"ha":638,"x_min":44,"x_max":603,"o":"m 151 381 q 181 238 151 301 q 265 136 211 174 q 388 99 318 99 q 484 117 436 99 q 572 181 532 135 l 603 154 q 503 34 568 82 q 347 -14 438 -14 q 192 29 261 -14 q 84 149 124 72 q 44 325 44 225 q 84 510 44 428 q 191 640 124 592 q 342 689 258 689 q 457 663 408 689 q 536 592 506 636 q 581 497 567 549 q 596 397 596 446 l 151 397 l 151 381 m 319 624 q 222 581 267 624 q 160 460 176 539 l 461 460 q 445 539 461 501 q 398 600 429 576 q 319 624 367 624 z "},"f":{"ha":458,"x_min":42,"x_max":603,"o":"m 271 740 l 271 675 l 438 675 l 438 599 l 271 599 l 271 124 q 302 74 271 89 q 406 53 333 58 l 406 0 l 42 0 l 42 53 q 119 72 89 56 q 149 124 149 89 l 149 599 l 42 599 l 42 675 l 149 675 l 149 706 q 193 901 149 821 q 310 1022 238 981 q 465 1064 383 1064 q 565 1039 526 1064 q 603 972 603 1014 q 584 922 603 942 q 533 903 565 903 q 488 917 504 903 q 462 950 472 932 q 438 983 451 968 q 403 997 425 997 q 339 970 369 997 q 290 886 308 943 q 271 740 271 829 z "},"g":{"ha":697,"x_min":0,"x_max":683,"o":"m 317 221 q 233 232 275 221 q 190 190 206 214 q 174 147 174 167 q 219 111 174 111 l 474 111 q 638 68 593 111 q 682 -44 682 25 q 650 -156 682 -104 q 563 -248 618 -208 q 435 -310 507 -287 q 282 -333 363 -333 q 139 -315 203 -333 q 38 -258 75 -296 q 0 -168 0 -221 q 49 -71 0 -111 q 175 0 99 -31 q 96 31 121 7 q 71 90 71 56 q 97 156 71 121 q 200 243 122 192 q 101 321 138 269 q 64 439 64 372 q 101 569 64 513 q 197 657 138 625 q 321 689 256 689 q 399 679 363 689 q 464 651 435 669 l 683 651 l 683 568 l 544 568 q 568 472 568 524 q 533 341 568 397 q 442 253 499 285 q 317 221 385 221 m 332 276 q 423 323 392 276 q 454 440 454 369 q 436 534 454 489 q 384 608 418 579 q 303 636 350 636 q 218 590 249 636 q 188 469 188 543 q 206 378 188 422 q 256 305 224 333 q 332 276 289 276 m 126 -136 q 187 -231 126 -204 q 336 -257 247 -257 q 462 -236 407 -257 q 549 -180 517 -215 q 581 -100 581 -144 q 550 -28 581 -54 q 446 -1 519 -1 l 229 -1 q 157 -56 188 -21 q 126 -136 126 -92 z "},"h":{"ha":792,"x_min":32,"x_max":769,"o":"m 368 53 l 368 0 l 32 0 l 32 53 q 109 72 79 56 q 139 124 139 89 l 139 907 l 33 968 l 33 992 l 236 1064 l 261 1064 l 261 575 q 324 629 290 603 q 398 672 358 656 q 482 689 438 689 q 582 661 542 689 q 642 588 622 633 q 663 493 663 543 l 663 124 q 692 72 663 89 q 769 53 722 56 l 769 0 l 433 0 l 433 53 q 510 72 481 56 q 540 124 540 89 l 540 435 q 505 555 540 517 q 407 593 469 593 q 327 573 367 593 q 261 525 288 553 l 261 124 q 291 72 261 89 q 368 53 321 56 z "},"i":{"ha":406,"x_min":42,"x_max":378,"o":"m 206 824 q 142 851 168 824 q 115 915 115 878 q 142 979 115 953 q 206 1006 168 1006 q 271 979 244 1006 q 297 915 297 953 q 271 851 297 878 q 206 824 244 824 m 271 124 q 301 72 271 89 q 378 53 331 56 l 378 0 l 42 0 l 42 53 q 119 72 89 56 q 149 124 149 89 l 149 532 l 43 593 l 43 617 l 246 689 l 271 689 l 271 124 z "},"j":{"ha":358,"x_min":-1,"x_max":265,"o":"m 174 824 q 110 851 136 824 q 83 915 83 878 q 110 979 83 953 q 174 1006 136 1006 q 239 979 213 1006 q 265 915 265 953 q 239 851 265 878 q 174 824 213 824 m 250 -18 q 224 -143 250 -86 q 150 -247 199 -200 q 31 -333 101 -294 l -1 -297 q 78 -197 50 -244 q 117 -94 106 -149 q 128 26 128 -40 l 128 532 l 22 593 l 22 617 l 225 689 l 250 689 l 250 -18 z "},"k":{"ha":756,"x_min":32,"x_max":756,"o":"m 139 124 l 139 907 l 33 968 l 33 992 l 236 1064 l 261 1064 l 261 124 q 291 72 261 89 q 368 53 321 56 l 368 0 l 32 0 l 32 53 q 109 72 79 56 q 139 124 139 89 m 617 0 l 278 356 l 442 507 q 474 541 461 524 q 488 578 488 558 q 465 610 488 600 q 403 626 443 621 l 403 675 l 738 675 l 738 622 q 628 585 681 617 q 511 494 576 553 l 403 399 l 756 33 l 756 0 l 617 0 z "},"l":{"ha":400,"x_min":32,"x_max":368,"o":"m 139 124 l 139 907 l 33 968 l 33 992 l 236 1064 l 261 1064 l 261 124 q 291 72 261 89 q 368 53 321 56 l 368 0 l 32 0 l 32 53 q 109 72 79 56 q 139 124 139 89 z "},"m":{"ha":1203,"x_min":42,"x_max":1181,"o":"m 149 532 l 43 593 l 43 617 l 246 689 l 271 689 l 271 575 q 334 629 300 603 q 408 672 368 656 q 492 689 447 689 q 601 654 558 689 q 660 568 643 619 q 724 625 688 597 q 803 671 760 653 q 893 689 846 689 q 993 661 953 689 q 1053 588 1033 633 q 1074 493 1074 543 l 1074 124 q 1103 72 1074 89 q 1181 53 1133 56 l 1181 0 l 844 0 l 844 53 q 922 72 892 56 q 951 124 951 89 l 951 435 q 916 555 951 517 q 818 593 881 593 q 736 572 775 593 q 671 524 697 551 q 672 508 672 517 q 672 493 672 500 l 672 124 q 702 72 672 89 q 779 53 732 56 l 779 0 l 443 0 l 443 53 q 520 72 490 56 q 550 124 550 89 l 550 435 q 515 555 550 517 q 417 593 479 593 q 337 573 376 593 q 271 525 297 553 l 271 124 q 301 72 271 89 q 378 53 331 56 l 378 0 l 42 0 l 42 53 q 119 72 89 56 q 149 124 149 89 l 149 532 z "},"n":{"ha":801,"x_min":42,"x_max":779,"o":"m 149 532 l 43 593 l 43 617 l 246 689 l 271 689 l 271 575 q 334 629 300 603 q 408 672 368 656 q 492 689 447 689 q 592 661 551 689 q 652 588 632 633 q 672 493 672 543 l 672 124 q 702 72 672 89 q 779 53 732 56 l 779 0 l 443 0 l 443 53 q 520 72 490 56 q 550 124 550 89 l 550 435 q 515 555 550 517 q 417 593 479 593 q 337 573 376 593 q 271 525 297 553 l 271 124 q 301 72 271 89 q 378 53 331 56 l 378 0 l 42 0 l 42 53 q 119 72 89 56 q 149 124 149 89 l 149 532 z "},"o":{"ha":717,"x_min":44,"x_max":672,"o":"m 44 325 q 83 508 44 425 q 193 640 122 590 q 358 689 264 689 q 521 647 450 689 q 632 528 592 604 q 672 351 672 451 q 633 169 672 253 q 524 36 594 86 q 358 -14 453 -14 q 197 29 268 -14 q 85 149 125 72 q 44 325 44 225 m 175 376 q 200 220 175 296 q 269 97 225 144 q 372 49 314 49 q 502 117 463 49 q 542 299 542 185 q 517 456 542 381 q 446 578 492 531 q 339 626 400 626 q 215 558 254 626 q 175 376 175 490 z "},"p":{"ha":768,"x_min":18,"x_max":724,"o":"m 382 -267 l 382 -319 l 18 -319 l 18 -267 q 95 -247 65 -264 q 125 -196 125 -231 l 125 532 l 19 593 l 19 617 l 222 689 l 247 689 l 247 576 q 347 656 288 622 q 469 690 407 690 q 603 651 546 690 q 692 541 660 611 q 724 381 724 471 q 695 213 724 286 q 617 90 667 140 q 502 13 567 39 q 365 -14 438 -14 q 305 -9 335 -14 q 247 4 275 -4 l 247 -196 q 281 -246 247 -231 q 382 -267 314 -261 m 247 533 l 247 211 q 294 91 247 132 q 404 50 340 50 q 508 85 463 50 q 578 183 553 121 q 604 322 604 244 q 551 520 604 449 q 397 592 497 592 q 315 576 358 592 q 247 533 272 561 z "},"q":{"ha":761,"x_min":44,"x_max":761,"o":"m 547 640 l 631 696 l 654 696 l 654 -196 q 684 -247 654 -231 q 761 -267 714 -264 l 761 -319 l 397 -319 l 397 -267 q 499 -246 465 -261 q 532 -196 532 -231 l 532 106 q 436 20 492 54 q 319 -14 381 -14 q 183 26 246 -14 q 83 139 121 67 q 44 306 44 211 q 71 464 44 393 q 144 585 97 535 q 251 662 190 635 q 381 689 313 689 q 473 674 429 689 q 547 640 517 660 m 532 149 l 532 447 q 483 575 532 532 q 365 618 433 618 q 261 587 307 618 q 189 499 215 556 q 163 365 163 442 q 226 165 163 239 q 390 90 289 90 q 467 106 429 90 q 532 149 506 121 z "},"r":{"ha":576,"x_min":42,"x_max":563,"o":"m 406 53 l 406 0 l 42 0 l 42 53 q 119 72 89 56 q 149 124 149 89 l 149 532 l 43 593 l 43 617 l 246 689 l 271 689 l 271 560 q 369 649 321 608 q 468 689 417 689 q 520 672 500 689 q 551 631 540 656 q 563 581 561 606 l 467 514 l 446 514 q 414 559 429 543 q 375 575 399 575 q 324 556 353 575 q 271 511 296 538 l 271 124 q 302 74 271 89 q 406 53 333 58 z "},"s":{"ha":569,"x_min":57,"x_max":525,"o":"m 292 625 q 213 597 242 625 q 185 526 185 568 q 209 466 185 490 q 272 424 233 442 q 355 388 311 406 q 438 347 399 371 q 501 286 476 322 q 525 196 525 250 q 493 89 525 136 q 406 14 461 42 q 279 -14 351 -14 q 155 8 217 -14 q 57 64 93 31 l 57 235 l 114 235 q 176 97 133 142 q 285 51 219 51 q 378 83 343 51 q 414 161 414 114 q 390 227 414 201 q 327 272 365 253 q 245 308 289 290 q 163 349 201 326 q 101 407 125 372 q 76 494 76 442 q 106 595 76 551 q 185 664 135 639 q 299 689 236 689 q 410 672 360 689 q 494 629 460 654 l 494 464 l 436 464 q 389 581 422 536 q 292 625 356 625 z "},"t":{"ha":483,"x_min":15,"x_max":453,"o":"m 239 833 l 239 675 l 449 675 l 449 599 l 239 599 l 239 164 q 272 99 239 119 q 353 78 304 78 q 403 82 375 78 q 453 92 432 86 l 453 33 q 369 -1 418 11 q 276 -14 321 -14 q 191 3 226 -14 q 136 51 156 21 q 117 117 117 81 l 117 599 l 15 599 l 15 640 q 80 688 47 658 q 142 754 113 717 q 189 833 171 792 l 239 833 z "},"u":{"ha":768,"x_min":13,"x_max":744,"o":"m 633 675 l 633 146 q 646 96 633 113 q 693 75 658 79 l 744 68 l 744 17 l 542 -14 l 513 -14 l 513 100 q 417 23 471 60 q 299 -14 364 -14 q 199 13 240 -14 q 137 85 158 40 q 115 183 115 131 l 115 531 q 90 582 115 571 q 13 599 64 593 l 13 654 l 238 675 l 238 238 q 272 118 238 156 q 371 81 307 81 q 449 101 411 81 q 511 147 486 121 l 511 531 q 485 582 511 571 q 408 599 460 593 l 408 654 l 633 675 z "},"v":{"ha":717,"x_min":7,"x_max":710,"o":"m 331 -15 l 100 551 q 65 603 86 588 q 7 622 43 619 l 7 675 l 335 675 l 335 622 q 242 597 269 617 q 235 526 215 578 l 382 144 l 529 526 q 522 597 549 578 q 429 622 494 617 l 429 675 l 710 675 l 710 622 q 653 603 674 619 q 617 551 632 588 l 386 -15 l 331 -15 z "},"w":{"ha":1060,"x_min":7,"x_max":1053,"o":"m 318 -15 l 100 551 q 65 603 86 588 q 7 622 43 619 l 7 675 l 336 675 l 336 622 q 241 598 271 617 q 231 526 211 579 l 372 143 l 497 488 l 475 551 q 440 603 463 588 q 382 622 418 619 l 382 675 l 703 675 l 703 622 q 608 598 638 617 q 597 526 579 579 l 728 143 l 874 526 q 863 597 893 578 q 768 622 833 617 l 768 675 l 1053 675 l 1053 622 q 996 603 1017 619 q 960 551 975 588 l 729 -15 l 674 -15 l 529 396 l 374 -15 l 318 -15 z "},"x":{"ha":774,"x_min":14,"x_max":760,"o":"m 154 551 q 99 599 132 579 q 36 622 67 619 l 36 675 l 361 675 l 361 622 q 290 592 306 617 q 307 526 275 567 l 400 410 l 493 526 q 512 592 528 567 q 439 622 496 617 l 439 675 l 711 675 l 711 622 q 651 599 681 619 q 597 551 621 579 l 438 363 l 628 124 q 685 76 650 97 q 760 53 719 56 l 760 0 l 419 0 l 419 53 q 476 69 457 57 q 497 101 496 81 q 475 149 497 122 l 360 293 l 244 149 q 228 83 211 108 q 299 53 244 58 l 299 0 l 14 0 l 14 53 q 87 76 54 56 q 142 124 119 97 l 322 340 l 154 551 z "},"y":{"ha":717,"x_min":7,"x_max":710,"o":"m 325 -3 l 100 551 q 65 603 86 588 q 7 622 43 619 l 7 675 l 335 675 l 335 622 q 242 597 269 617 q 235 526 215 578 l 382 144 l 529 526 q 522 597 549 578 q 429 622 494 617 l 429 675 l 710 675 l 710 622 q 653 603 674 619 q 617 551 632 588 l 363 -69 q 297 -207 331 -147 q 221 -300 263 -267 q 121 -333 179 -333 q 42 -306 76 -333 q 8 -237 8 -278 q 31 -177 8 -201 q 88 -153 53 -153 q 131 -165 117 -153 q 152 -191 144 -176 q 167 -217 160 -206 q 188 -229 174 -229 q 215 -218 201 -229 q 249 -173 229 -207 q 296 -71 268 -139 l 325 -3 z "},"z":{"ha":633,"x_min":25,"x_max":599,"o":"m 25 32 l 428 617 l 246 617 q 168 596 196 617 q 126 540 140 575 q 101 458 113 504 l 44 458 l 58 675 l 585 675 l 585 643 l 182 58 l 368 58 q 463 83 431 58 q 512 149 494 107 q 543 244 529 192 l 599 244 l 578 0 l 25 0 l 25 32 z "},"á":{"ha":658,"x_min":51,"x_max":656,"o":"m 583 83 q 616 89 600 83 q 643 100 632 94 l 656 68 q 603 11 636 36 q 531 -14 571 -14 q 458 11 494 -14 q 408 83 421 36 q 364 44 392 67 q 300 3 336 21 q 219 -14 264 -14 q 99 28 147 -14 q 51 139 51 71 q 86 241 51 199 q 178 314 121 283 q 300 367 235 344 l 410 404 l 410 504 q 378 589 410 557 q 283 621 346 621 q 219 597 243 621 q 196 539 196 572 q 203 502 196 521 q 225 460 211 483 l 121 428 q 88 458 103 436 q 72 511 72 479 q 93 579 72 547 q 150 635 114 611 q 232 674 186 660 q 326 689 278 689 q 483 645 438 689 q 529 514 529 601 l 529 142 q 545 97 529 111 q 583 83 561 83 m 174 171 q 203 103 174 128 q 275 78 232 78 q 344 89 308 78 q 410 126 379 100 l 410 340 q 299 302 353 324 q 209 249 244 281 q 174 171 174 218 m 381 1010 q 424 1049 400 1042 q 469 1049 449 1057 q 500 1022 489 1040 q 506 979 511 1003 q 474 933 501 956 l 275 776 l 246 801 l 381 1010 z "},"ă":{"ha":658,"x_min":51,"x_max":656,"o":"m 583 83 q 616 89 600 83 q 643 100 632 94 l 656 68 q 603 11 636 36 q 531 -14 571 -14 q 458 11 494 -14 q 408 83 421 36 q 364 44 392 67 q 300 3 336 21 q 219 -14 264 -14 q 99 28 147 -14 q 51 139 51 71 q 86 241 51 199 q 178 314 121 283 q 300 367 235 344 l 410 404 l 410 504 q 378 589 410 557 q 283 621 346 621 q 219 597 243 621 q 196 539 196 572 q 203 502 196 521 q 225 460 211 483 l 121 428 q 88 458 103 436 q 72 511 72 479 q 93 579 72 547 q 150 635 114 611 q 232 674 186 660 q 326 689 278 689 q 483 645 438 689 q 529 514 529 601 l 529 142 q 545 97 529 111 q 583 83 561 83 m 174 171 q 203 103 174 128 q 275 78 232 78 q 344 89 308 78 q 410 126 379 100 l 410 340 q 299 302 353 324 q 209 249 244 281 q 174 171 174 218 m 321 875 q 401 915 367 875 q 447 1033 436 956 l 506 1025 q 447 842 496 907 q 321 776 399 776 q 194 842 243 776 q 136 1025 146 907 l 194 1033 q 240 915 206 956 q 321 875 275 875 z "},"â":{"ha":658,"x_min":51,"x_max":656,"o":"m 583 83 q 616 89 600 83 q 643 100 632 94 l 656 68 q 603 11 636 36 q 531 -14 571 -14 q 458 11 494 -14 q 408 83 421 36 q 364 44 392 67 q 300 3 336 21 q 219 -14 264 -14 q 99 28 147 -14 q 51 139 51 71 q 86 241 51 199 q 178 314 121 283 q 300 367 235 344 l 410 404 l 410 504 q 378 589 410 557 q 283 621 346 621 q 219 597 243 621 q 196 539 196 572 q 203 502 196 521 q 225 460 211 483 l 121 428 q 88 458 103 436 q 72 511 72 479 q 93 579 72 547 q 150 635 114 611 q 232 674 186 660 q 326 689 278 689 q 483 645 438 689 q 529 514 529 601 l 529 142 q 545 97 529 111 q 583 83 561 83 m 174 171 q 203 103 174 128 q 275 78 232 78 q 344 89 308 78 q 410 126 379 100 l 410 340 q 299 302 353 324 q 209 249 244 281 q 174 171 174 218 m 368 1024 l 508 793 l 468 763 l 321 932 l 174 763 l 133 793 l 274 1024 q 321 1050 289 1050 q 368 1024 353 1050 z "},"ä":{"ha":658,"x_min":51,"x_max":656,"o":"m 583 83 q 616 89 600 83 q 643 100 632 94 l 656 68 q 603 11 636 36 q 531 -14 571 -14 q 458 11 494 -14 q 408 83 421 36 q 364 44 392 67 q 300 3 336 21 q 219 -14 264 -14 q 99 28 147 -14 q 51 139 51 71 q 86 241 51 199 q 178 314 121 283 q 300 367 235 344 l 410 404 l 410 504 q 378 589 410 557 q 283 621 346 621 q 219 597 243 621 q 196 539 196 572 q 203 502 196 521 q 225 460 211 483 l 121 428 q 88 458 103 436 q 72 511 72 479 q 93 579 72 547 q 150 635 114 611 q 232 674 186 660 q 326 689 278 689 q 483 645 438 689 q 529 514 529 601 l 529 142 q 545 97 529 111 q 583 83 561 83 m 174 171 q 203 103 174 128 q 275 78 232 78 q 344 89 308 78 q 410 126 379 100 l 410 340 q 299 302 353 324 q 209 249 244 281 q 174 171 174 218 m 197 832 q 138 856 163 832 q 114 915 114 879 q 138 973 114 949 q 197 997 163 997 q 256 973 231 997 q 281 915 281 949 q 256 856 281 879 q 197 832 231 832 m 446 832 q 388 856 413 832 q 363 915 363 879 q 388 973 363 949 q 446 997 413 997 q 505 973 481 997 q 529 915 529 949 q 505 856 529 879 q 446 832 481 832 z "},"à":{"ha":658,"x_min":51,"x_max":656,"o":"m 583 83 q 616 89 600 83 q 643 100 632 94 l 656 68 q 603 11 636 36 q 531 -14 571 -14 q 458 11 494 -14 q 408 83 421 36 q 364 44 392 67 q 300 3 336 21 q 219 -14 264 -14 q 99 28 147 -14 q 51 139 51 71 q 86 241 51 199 q 178 314 121 283 q 300 367 235 344 l 410 404 l 410 504 q 378 589 410 557 q 283 621 346 621 q 219 597 243 621 q 196 539 196 572 q 203 502 196 521 q 225 460 211 483 l 121 428 q 88 458 103 436 q 72 511 72 479 q 93 579 72 547 q 150 635 114 611 q 232 674 186 660 q 326 689 278 689 q 483 645 438 689 q 529 514 529 601 l 529 142 q 545 97 529 111 q 583 83 561 83 m 174 171 q 203 103 174 128 q 275 78 232 78 q 344 89 308 78 q 410 126 379 100 l 410 340 q 299 302 353 324 q 209 249 244 281 q 174 171 174 218 m 261 1010 l 396 801 l 367 776 l 168 933 q 135 979 140 956 q 142 1022 131 1003 q 173 1049 153 1040 q 217 1049 193 1057 q 261 1010 242 1042 z "},"ā":{"ha":658,"x_min":51,"x_max":656,"o":"m 583 83 q 616 89 600 83 q 643 100 632 94 l 656 68 q 603 11 636 36 q 531 -14 571 -14 q 458 11 494 -14 q 408 83 421 36 q 364 44 392 67 q 300 3 336 21 q 219 -14 264 -14 q 99 28 147 -14 q 51 139 51 71 q 86 241 51 199 q 178 314 121 283 q 300 367 235 344 l 410 404 l 410 504 q 378 589 410 557 q 283 621 346 621 q 219 597 243 621 q 196 539 196 572 q 203 502 196 521 q 225 460 211 483 l 121 428 q 88 458 103 436 q 72 511 72 479 q 93 579 72 547 q 150 635 114 611 q 232 674 186 660 q 326 689 278 689 q 483 645 438 689 q 529 514 529 601 l 529 142 q 545 97 529 111 q 583 83 561 83 m 174 171 q 203 103 174 128 q 275 78 232 78 q 344 89 308 78 q 410 126 379 100 l 410 340 q 299 302 353 324 q 209 249 244 281 q 174 171 174 218 m 158 842 l 158 922 l 483 922 l 483 842 l 158 842 z "},"ą":{"ha":658,"x_min":51,"x_max":656,"o":"m 656 -218 q 576 -297 625 -260 q 465 -333 526 -333 q 374 -301 411 -333 q 336 -211 336 -268 q 381 -98 336 -150 q 492 -7 425 -46 q 442 26 465 3 q 408 83 418 49 q 364 44 392 67 q 300 3 336 21 q 219 -14 264 -14 q 99 28 147 -14 q 51 139 51 71 q 86 241 51 199 q 178 314 121 283 q 300 367 235 344 l 410 404 l 410 504 q 378 589 410 557 q 283 621 346 621 q 219 597 243 621 q 196 539 196 572 q 203 502 196 521 q 225 460 211 483 l 121 428 q 88 458 103 436 q 72 511 72 479 q 93 579 72 547 q 150 635 114 611 q 232 674 186 660 q 326 689 278 689 q 483 645 438 689 q 529 514 529 601 l 529 142 q 545 97 529 111 q 583 83 561 83 q 616 89 600 83 q 643 100 632 94 l 656 68 q 620 24 646 44 q 562 -18 594 3 q 499 -63 529 -39 q 448 -117 468 -87 q 428 -186 428 -147 q 497 -257 428 -257 q 563 -238 533 -257 q 628 -185 593 -219 l 656 -218 m 174 171 q 203 103 174 128 q 275 78 232 78 q 344 89 308 78 q 410 126 379 100 l 410 340 q 299 302 353 324 q 209 249 244 281 q 174 171 174 218 z "},"å":{"ha":658,"x_min":51,"x_max":656,"o":"m 583 83 q 616 89 600 83 q 643 100 632 94 l 656 68 q 603 11 636 36 q 531 -14 571 -14 q 458 11 494 -14 q 408 83 421 36 q 364 44 392 67 q 300 3 336 21 q 219 -14 264 -14 q 99 28 147 -14 q 51 139 51 71 q 86 241 51 199 q 178 314 121 283 q 300 367 235 344 l 410 404 l 410 504 q 378 589 410 557 q 283 621 346 621 q 219 597 243 621 q 196 539 196 572 q 203 502 196 521 q 225 460 211 483 l 121 428 q 88 458 103 436 q 72 511 72 479 q 93 579 72 547 q 150 635 114 611 q 232 674 186 660 q 326 689 278 689 q 483 645 438 689 q 529 514 529 601 l 529 142 q 545 97 529 111 q 583 83 561 83 m 174 171 q 203 103 174 128 q 275 78 232 78 q 344 89 308 78 q 410 126 379 100 l 410 340 q 299 302 353 324 q 209 249 244 281 q 174 171 174 218 m 178 919 q 197 992 178 960 q 249 1043 217 1024 q 321 1063 282 1063 q 392 1043 360 1063 q 444 992 425 1024 q 464 919 464 960 q 444 848 464 881 q 392 796 425 815 q 321 776 360 776 q 249 796 282 776 q 197 848 217 815 q 178 919 178 881 m 403 919 q 378 980 403 956 q 321 1004 354 1004 q 263 980 288 1004 q 239 919 239 956 q 263 859 239 883 q 321 835 288 835 q 378 859 354 835 q 403 919 403 883 z "},"ã":{"ha":658,"x_min":51,"x_max":656,"o":"m 583 83 q 616 89 600 83 q 643 100 632 94 l 656 68 q 603 11 636 36 q 531 -14 571 -14 q 458 11 494 -14 q 408 83 421 36 q 364 44 392 67 q 300 3 336 21 q 219 -14 264 -14 q 99 28 147 -14 q 51 139 51 71 q 86 241 51 199 q 178 314 121 283 q 300 367 235 344 l 410 404 l 410 504 q 378 589 410 557 q 283 621 346 621 q 219 597 243 621 q 196 539 196 572 q 203 502 196 521 q 225 460 211 483 l 121 428 q 88 458 103 436 q 72 511 72 479 q 93 579 72 547 q 150 635 114 611 q 232 674 186 660 q 326 689 278 689 q 483 645 438 689 q 529 514 529 601 l 529 142 q 545 97 529 111 q 583 83 561 83 m 174 171 q 203 103 174 128 q 275 78 232 78 q 344 89 308 78 q 410 126 379 100 l 410 340 q 299 302 353 324 q 209 249 244 281 q 174 171 174 218 m 253 994 q 300 980 281 994 q 336 946 319 965 q 369 912 353 926 q 407 897 386 897 q 448 922 431 897 q 488 997 465 946 l 539 974 q 464 838 500 872 q 392 803 428 803 q 345 817 365 803 q 308 851 325 832 q 275 885 292 871 q 238 900 258 900 q 196 876 214 900 q 154 800 178 851 l 103 824 q 180 960 142 926 q 253 994 218 994 z "},"æ":{"ha":1000,"x_min":51,"x_max":965,"o":"m 514 381 q 544 238 514 301 q 627 136 574 174 q 750 99 681 99 q 847 117 799 99 q 935 181 894 135 l 965 154 q 865 34 931 82 q 710 -14 800 -14 q 575 18 636 -14 q 472 107 514 50 q 367 24 432 63 q 231 -14 303 -14 q 101 28 150 -14 q 51 139 51 71 q 86 241 51 199 q 178 314 121 283 q 300 367 235 344 l 410 404 l 410 504 q 378 589 410 557 q 283 621 346 621 q 219 597 243 621 q 196 539 196 572 q 203 502 196 521 q 225 460 211 483 l 121 428 q 88 458 103 436 q 72 511 72 479 q 108 599 72 558 q 203 664 144 639 q 326 689 261 689 q 437 663 392 689 q 501 593 482 638 q 593 663 542 638 q 704 689 644 689 q 819 663 771 689 q 899 592 868 636 q 944 497 929 549 q 958 397 958 446 l 514 397 l 514 381 m 682 624 q 584 581 629 624 q 522 460 539 539 l 824 460 q 808 539 824 501 q 760 600 792 576 q 682 624 729 624 m 174 171 q 203 103 174 128 q 275 78 232 78 q 372 101 328 78 q 443 157 415 124 q 407 325 407 232 l 407 342 q 297 303 351 325 q 208 249 243 281 q 174 171 174 217 z "},"ǽ":{"ha":1000,"x_min":51,"x_max":965,"o":"m 514 381 q 544 238 514 301 q 627 136 574 174 q 750 99 681 99 q 847 117 799 99 q 935 181 894 135 l 965 154 q 865 34 931 82 q 710 -14 800 -14 q 575 18 636 -14 q 472 107 514 50 q 367 24 432 63 q 231 -14 303 -14 q 101 28 150 -14 q 51 139 51 71 q 86 241 51 199 q 178 314 121 283 q 300 367 235 344 l 410 404 l 410 504 q 378 589 410 557 q 283 621 346 621 q 219 597 243 621 q 196 539 196 572 q 203 502 196 521 q 225 460 211 483 l 121 428 q 88 458 103 436 q 72 511 72 479 q 108 599 72 558 q 203 664 144 639 q 326 689 261 689 q 437 663 392 689 q 501 593 482 638 q 593 663 542 638 q 704 689 644 689 q 819 663 771 689 q 899 592 868 636 q 944 497 929 549 q 958 397 958 446 l 514 397 l 514 381 m 682 624 q 584 581 629 624 q 522 460 539 539 l 824 460 q 808 539 824 501 q 760 600 792 576 q 682 624 729 624 m 174 171 q 203 103 174 128 q 275 78 232 78 q 372 101 328 78 q 443 157 415 124 q 407 325 407 232 l 407 342 q 297 303 351 325 q 208 249 243 281 q 174 171 174 217 m 651 1010 q 695 1049 671 1042 q 740 1049 719 1057 q 771 1022 760 1040 q 777 979 782 1003 q 744 933 772 956 l 546 776 l 517 801 l 651 1010 z "},"ć":{"ha":604,"x_min":44,"x_max":575,"o":"m 343 624 q 251 592 293 624 q 182 503 208 561 q 156 361 156 444 q 181 231 156 292 q 253 135 206 171 q 368 99 301 99 q 461 117 415 99 q 546 181 507 135 l 575 154 q 478 34 540 82 q 329 -14 415 -14 q 183 29 247 -14 q 81 149 118 72 q 44 325 44 225 q 69 467 44 401 q 139 583 94 533 q 242 661 183 633 q 369 689 301 689 q 467 672 421 689 q 541 622 513 654 q 569 546 569 590 q 551 495 569 515 q 503 475 533 475 q 461 490 476 475 q 439 533 446 504 q 408 601 428 579 q 343 624 388 624 m 411 1010 q 455 1049 431 1042 q 499 1049 479 1057 q 531 1022 519 1040 q 537 979 542 1003 q 504 933 532 956 l 306 776 l 276 801 l 411 1010 z "},"č":{"ha":604,"x_min":44,"x_max":575,"o":"m 343 624 q 251 592 293 624 q 182 503 208 561 q 156 361 156 444 q 181 231 156 292 q 253 135 206 171 q 368 99 301 99 q 461 117 415 99 q 546 181 507 135 l 575 154 q 478 34 540 82 q 329 -14 415 -14 q 183 29 247 -14 q 81 149 118 72 q 44 325 44 225 q 69 467 44 401 q 139 583 94 533 q 242 661 183 633 q 369 689 301 689 q 467 672 421 689 q 541 622 513 654 q 569 546 569 590 q 551 495 569 515 q 503 475 533 475 q 461 490 476 475 q 439 533 446 504 q 408 601 428 579 q 343 624 388 624 m 399 801 q 351 775 383 775 q 304 801 319 775 l 164 1032 l 204 1063 l 351 893 l 499 1063 l 539 1032 l 399 801 z "},"ç":{"ha":604,"x_min":44,"x_max":575,"o":"m 189 -325 l 197 -271 q 327 -272 279 -289 q 375 -219 375 -254 q 339 -167 375 -182 q 240 -146 303 -151 l 293 -11 q 165 43 221 -1 q 76 160 108 88 q 44 325 44 233 q 69 467 44 401 q 139 583 94 533 q 242 661 183 633 q 369 689 301 689 q 467 672 421 689 q 541 622 513 654 q 569 546 569 590 q 551 495 569 515 q 503 475 533 475 q 461 490 476 475 q 439 533 446 504 q 408 601 428 579 q 343 624 388 624 q 251 592 293 624 q 182 503 208 561 q 156 361 156 444 q 181 231 156 292 q 253 135 206 171 q 368 99 301 99 q 461 117 415 99 q 546 181 507 135 l 575 154 q 483 38 542 85 q 342 -14 424 -10 l 318 -79 q 428 -115 383 -86 q 472 -192 472 -143 q 433 -281 472 -246 q 330 -327 394 -315 q 189 -325 265 -339 z "},"ĉ":{"ha":604,"x_min":44,"x_max":575,"o":"m 343 624 q 251 592 293 624 q 182 503 208 561 q 156 361 156 444 q 181 231 156 292 q 253 135 206 171 q 368 99 301 99 q 461 117 415 99 q 546 181 507 135 l 575 154 q 478 34 540 82 q 329 -14 415 -14 q 183 29 247 -14 q 81 149 118 72 q 44 325 44 225 q 69 467 44 401 q 139 583 94 533 q 242 661 183 633 q 369 689 301 689 q 467 672 421 689 q 541 622 513 654 q 569 546 569 590 q 551 495 569 515 q 503 475 533 475 q 461 490 476 475 q 439 533 446 504 q 408 601 428 579 q 343 624 388 624 m 399 1024 l 539 793 l 499 763 l 351 932 l 204 763 l 164 793 l 304 1024 q 351 1050 319 1050 q 399 1024 383 1050 z "},"ċ":{"ha":604,"x_min":44,"x_max":575,"o":"m 343 624 q 251 592 293 624 q 182 503 208 561 q 156 361 156 444 q 181 231 156 292 q 253 135 206 171 q 368 99 301 99 q 461 117 415 99 q 546 181 507 135 l 575 154 q 478 34 540 82 q 329 -14 415 -14 q 183 29 247 -14 q 81 149 118 72 q 44 325 44 225 q 69 467 44 401 q 139 583 94 533 q 242 661 183 633 q 369 689 301 689 q 467 672 421 689 q 541 622 513 654 q 569 546 569 590 q 551 495 569 515 q 503 475 533 475 q 461 490 476 475 q 439 533 446 504 q 408 601 428 579 q 343 624 388 624 m 351 832 q 290 858 315 832 q 264 919 264 883 q 290 981 264 956 q 351 1007 315 1007 q 413 981 388 1007 q 439 919 439 956 q 413 858 439 883 q 351 832 388 832 z "},"ď":{"ha":796,"x_min":44,"x_max":886,"o":"m 764 17 l 560 -14 l 531 -14 l 531 106 q 435 20 490 54 q 319 -14 381 -14 q 183 26 246 -14 q 83 139 121 67 q 44 306 44 211 q 71 464 44 393 q 144 585 97 535 q 251 662 190 635 q 381 689 313 689 q 465 676 429 689 q 531 644 500 664 l 531 907 l 425 968 l 425 992 l 628 1064 l 653 1064 l 653 146 q 665 96 653 113 q 713 75 678 79 l 764 68 l 764 17 m 531 149 l 531 447 q 482 575 531 532 q 365 618 433 618 q 261 587 307 618 q 189 499 215 556 q 163 365 163 442 q 226 165 163 239 q 390 90 289 90 q 467 106 429 90 q 531 149 504 121 m 760 990 q 783 1046 765 1028 q 822 1065 800 1064 q 860 1054 843 1067 q 881 1018 876 1042 q 871 963 886 994 l 760 731 l 722 740 l 760 990 z "},"đ":{"ha":769,"x_min":44,"x_max":764,"o":"m 764 17 l 560 -14 l 531 -14 l 531 106 q 435 20 490 54 q 319 -14 381 -14 q 183 26 246 -14 q 83 139 121 67 q 44 306 44 211 q 71 464 44 393 q 144 585 97 535 q 251 662 190 635 q 381 689 313 689 q 465 676 429 689 q 531 644 500 664 l 531 772 l 329 772 l 329 839 l 531 839 l 531 907 l 425 968 l 425 992 l 628 1064 l 653 1064 l 653 839 l 751 839 l 751 772 l 653 772 l 653 146 q 665 96 653 113 q 713 75 678 79 l 764 68 l 764 17 m 531 149 l 531 447 q 482 575 531 532 q 365 618 433 618 q 261 587 307 618 q 189 499 215 556 q 163 365 163 442 q 226 165 163 239 q 390 90 289 90 q 467 106 429 90 q 531 149 504 121 z "},"é":{"ha":638,"x_min":44,"x_max":603,"o":"m 151 381 q 181 238 151 301 q 265 136 211 174 q 388 99 318 99 q 484 117 436 99 q 572 181 532 135 l 603 154 q 503 34 568 82 q 347 -14 438 -14 q 192 29 261 -14 q 84 149 124 72 q 44 325 44 225 q 84 510 44 428 q 191 640 124 592 q 342 689 258 689 q 457 663 408 689 q 536 592 506 636 q 581 497 567 549 q 596 397 596 446 l 151 397 l 151 381 m 319 624 q 222 581 267 624 q 160 460 176 539 l 461 460 q 445 539 461 501 q 398 600 429 576 q 319 624 367 624 m 403 1010 q 447 1049 422 1042 q 491 1049 471 1057 q 522 1022 511 1040 q 528 979 533 1003 q 496 933 524 956 l 297 776 l 268 801 l 403 1010 z "},"ĕ":{"ha":638,"x_min":44,"x_max":603,"o":"m 151 381 q 181 238 151 301 q 265 136 211 174 q 388 99 318 99 q 484 117 436 99 q 572 181 532 135 l 603 154 q 503 34 568 82 q 347 -14 438 -14 q 192 29 261 -14 q 84 149 124 72 q 44 325 44 225 q 84 510 44 428 q 191 640 124 592 q 342 689 258 689 q 457 663 408 689 q 536 592 506 636 q 581 497 567 549 q 596 397 596 446 l 151 397 l 151 381 m 319 624 q 222 581 267 624 q 160 460 176 539 l 461 460 q 445 539 461 501 q 398 600 429 576 q 319 624 367 624 m 343 875 q 424 915 389 875 q 469 1033 458 956 l 528 1025 q 469 842 518 907 q 343 776 421 776 q 217 842 265 776 q 158 1025 168 907 l 217 1033 q 263 915 228 956 q 343 875 297 875 z "},"ě":{"ha":638,"x_min":44,"x_max":603,"o":"m 151 381 q 181 238 151 301 q 265 136 211 174 q 388 99 318 99 q 484 117 436 99 q 572 181 532 135 l 603 154 q 503 34 568 82 q 347 -14 438 -14 q 192 29 261 -14 q 84 149 124 72 q 44 325 44 225 q 84 510 44 428 q 191 640 124 592 q 342 689 258 689 q 457 663 408 689 q 536 592 506 636 q 581 497 567 549 q 596 397 596 446 l 151 397 l 151 381 m 319 624 q 222 581 267 624 q 160 460 176 539 l 461 460 q 445 539 461 501 q 398 600 429 576 q 319 624 367 624 m 390 801 q 343 775 375 775 q 296 801 311 775 l 156 1032 l 196 1063 l 343 893 l 490 1063 l 531 1032 l 390 801 z "},"ê":{"ha":638,"x_min":44,"x_max":603,"o":"m 151 381 q 181 238 151 301 q 265 136 211 174 q 388 99 318 99 q 484 117 436 99 q 572 181 532 135 l 603 154 q 503 34 568 82 q 347 -14 438 -14 q 192 29 261 -14 q 84 149 124 72 q 44 325 44 225 q 84 510 44 428 q 191 640 124 592 q 342 689 258 689 q 457 663 408 689 q 536 592 506 636 q 581 497 567 549 q 596 397 596 446 l 151 397 l 151 381 m 319 624 q 222 581 267 624 q 160 460 176 539 l 461 460 q 445 539 461 501 q 398 600 429 576 q 319 624 367 624 m 390 1024 l 531 793 l 490 763 l 343 932 l 196 763 l 156 793 l 296 1024 q 343 1050 311 1050 q 390 1024 375 1050 z "},"ë":{"ha":638,"x_min":44,"x_max":603,"o":"m 151 381 q 181 238 151 301 q 265 136 211 174 q 388 99 318 99 q 484 117 436 99 q 572 181 532 135 l 603 154 q 503 34 568 82 q 347 -14 438 -14 q 192 29 261 -14 q 84 149 124 72 q 44 325 44 225 q 84 510 44 428 q 191 640 124 592 q 342 689 258 689 q 457 663 408 689 q 536 592 506 636 q 581 497 567 549 q 596 397 596 446 l 151 397 l 151 381 m 319 624 q 222 581 267 624 q 160 460 176 539 l 461 460 q 445 539 461 501 q 398 600 429 576 q 319 624 367 624 m 219 832 q 160 856 185 832 q 136 915 136 879 q 160 973 136 949 q 219 997 185 997 q 278 973 253 997 q 303 915 303 949 q 278 856 303 879 q 219 832 253 832 m 468 832 q 410 856 435 832 q 385 915 385 879 q 410 973 385 949 q 468 997 435 997 q 527 973 503 997 q 551 915 551 949 q 527 856 551 879 q 468 832 503 832 z "},"ė":{"ha":638,"x_min":44,"x_max":603,"o":"m 151 381 q 181 238 151 301 q 265 136 211 174 q 388 99 318 99 q 484 117 436 99 q 572 181 532 135 l 603 154 q 503 34 568 82 q 347 -14 438 -14 q 192 29 261 -14 q 84 149 124 72 q 44 325 44 225 q 84 510 44 428 q 191 640 124 592 q 342 689 258 689 q 457 663 408 689 q 536 592 506 636 q 581 497 567 549 q 596 397 596 446 l 151 397 l 151 381 m 319 624 q 222 581 267 624 q 160 460 176 539 l 461 460 q 445 539 461 501 q 398 600 429 576 q 319 624 367 624 m 343 832 q 281 858 307 832 q 256 919 256 883 q 281 981 256 956 q 343 1007 307 1007 q 405 981 379 1007 q 431 919 431 956 q 405 858 431 883 q 343 832 379 832 z "},"è":{"ha":638,"x_min":44,"x_max":603,"o":"m 151 381 q 181 238 151 301 q 265 136 211 174 q 388 99 318 99 q 484 117 436 99 q 572 181 532 135 l 603 154 q 503 34 568 82 q 347 -14 438 -14 q 192 29 261 -14 q 84 149 124 72 q 44 325 44 225 q 84 510 44 428 q 191 640 124 592 q 342 689 258 689 q 457 663 408 689 q 536 592 506 636 q 581 497 567 549 q 596 397 596 446 l 151 397 l 151 381 m 319 624 q 222 581 267 624 q 160 460 176 539 l 461 460 q 445 539 461 501 q 398 600 429 576 q 319 624 367 624 m 283 1010 l 418 801 l 389 776 l 190 933 q 158 979 163 956 q 164 1022 153 1003 q 195 1049 175 1040 q 240 1049 215 1057 q 283 1010 264 1042 z "},"ē":{"ha":638,"x_min":44,"x_max":603,"o":"m 151 381 q 181 238 151 301 q 265 136 211 174 q 388 99 318 99 q 484 117 436 99 q 572 181 532 135 l 603 154 q 503 34 568 82 q 347 -14 438 -14 q 192 29 261 -14 q 84 149 124 72 q 44 325 44 225 q 84 510 44 428 q 191 640 124 592 q 342 689 258 689 q 457 663 408 689 q 536 592 506 636 q 581 497 567 549 q 596 397 596 446 l 151 397 l 151 381 m 319 624 q 222 581 267 624 q 160 460 176 539 l 461 460 q 445 539 461 501 q 398 600 429 576 q 319 624 367 624 m 181 842 l 181 922 l 506 922 l 506 842 l 181 842 z "},"ę":{"ha":638,"x_min":44,"x_max":603,"o":"m 590 -218 q 510 -297 560 -260 q 400 -333 461 -333 q 308 -301 346 -333 q 271 -208 271 -268 q 303 -101 271 -150 q 383 -11 336 -53 q 366 -13 375 -12 q 347 -14 357 -14 q 192 29 261 -14 q 84 149 124 72 q 44 325 44 225 q 84 510 44 428 q 191 640 124 592 q 342 689 258 689 q 457 663 408 689 q 536 592 506 636 q 581 497 567 549 q 596 397 596 446 l 151 397 l 151 381 q 181 238 151 301 q 265 136 211 174 q 388 99 318 99 q 484 117 436 99 q 572 181 532 135 l 603 154 q 542 67 582 106 q 461 -9 503 28 q 391 -87 419 -46 q 363 -181 363 -128 q 432 -257 363 -257 q 498 -238 468 -257 q 563 -185 528 -219 l 590 -218 m 319 624 q 222 581 267 624 q 160 460 176 539 l 461 460 q 445 539 461 501 q 398 600 429 576 q 319 624 367 624 z "},"ð":{"ha":717,"x_min":44,"x_max":667,"o":"m 154 757 l 129 813 l 306 892 q 222 953 267 924 q 128 1006 178 982 l 158 1065 q 283 1005 225 1039 q 392 931 342 971 l 528 992 l 553 935 l 442 885 q 609 649 551 779 q 667 393 667 519 q 629 181 667 274 q 522 38 592 89 q 358 -14 453 -14 q 197 29 268 -14 q 85 149 125 72 q 44 325 44 225 q 84 508 44 425 q 190 640 124 590 q 338 689 257 689 q 444 665 403 689 q 510 611 485 642 l 515 611 q 455 732 496 672 q 357 847 414 792 l 154 757 m 175 376 q 200 220 175 296 q 269 97 225 144 q 372 49 314 49 q 502 117 463 49 q 542 299 542 185 q 517 456 542 381 q 446 578 492 531 q 339 626 400 626 q 215 558 254 626 q 175 376 175 490 z "},"ğ":{"ha":697,"x_min":0,"x_max":683,"o":"m 317 221 q 233 232 275 221 q 190 190 206 214 q 174 147 174 167 q 219 111 174 111 l 474 111 q 638 68 593 111 q 682 -44 682 25 q 650 -156 682 -104 q 563 -248 618 -208 q 435 -310 507 -287 q 282 -333 363 -333 q 139 -315 203 -333 q 38 -258 75 -296 q 0 -168 0 -221 q 49 -71 0 -111 q 175 0 99 -31 q 96 31 121 7 q 71 90 71 56 q 97 156 71 121 q 200 243 122 192 q 101 321 138 269 q 64 439 64 372 q 101 569 64 513 q 197 657 138 625 q 321 689 256 689 q 399 679 363 689 q 464 651 435 669 l 683 651 l 683 568 l 544 568 q 568 472 568 524 q 533 341 568 397 q 442 253 499 285 q 317 221 385 221 m 332 276 q 423 323 392 276 q 454 440 454 369 q 436 534 454 489 q 384 608 418 579 q 303 636 350 636 q 218 590 249 636 q 188 469 188 543 q 206 378 188 422 q 256 305 224 333 q 332 276 289 276 m 126 -136 q 187 -231 126 -204 q 336 -257 247 -257 q 462 -236 407 -257 q 549 -180 517 -215 q 581 -100 581 -144 q 550 -28 581 -54 q 446 -1 519 -1 l 229 -1 q 157 -56 188 -21 q 126 -136 126 -92 m 358 875 q 439 915 404 875 q 485 1033 474 956 l 543 1025 q 485 842 533 907 q 358 776 436 776 q 232 842 281 776 q 174 1025 183 907 l 232 1033 q 278 915 243 956 q 358 875 313 875 z "},"ĝ":{"ha":697,"x_min":0,"x_max":683,"o":"m 317 221 q 233 232 275 221 q 190 190 206 214 q 174 147 174 167 q 219 111 174 111 l 474 111 q 638 68 593 111 q 682 -44 682 25 q 650 -156 682 -104 q 563 -248 618 -208 q 435 -310 507 -287 q 282 -333 363 -333 q 139 -315 203 -333 q 38 -258 75 -296 q 0 -168 0 -221 q 49 -71 0 -111 q 175 0 99 -31 q 96 31 121 7 q 71 90 71 56 q 97 156 71 121 q 200 243 122 192 q 101 321 138 269 q 64 439 64 372 q 101 569 64 513 q 197 657 138 625 q 321 689 256 689 q 399 679 363 689 q 464 651 435 669 l 683 651 l 683 568 l 544 568 q 568 472 568 524 q 533 341 568 397 q 442 253 499 285 q 317 221 385 221 m 332 276 q 423 323 392 276 q 454 440 454 369 q 436 534 454 489 q 384 608 418 579 q 303 636 350 636 q 218 590 249 636 q 188 469 188 543 q 206 378 188 422 q 256 305 224 333 q 332 276 289 276 m 126 -136 q 187 -231 126 -204 q 336 -257 247 -257 q 462 -236 407 -257 q 549 -180 517 -215 q 581 -100 581 -144 q 550 -28 581 -54 q 446 -1 519 -1 l 229 -1 q 157 -56 188 -21 q 126 -136 126 -92 m 406 1024 l 546 793 l 506 763 l 358 932 l 211 763 l 171 793 l 311 1024 q 358 1050 326 1050 q 406 1024 390 1050 z "},"ģ":{"ha":697,"x_min":0,"x_max":683,"o":"m 317 221 q 233 232 275 221 q 190 190 206 214 q 174 147 174 167 q 219 111 174 111 l 474 111 q 638 68 593 111 q 682 -44 682 25 q 650 -156 682 -104 q 563 -248 618 -208 q 435 -310 507 -287 q 282 -333 363 -333 q 139 -315 203 -333 q 38 -258 75 -296 q 0 -168 0 -221 q 49 -71 0 -111 q 175 0 99 -31 q 96 31 121 7 q 71 90 71 56 q 97 156 71 121 q 200 243 122 192 q 101 321 138 269 q 64 439 64 372 q 101 569 64 513 q 197 657 138 625 q 321 689 256 689 q 399 679 363 689 q 464 651 435 669 l 683 651 l 683 568 l 544 568 q 568 472 568 524 q 533 341 568 397 q 442 253 499 285 q 317 221 385 221 m 332 276 q 423 323 392 276 q 454 440 454 369 q 436 534 454 489 q 384 608 418 579 q 303 636 350 636 q 218 590 249 636 q 188 469 188 543 q 206 378 188 422 q 256 305 224 333 q 332 276 289 276 m 126 -136 q 187 -231 126 -204 q 336 -257 247 -257 q 462 -236 407 -257 q 549 -180 517 -215 q 581 -100 581 -144 q 550 -28 581 -54 q 446 -1 519 -1 l 229 -1 q 157 -56 188 -21 q 126 -136 126 -92 m 343 949 q 356 928 343 933 q 386 917 369 922 q 416 901 403 913 q 429 864 429 890 q 404 810 429 829 q 347 790 379 790 q 279 820 306 790 q 253 893 253 850 q 276 972 253 936 q 342 1032 299 1008 q 449 1060 386 1056 l 463 1010 q 368 987 393 1003 q 343 949 343 971 z "},"ġ":{"ha":697,"x_min":0,"x_max":683,"o":"m 317 221 q 233 232 275 221 q 190 190 206 214 q 174 147 174 167 q 219 111 174 111 l 474 111 q 638 68 593 111 q 682 -44 682 25 q 650 -156 682 -104 q 563 -248 618 -208 q 435 -310 507 -287 q 282 -333 363 -333 q 139 -315 203 -333 q 38 -258 75 -296 q 0 -168 0 -221 q 49 -71 0 -111 q 175 0 99 -31 q 96 31 121 7 q 71 90 71 56 q 97 156 71 121 q 200 243 122 192 q 101 321 138 269 q 64 439 64 372 q 101 569 64 513 q 197 657 138 625 q 321 689 256 689 q 399 679 363 689 q 464 651 435 669 l 683 651 l 683 568 l 544 568 q 568 472 568 524 q 533 341 568 397 q 442 253 499 285 q 317 221 385 221 m 332 276 q 423 323 392 276 q 454 440 454 369 q 436 534 454 489 q 384 608 418 579 q 303 636 350 636 q 218 590 249 636 q 188 469 188 543 q 206 378 188 422 q 256 305 224 333 q 332 276 289 276 m 126 -136 q 187 -231 126 -204 q 336 -257 247 -257 q 462 -236 407 -257 q 549 -180 517 -215 q 581 -100 581 -144 q 550 -28 581 -54 q 446 -1 519 -1 l 229 -1 q 157 -56 188 -21 q 126 -136 126 -92 m 358 832 q 297 858 322 832 q 271 919 271 883 q 297 981 271 956 q 358 1007 322 1007 q 420 981 394 1007 q 446 919 446 956 q 420 858 446 883 q 358 832 394 832 z "},"ß":{"ha":853,"x_min":42,"x_max":825,"o":"m 596 53 q 685 86 650 53 q 721 174 721 119 q 704 243 721 215 q 650 295 688 271 q 550 350 613 319 q 449 422 478 386 q 419 513 419 457 q 436 587 419 556 q 478 644 453 618 q 529 698 504 669 q 571 763 554 726 q 588 851 588 799 q 547 956 588 919 q 444 993 507 993 q 315 926 360 993 q 271 750 271 860 l 271 0 l 42 0 l 42 53 q 119 72 89 56 q 149 124 149 89 l 149 599 l 42 599 l 42 675 l 149 675 l 149 725 q 189 895 149 818 q 300 1018 229 972 q 461 1064 371 1064 q 583 1040 528 1064 q 672 970 639 1017 q 706 854 706 924 q 686 770 706 806 q 638 707 667 735 q 581 656 610 679 q 533 608 553 632 q 514 557 514 585 q 550 497 514 522 q 663 432 586 472 q 749 376 713 406 q 805 308 785 347 q 825 214 825 269 q 792 100 825 151 q 705 17 758 49 q 589 -14 651 -14 q 471 8 528 -14 q 378 63 414 29 l 378 233 l 435 233 q 492 97 454 140 q 596 53 529 53 z "},"ħ":{"ha":792,"x_min":29,"x_max":769,"o":"m 368 53 l 368 0 l 32 0 l 32 53 q 109 72 79 56 q 139 124 139 89 l 139 772 l 29 772 l 29 839 l 139 839 l 139 907 l 33 968 l 33 992 l 236 1064 l 261 1064 l 261 839 l 451 839 l 451 772 l 261 772 l 261 575 q 324 629 290 603 q 398 672 358 656 q 482 689 438 689 q 582 661 542 689 q 642 588 622 633 q 663 493 663 543 l 663 124 q 692 72 663 89 q 769 53 722 56 l 769 0 l 433 0 l 433 53 q 510 72 481 56 q 540 124 540 89 l 540 435 q 505 555 540 517 q 407 593 469 593 q 327 573 367 593 q 261 525 288 553 l 261 124 q 291 72 261 89 q 368 53 321 56 z "},"ĥ":{"ha":792,"x_min":32,"x_max":769,"o":"m 368 53 l 368 0 l 32 0 l 32 53 q 109 72 79 56 q 139 124 139 89 l 139 907 l 33 968 l 33 992 l 236 1064 l 261 1064 l 261 575 q 324 629 290 603 q 398 672 358 656 q 482 689 438 689 q 582 661 542 689 q 642 588 622 633 q 663 493 663 543 l 663 124 q 692 72 663 89 q 769 53 722 56 l 769 0 l 433 0 l 433 53 q 510 72 481 56 q 540 124 540 89 l 540 435 q 505 555 540 517 q 407 593 469 593 q 327 573 367 593 q 261 525 288 553 l 261 124 q 291 72 261 89 q 368 53 321 56 m 436 1351 l 618 1138 l 586 1104 l 389 1254 l 192 1104 l 160 1138 l 342 1351 q 389 1375 361 1375 q 436 1351 417 1375 z "},"ı":{"ha":406,"x_min":42,"x_max":378,"o":"m 271 124 q 301 72 271 89 q 378 53 331 56 l 378 0 l 42 0 l 42 53 q 119 72 89 56 q 149 124 149 89 l 149 532 l 43 593 l 43 617 l 246 689 l 271 689 l 271 124 z "},"í":{"ha":406,"x_min":42,"x_max":400,"o":"m 271 124 q 301 72 271 89 q 378 53 331 56 l 378 0 l 42 0 l 42 53 q 119 72 89 56 q 149 124 149 89 l 149 532 l 43 593 l 43 617 l 246 689 l 271 689 l 271 124 m 269 1010 q 313 1049 289 1042 q 358 1049 338 1057 q 389 1022 378 1040 q 395 979 400 1003 q 363 933 390 956 l 164 776 l 135 801 l 269 1010 z "},"ĭ":{"ha":406,"x_min":25,"x_max":394,"o":"m 271 124 q 301 72 271 89 q 378 53 331 56 l 378 0 l 42 0 l 42 53 q 119 72 89 56 q 149 124 149 89 l 149 532 l 43 593 l 43 617 l 246 689 l 271 689 l 271 124 m 210 875 q 290 915 256 875 q 336 1033 325 956 l 394 1025 q 336 842 385 907 q 210 776 288 776 q 83 842 132 776 q 25 1025 35 907 l 83 1033 q 129 915 94 956 q 210 875 164 875 z "},"î":{"ha":406,"x_min":22,"x_max":397,"o":"m 271 124 q 301 72 271 89 q 378 53 331 56 l 378 0 l 42 0 l 42 53 q 119 72 89 56 q 149 124 149 89 l 149 532 l 43 593 l 43 617 l 246 689 l 271 689 l 271 124 m 257 1024 l 397 793 l 357 763 l 210 932 l 63 763 l 22 793 l 163 1024 q 210 1050 178 1050 q 257 1024 242 1050 z "},"ï":{"ha":406,"x_min":3,"x_max":418,"o":"m 271 124 q 301 72 271 89 q 378 53 331 56 l 378 0 l 42 0 l 42 53 q 119 72 89 56 q 149 124 149 89 l 149 532 l 43 593 l 43 617 l 246 689 l 271 689 l 271 124 m 86 832 q 27 856 51 832 q 3 915 3 879 q 27 973 3 949 q 86 997 51 997 q 144 973 119 997 q 169 915 169 949 q 144 856 169 879 q 86 832 119 832 m 335 832 q 276 856 301 832 q 251 915 251 879 q 276 973 251 949 q 335 997 301 997 q 394 973 369 997 q 418 915 418 949 q 394 856 418 879 q 335 832 369 832 z "},"ì":{"ha":406,"x_min":19,"x_max":378,"o":"m 271 124 q 301 72 271 89 q 378 53 331 56 l 378 0 l 42 0 l 42 53 q 119 72 89 56 q 149 124 149 89 l 149 532 l 43 593 l 43 617 l 246 689 l 271 689 l 271 124 m 150 1010 l 285 801 l 256 776 l 57 933 q 24 979 29 956 q 31 1022 19 1003 q 62 1049 42 1040 q 106 1049 82 1057 q 150 1010 131 1042 z "},"ī":{"ha":406,"x_min":42,"x_max":378,"o":"m 271 124 q 301 72 271 89 q 378 53 331 56 l 378 0 l 42 0 l 42 53 q 119 72 89 56 q 149 124 149 89 l 149 532 l 43 593 l 43 617 l 246 689 l 271 689 l 271 124 m 47 842 l 47 922 l 372 922 l 372 842 l 47 842 z "},"į":{"ha":406,"x_min":42,"x_max":378,"o":"m 206 824 q 142 851 168 824 q 115 915 115 878 q 142 979 115 953 q 206 1006 168 1006 q 271 979 244 1006 q 297 915 297 953 q 271 851 297 878 q 206 824 244 824 m 271 124 q 301 72 271 89 q 378 53 331 56 l 378 0 l 319 0 q 238 -51 276 -21 q 174 -115 199 -81 q 150 -185 150 -149 q 167 -237 150 -218 q 219 -257 185 -257 q 285 -238 256 -257 q 350 -185 315 -219 l 378 -218 q 298 -297 347 -260 q 188 -333 249 -333 q 96 -301 133 -333 q 58 -211 58 -268 q 108 -92 58 -146 q 229 0 157 -39 l 42 0 l 42 53 q 119 72 89 56 q 149 124 149 89 l 149 532 l 43 593 l 43 617 l 246 689 l 271 689 l 271 124 z "},"ĩ":{"ha":406,"x_min":-8,"x_max":428,"o":"m 271 124 q 301 72 271 89 q 378 53 331 56 l 378 0 l 42 0 l 42 53 q 119 72 89 56 q 149 124 149 89 l 149 532 l 43 593 l 43 617 l 246 689 l 271 689 l 271 124 m 142 994 q 189 980 169 994 q 225 946 208 965 q 258 912 242 926 q 296 897 275 897 q 337 922 319 897 q 376 997 354 946 l 428 974 q 353 838 389 872 q 281 803 317 803 q 234 817 254 803 q 197 851 214 832 q 164 885 181 871 q 126 900 147 900 q 85 876 103 900 q 43 800 67 851 l -8 824 q 69 960 31 926 q 142 994 107 994 z "},"ĳ":{"ha":764,"x_min":42,"x_max":671,"o":"m 206 824 q 142 851 168 824 q 115 915 115 878 q 142 979 115 953 q 206 1006 168 1006 q 271 979 244 1006 q 297 915 297 953 q 271 851 297 878 q 206 824 244 824 m 271 124 q 301 72 271 89 q 378 53 331 56 l 378 0 l 42 0 l 42 53 q 119 72 89 56 q 149 124 149 89 l 149 532 l 43 593 l 43 617 l 246 689 l 271 689 l 271 124 m 579 824 q 515 851 542 824 q 489 915 489 878 q 515 979 489 953 q 579 1006 542 1006 q 644 979 618 1006 q 671 915 671 953 q 644 851 671 878 q 579 824 618 824 m 656 -18 q 630 -143 656 -86 q 556 -247 604 -200 q 436 -333 507 -294 l 404 -297 q 483 -197 456 -244 q 522 -94 511 -149 q 533 26 533 -40 l 533 532 l 428 593 l 428 617 l 631 689 l 656 689 l 656 -18 z "},"ȷ":{"ha":358,"x_min":-1,"x_max":250,"o":"m 250 -18 q 224 -143 250 -86 q 150 -247 199 -200 q 31 -333 101 -294 l -1 -297 q 78 -197 50 -244 q 117 -94 106 -149 q 128 26 128 -40 l 128 532 l 22 593 l 22 617 l 225 689 l 250 689 l 250 -18 z "},"ĵ":{"ha":358,"x_min":-1,"x_max":378,"o":"m 250 -18 q 224 -143 250 -86 q 150 -247 199 -200 q 31 -333 101 -294 l -1 -297 q 78 -197 50 -244 q 117 -94 106 -149 q 128 26 128 -40 l 128 532 l 22 593 l 22 617 l 225 689 l 250 689 l 250 -18 m 238 1024 l 378 793 l 338 763 l 190 932 l 43 763 l 3 793 l 143 1024 q 190 1050 158 1050 q 238 1024 222 1050 z "},"ķ":{"ha":756,"x_min":32,"x_max":756,"o":"m 139 124 l 139 907 l 33 968 l 33 992 l 236 1064 l 261 1064 l 261 124 q 291 72 261 89 q 368 53 321 56 l 368 0 l 32 0 l 32 53 q 109 72 79 56 q 139 124 139 89 m 617 0 l 278 356 l 442 507 q 474 541 461 524 q 488 578 488 558 q 465 610 488 600 q 403 626 443 621 l 403 675 l 738 675 l 738 622 q 628 585 681 617 q 511 494 576 553 l 403 399 l 756 33 l 756 0 l 617 0 m 431 -231 q 417 -210 431 -215 q 388 -199 404 -204 q 358 -183 371 -194 q 344 -146 344 -172 q 369 -92 344 -111 q 426 -72 394 -72 q 494 -101 468 -72 q 521 -175 521 -131 q 498 -254 521 -218 q 432 -314 475 -290 q 325 -342 389 -337 l 311 -292 q 406 -269 381 -285 q 431 -231 431 -253 z "},"ĸ":{"ha":765,"x_min":42,"x_max":765,"o":"m 271 124 q 301 72 271 89 q 378 53 331 56 l 378 0 l 42 0 l 42 53 q 119 72 89 56 q 149 124 149 89 l 149 532 l 43 593 l 43 617 l 246 689 l 271 689 l 271 124 m 626 0 l 288 356 l 451 507 q 484 541 471 524 q 497 578 497 558 q 475 610 497 600 q 413 626 453 621 l 413 675 l 747 675 l 747 622 q 638 585 690 617 q 521 494 586 553 l 413 399 l 765 33 l 765 0 l 626 0 z "},"ĺ":{"ha":400,"x_min":32,"x_max":428,"o":"m 139 124 l 139 907 l 33 968 l 33 992 l 236 1064 l 261 1064 l 261 124 q 291 72 261 89 q 368 53 321 56 l 368 0 l 32 0 l 32 53 q 109 72 79 56 q 139 124 139 89 m 303 1325 q 354 1354 329 1351 q 397 1344 379 1357 q 422 1311 415 1332 q 419 1268 428 1290 q 378 1229 410 1246 l 139 1106 l 114 1140 l 303 1325 z "},"ľ":{"ha":400,"x_min":32,"x_max":494,"o":"m 139 124 l 139 907 l 33 968 l 33 992 l 236 1064 l 261 1064 l 261 124 q 291 72 261 89 q 368 53 321 56 l 368 0 l 32 0 l 32 53 q 109 72 79 56 q 139 124 139 89 m 368 990 q 391 1046 374 1028 q 430 1065 408 1064 q 468 1054 451 1067 q 490 1018 485 1042 q 479 963 494 994 l 368 731 l 331 740 l 368 990 z "},"ļ":{"ha":400,"x_min":32,"x_max":368,"o":"m 139 124 l 139 907 l 33 968 l 33 992 l 236 1064 l 261 1064 l 261 124 q 291 72 261 89 q 368 53 321 56 l 368 0 l 32 0 l 32 53 q 109 72 79 56 q 139 124 139 89 m 214 -231 q 201 -210 214 -215 q 171 -199 188 -204 q 141 -183 154 -194 q 128 -146 128 -172 q 153 -92 128 -111 q 210 -72 178 -72 q 278 -101 251 -72 q 304 -175 304 -131 q 281 -254 304 -218 q 215 -314 258 -290 q 108 -342 172 -337 l 94 -292 q 189 -269 164 -285 q 214 -231 214 -253 z "},"ŀ":{"ha":492,"x_min":32,"x_max":533,"o":"m 139 124 l 139 907 l 33 968 l 33 992 l 236 1064 l 261 1064 l 261 124 q 291 72 261 89 q 368 53 321 56 l 368 0 l 32 0 l 32 53 q 109 72 79 56 q 139 124 139 89 m 446 447 q 384 473 410 447 q 358 535 358 499 q 384 597 358 571 q 446 622 410 622 q 508 597 482 622 q 533 535 533 571 q 508 473 533 499 q 446 447 482 447 z "},"ł":{"ha":469,"x_min":42,"x_max":442,"o":"m 181 124 l 181 422 l 42 329 l 42 408 l 181 501 l 181 907 l 75 968 l 75 992 l 278 1064 l 303 1064 l 303 576 l 442 669 l 442 590 l 303 497 l 303 124 q 333 72 303 89 q 410 53 363 56 l 410 0 l 74 0 l 74 53 q 151 72 121 56 q 181 124 181 89 z "},"ń":{"ha":801,"x_min":42,"x_max":779,"o":"m 149 532 l 43 593 l 43 617 l 246 689 l 271 689 l 271 575 q 334 629 300 603 q 408 672 368 656 q 492 689 447 689 q 592 661 551 689 q 652 588 632 633 q 672 493 672 543 l 672 124 q 702 72 672 89 q 779 53 732 56 l 779 0 l 443 0 l 443 53 q 520 72 490 56 q 550 124 550 89 l 550 435 q 515 555 550 517 q 417 593 479 593 q 337 573 376 593 q 271 525 297 553 l 271 124 q 301 72 271 89 q 378 53 331 56 l 378 0 l 42 0 l 42 53 q 119 72 89 56 q 149 124 149 89 l 149 532 m 471 1010 q 515 1049 490 1042 q 559 1049 539 1057 q 590 1022 579 1040 q 597 979 601 1003 q 564 933 592 956 l 365 776 l 336 801 l 471 1010 z "},"ň":{"ha":801,"x_min":42,"x_max":779,"o":"m 149 532 l 43 593 l 43 617 l 246 689 l 271 689 l 271 575 q 334 629 300 603 q 408 672 368 656 q 492 689 447 689 q 592 661 551 689 q 652 588 632 633 q 672 493 672 543 l 672 124 q 702 72 672 89 q 779 53 732 56 l 779 0 l 443 0 l 443 53 q 520 72 490 56 q 550 124 550 89 l 550 435 q 515 555 550 517 q 417 593 479 593 q 337 573 376 593 q 271 525 297 553 l 271 124 q 301 72 271 89 q 378 53 331 56 l 378 0 l 42 0 l 42 53 q 119 72 89 56 q 149 124 149 89 l 149 532 m 458 801 q 411 775 443 775 q 364 801 379 775 l 224 1032 l 264 1063 l 411 893 l 558 1063 l 599 1032 l 458 801 z "},"ņ":{"ha":801,"x_min":42,"x_max":779,"o":"m 149 532 l 43 593 l 43 617 l 246 689 l 271 689 l 271 575 q 334 629 300 603 q 408 672 368 656 q 492 689 447 689 q 592 661 551 689 q 652 588 632 633 q 672 493 672 543 l 672 124 q 702 72 672 89 q 779 53 732 56 l 779 0 l 443 0 l 443 53 q 520 72 490 56 q 550 124 550 89 l 550 435 q 515 555 550 517 q 417 593 479 593 q 337 573 376 593 q 271 525 297 553 l 271 124 q 301 72 271 89 q 378 53 331 56 l 378 0 l 42 0 l 42 53 q 119 72 89 56 q 149 124 149 89 l 149 532 m 425 -231 q 412 -210 425 -215 q 382 -199 399 -204 q 352 -183 365 -194 q 339 -146 339 -172 q 364 -92 339 -111 q 421 -72 389 -72 q 489 -101 463 -72 q 515 -175 515 -131 q 492 -254 515 -218 q 426 -314 469 -290 q 319 -342 383 -337 l 306 -292 q 400 -269 375 -285 q 425 -231 425 -253 z "},"ñ":{"ha":801,"x_min":42,"x_max":779,"o":"m 149 532 l 43 593 l 43 617 l 246 689 l 271 689 l 271 575 q 334 629 300 603 q 408 672 368 656 q 492 689 447 689 q 592 661 551 689 q 652 588 632 633 q 672 493 672 543 l 672 124 q 702 72 672 89 q 779 53 732 56 l 779 0 l 443 0 l 443 53 q 520 72 490 56 q 550 124 550 89 l 550 435 q 515 555 550 517 q 417 593 479 593 q 337 573 376 593 q 271 525 297 553 l 271 124 q 301 72 271 89 q 378 53 331 56 l 378 0 l 42 0 l 42 53 q 119 72 89 56 q 149 124 149 89 l 149 532 m 343 994 q 390 980 371 994 q 426 946 410 965 q 460 912 443 926 q 497 897 476 897 q 538 922 521 897 q 578 997 556 946 l 629 974 q 554 838 590 872 q 482 803 518 803 q 435 817 456 803 q 399 851 415 832 q 365 885 382 871 q 328 900 349 900 q 286 876 304 900 q 244 800 268 851 l 193 824 q 270 960 232 926 q 343 994 308 994 z "},"ŋ":{"ha":781,"x_min":42,"x_max":672,"o":"m 672 -18 q 647 -143 672 -86 q 572 -247 621 -200 q 453 -333 524 -294 l 421 -297 q 500 -197 472 -244 q 539 -94 528 -149 q 550 26 550 -40 l 550 435 q 515 555 550 517 q 417 593 479 593 q 337 573 376 593 q 271 525 297 553 l 271 124 q 301 72 271 89 q 378 53 331 56 l 378 0 l 42 0 l 42 53 q 119 72 89 56 q 149 124 149 89 l 149 532 l 43 593 l 43 617 l 246 689 l 271 689 l 271 575 q 334 629 300 603 q 408 672 368 656 q 492 689 447 689 q 592 661 551 689 q 652 588 632 633 q 672 493 672 543 l 672 -18 z "},"ó":{"ha":717,"x_min":44,"x_max":672,"o":"m 44 325 q 83 508 44 425 q 193 640 122 590 q 358 689 264 689 q 521 647 450 689 q 632 528 592 604 q 672 351 672 451 q 633 169 672 253 q 524 36 594 86 q 358 -14 453 -14 q 197 29 268 -14 q 85 149 125 72 q 44 325 44 225 m 175 376 q 200 220 175 296 q 269 97 225 144 q 372 49 314 49 q 502 117 463 49 q 542 299 542 185 q 517 456 542 381 q 446 578 492 531 q 339 626 400 626 q 215 558 254 626 q 175 376 175 490 m 418 1010 q 462 1049 438 1042 q 506 1049 486 1057 q 538 1022 526 1040 q 544 979 549 1003 q 511 933 539 956 l 313 776 l 283 801 l 418 1010 z "},"ŏ":{"ha":717,"x_min":44,"x_max":672,"o":"m 44 325 q 83 508 44 425 q 193 640 122 590 q 358 689 264 689 q 521 647 450 689 q 632 528 592 604 q 672 351 672 451 q 633 169 672 253 q 524 36 594 86 q 358 -14 453 -14 q 197 29 268 -14 q 85 149 125 72 q 44 325 44 225 m 175 376 q 200 220 175 296 q 269 97 225 144 q 372 49 314 49 q 502 117 463 49 q 542 299 542 185 q 517 456 542 381 q 446 578 492 531 q 339 626 400 626 q 215 558 254 626 q 175 376 175 490 m 358 875 q 439 915 404 875 q 485 1033 474 956 l 543 1025 q 485 842 533 907 q 358 776 436 776 q 232 842 281 776 q 174 1025 183 907 l 232 1033 q 278 915 243 956 q 358 875 313 875 z "},"ô":{"ha":717,"x_min":44,"x_max":672,"o":"m 44 325 q 83 508 44 425 q 193 640 122 590 q 358 689 264 689 q 521 647 450 689 q 632 528 592 604 q 672 351 672 451 q 633 169 672 253 q 524 36 594 86 q 358 -14 453 -14 q 197 29 268 -14 q 85 149 125 72 q 44 325 44 225 m 175 376 q 200 220 175 296 q 269 97 225 144 q 372 49 314 49 q 502 117 463 49 q 542 299 542 185 q 517 456 542 381 q 446 578 492 531 q 339 626 400 626 q 215 558 254 626 q 175 376 175 490 m 406 1024 l 546 793 l 506 763 l 358 932 l 211 763 l 171 793 l 311 1024 q 358 1050 326 1050 q 406 1024 390 1050 z "},"ö":{"ha":717,"x_min":44,"x_max":672,"o":"m 44 325 q 83 508 44 425 q 193 640 122 590 q 358 689 264 689 q 521 647 450 689 q 632 528 592 604 q 672 351 672 451 q 633 169 672 253 q 524 36 594 86 q 358 -14 453 -14 q 197 29 268 -14 q 85 149 125 72 q 44 325 44 225 m 175 376 q 200 220 175 296 q 269 97 225 144 q 372 49 314 49 q 502 117 463 49 q 542 299 542 185 q 517 456 542 381 q 446 578 492 531 q 339 626 400 626 q 215 558 254 626 q 175 376 175 490 m 235 832 q 176 856 200 832 q 151 915 151 879 q 176 973 151 949 q 235 997 200 997 q 293 973 268 997 q 318 915 318 949 q 293 856 318 879 q 235 832 268 832 m 483 832 q 425 856 450 832 q 400 915 400 879 q 425 973 400 949 q 483 997 450 997 q 542 973 518 997 q 567 915 567 949 q 542 856 567 879 q 483 832 518 832 z "},"ò":{"ha":717,"x_min":44,"x_max":672,"o":"m 44 325 q 83 508 44 425 q 193 640 122 590 q 358 689 264 689 q 521 647 450 689 q 632 528 592 604 q 672 351 672 451 q 633 169 672 253 q 524 36 594 86 q 358 -14 453 -14 q 197 29 268 -14 q 85 149 125 72 q 44 325 44 225 m 175 376 q 200 220 175 296 q 269 97 225 144 q 372 49 314 49 q 502 117 463 49 q 542 299 542 185 q 517 456 542 381 q 446 578 492 531 q 339 626 400 626 q 215 558 254 626 q 175 376 175 490 m 299 1010 l 433 801 l 404 776 l 206 933 q 173 979 178 956 q 179 1022 168 1003 q 210 1049 190 1040 q 255 1049 231 1057 q 299 1010 279 1042 z "},"ő":{"ha":717,"x_min":44,"x_max":672,"o":"m 44 325 q 83 508 44 425 q 193 640 122 590 q 358 689 264 689 q 521 647 450 689 q 632 528 592 604 q 672 351 672 451 q 633 169 672 253 q 524 36 594 86 q 358 -14 453 -14 q 197 29 268 -14 q 85 149 125 72 q 44 325 44 225 m 175 376 q 200 220 175 296 q 269 97 225 144 q 372 49 314 49 q 502 117 463 49 q 542 299 542 185 q 517 456 542 381 q 446 578 492 531 q 339 626 400 626 q 215 558 254 626 q 175 376 175 490 m 271 990 q 304 1042 283 1028 q 346 1054 325 1057 q 381 1035 367 1051 q 397 996 396 1019 q 375 944 397 972 l 240 776 l 206 792 l 271 990 m 497 990 q 531 1042 510 1028 q 572 1054 551 1057 q 608 1035 593 1051 q 623 996 622 1019 q 601 944 624 972 l 467 776 l 432 792 l 497 990 z "},"ō":{"ha":717,"x_min":44,"x_max":672,"o":"m 44 325 q 83 508 44 425 q 193 640 122 590 q 358 689 264 689 q 521 647 450 689 q 632 528 592 604 q 672 351 672 451 q 633 169 672 253 q 524 36 594 86 q 358 -14 453 -14 q 197 29 268 -14 q 85 149 125 72 q 44 325 44 225 m 175 376 q 200 220 175 296 q 269 97 225 144 q 372 49 314 49 q 502 117 463 49 q 542 299 542 185 q 517 456 542 381 q 446 578 492 531 q 339 626 400 626 q 215 558 254 626 q 175 376 175 490 m 196 842 l 196 922 l 521 922 l 521 842 l 196 842 z "},"ø":{"ha":717,"x_min":44,"x_max":672,"o":"m 44 325 q 83 508 44 425 q 193 640 122 590 q 358 689 264 689 q 455 675 410 689 q 536 636 500 661 l 596 718 l 653 681 l 588 590 q 650 486 628 547 q 672 351 672 425 q 633 169 672 253 q 524 36 594 86 q 358 -14 453 -14 q 266 -1 310 -14 q 186 36 222 13 l 121 -56 l 64 -18 l 133 79 q 68 186 92 124 q 44 325 44 249 m 172 376 q 215 176 172 267 l 468 554 q 410 607 442 588 q 339 626 378 626 q 213 558 253 626 q 172 376 172 490 m 544 299 q 535 399 544 350 q 506 492 525 449 l 253 115 q 307 67 276 85 q 372 49 338 49 q 503 117 463 49 q 544 299 544 185 z "},"ǿ":{"ha":717,"x_min":44,"x_max":672,"o":"m 44 325 q 83 508 44 425 q 193 640 122 590 q 358 689 264 689 q 455 675 410 689 q 536 636 500 661 l 596 718 l 653 681 l 588 590 q 650 486 628 547 q 672 351 672 425 q 633 169 672 253 q 524 36 594 86 q 358 -14 453 -14 q 266 -1 310 -14 q 186 36 222 13 l 121 -56 l 64 -18 l 133 79 q 68 186 92 124 q 44 325 44 249 m 172 376 q 215 176 172 267 l 468 554 q 410 607 442 588 q 339 626 378 626 q 213 558 253 626 q 172 376 172 490 m 544 299 q 535 399 544 350 q 506 492 525 449 l 253 115 q 307 67 276 85 q 372 49 338 49 q 503 117 463 49 q 544 299 544 185 m 418 1010 q 462 1049 438 1042 q 506 1049 486 1057 q 538 1022 526 1040 q 544 979 549 1003 q 511 933 539 956 l 313 776 l 283 801 l 418 1010 z "},"õ":{"ha":717,"x_min":44,"x_max":672,"o":"m 44 325 q 83 508 44 425 q 193 640 122 590 q 358 689 264 689 q 521 647 450 689 q 632 528 592 604 q 672 351 672 451 q 633 169 672 253 q 524 36 594 86 q 358 -14 453 -14 q 197 29 268 -14 q 85 149 125 72 q 44 325 44 225 m 175 376 q 200 220 175 296 q 269 97 225 144 q 372 49 314 49 q 502 117 463 49 q 542 299 542 185 q 517 456 542 381 q 446 578 492 531 q 339 626 400 626 q 215 558 254 626 q 175 376 175 490 m 290 994 q 338 980 318 994 q 374 946 357 965 q 407 912 390 926 q 444 897 424 897 q 485 922 468 897 q 525 997 503 946 l 576 974 q 501 838 538 872 q 429 803 465 803 q 383 817 403 803 q 346 851 363 832 q 313 885 329 871 q 275 900 296 900 q 233 876 251 900 q 192 800 215 851 l 140 824 q 217 960 179 926 q 290 994 256 994 z "},"œ":{"ha":1131,"x_min":44,"x_max":1096,"o":"m 44 325 q 83 508 44 425 q 193 640 122 590 q 358 689 264 689 q 502 654 440 689 q 604 558 564 619 q 704 654 644 619 q 835 689 764 689 q 950 663 901 689 q 1029 592 999 636 q 1074 497 1060 549 q 1089 397 1089 446 l 644 397 l 644 381 q 674 238 644 301 q 758 136 704 174 q 881 99 811 99 q 977 117 929 99 q 1065 181 1025 135 l 1096 154 q 996 34 1061 82 q 840 -14 931 -14 q 703 22 764 -14 q 601 118 642 57 q 499 22 561 58 q 358 -14 438 -14 q 197 29 268 -14 q 85 149 125 72 q 44 325 44 225 m 175 376 q 200 220 175 296 q 269 97 225 144 q 372 49 314 49 q 502 117 463 49 q 542 299 542 185 q 517 456 542 381 q 446 578 492 531 q 339 626 400 626 q 215 558 254 626 q 175 376 175 490 m 813 624 q 715 581 760 624 q 653 460 669 539 l 954 460 q 938 539 954 501 q 891 600 922 576 q 813 624 860 624 z "},"ŕ":{"ha":576,"x_min":42,"x_max":563,"o":"m 406 53 l 406 0 l 42 0 l 42 53 q 119 72 89 56 q 149 124 149 89 l 149 532 l 43 593 l 43 617 l 246 689 l 271 689 l 271 560 q 369 649 321 608 q 468 689 417 689 q 520 672 500 689 q 551 631 540 656 q 563 581 561 606 l 467 514 l 446 514 q 414 559 429 543 q 375 575 399 575 q 324 556 353 575 q 271 511 296 538 l 271 124 q 302 74 271 89 q 406 53 333 58 m 404 1010 q 448 1049 424 1042 q 492 1049 472 1057 q 524 1022 513 1040 q 530 979 535 1003 q 497 933 525 956 l 299 776 l 269 801 l 404 1010 z "},"ř":{"ha":576,"x_min":42,"x_max":563,"o":"m 406 53 l 406 0 l 42 0 l 42 53 q 119 72 89 56 q 149 124 149 89 l 149 532 l 43 593 l 43 617 l 246 689 l 271 689 l 271 560 q 369 649 321 608 q 468 689 417 689 q 520 672 500 689 q 551 631 540 656 q 563 581 561 606 l 467 514 l 446 514 q 414 559 429 543 q 375 575 399 575 q 324 556 353 575 q 271 511 296 538 l 271 124 q 302 74 271 89 q 406 53 333 58 m 392 801 q 344 775 376 775 q 297 801 313 775 l 157 1032 l 197 1063 l 344 893 l 492 1063 l 532 1032 l 392 801 z "},"ŗ":{"ha":576,"x_min":42,"x_max":563,"o":"m 406 53 l 406 0 l 42 0 l 42 53 q 119 72 89 56 q 149 124 149 89 l 149 532 l 43 593 l 43 617 l 246 689 l 271 689 l 271 560 q 369 649 321 608 q 468 689 417 689 q 520 672 500 689 q 551 631 540 656 q 563 581 561 606 l 467 514 l 446 514 q 414 559 429 543 q 375 575 399 575 q 324 556 353 575 q 271 511 296 538 l 271 124 q 302 74 271 89 q 406 53 333 58 m 219 -231 q 206 -210 219 -215 q 176 -199 193 -204 q 147 -183 160 -194 q 133 -146 133 -172 q 158 -92 133 -111 q 215 -72 183 -72 q 283 -101 257 -72 q 310 -175 310 -131 q 287 -254 310 -218 q 221 -314 264 -290 q 114 -342 178 -337 l 100 -292 q 194 -269 169 -285 q 219 -231 219 -253 z "},"ś":{"ha":569,"x_min":57,"x_max":525,"o":"m 292 625 q 213 597 242 625 q 185 526 185 568 q 209 466 185 490 q 272 424 233 442 q 355 388 311 406 q 438 347 399 371 q 501 286 476 322 q 525 196 525 250 q 493 89 525 136 q 406 14 461 42 q 279 -14 351 -14 q 155 8 217 -14 q 57 64 93 31 l 57 235 l 114 235 q 176 97 133 142 q 285 51 219 51 q 378 83 343 51 q 414 161 414 114 q 390 227 414 201 q 327 272 365 253 q 245 308 289 290 q 163 349 201 326 q 101 407 125 372 q 76 494 76 442 q 106 595 76 551 q 185 664 135 639 q 299 689 236 689 q 410 672 360 689 q 494 629 460 654 l 494 464 l 436 464 q 389 581 422 536 q 292 625 356 625 m 361 1010 q 405 1049 381 1042 q 449 1049 429 1057 q 481 1022 469 1040 q 487 979 492 1003 q 454 933 482 956 l 256 776 l 226 801 l 361 1010 z "},"š":{"ha":569,"x_min":57,"x_max":525,"o":"m 292 625 q 213 597 242 625 q 185 526 185 568 q 209 466 185 490 q 272 424 233 442 q 355 388 311 406 q 438 347 399 371 q 501 286 476 322 q 525 196 525 250 q 493 89 525 136 q 406 14 461 42 q 279 -14 351 -14 q 155 8 217 -14 q 57 64 93 31 l 57 235 l 114 235 q 176 97 133 142 q 285 51 219 51 q 378 83 343 51 q 414 161 414 114 q 390 227 414 201 q 327 272 365 253 q 245 308 289 290 q 163 349 201 326 q 101 407 125 372 q 76 494 76 442 q 106 595 76 551 q 185 664 135 639 q 299 689 236 689 q 410 672 360 689 q 494 629 460 654 l 494 464 l 436 464 q 389 581 422 536 q 292 625 356 625 m 349 801 q 301 775 333 775 q 254 801 269 775 l 114 1032 l 154 1063 l 301 893 l 449 1063 l 489 1032 l 349 801 z "},"ş":{"ha":569,"x_min":57,"x_max":525,"o":"m 122 -325 l 131 -271 q 260 -272 213 -289 q 308 -219 308 -254 q 272 -167 308 -182 q 174 -146 236 -151 l 226 -10 q 131 17 176 -3 q 57 64 86 38 l 57 235 l 114 235 q 285 51 153 51 q 378 83 343 51 q 414 161 414 114 q 390 227 414 201 q 327 272 365 253 q 245 308 289 290 q 163 349 201 326 q 101 407 125 372 q 76 494 76 442 q 106 595 76 551 q 185 664 135 639 q 299 689 236 689 q 410 672 360 689 q 494 629 460 654 l 494 464 l 436 464 q 389 581 422 536 q 292 625 356 625 q 213 597 242 625 q 185 526 185 568 q 209 466 185 490 q 272 424 233 442 q 355 388 311 406 q 438 347 399 371 q 501 286 476 322 q 525 196 525 250 q 493 89 525 136 q 406 14 461 42 q 279 -14 351 -14 l 275 -14 l 251 -79 q 361 -115 317 -86 q 406 -192 406 -143 q 367 -281 406 -246 q 263 -327 328 -315 q 122 -325 199 -339 z "},"ŝ":{"ha":569,"x_min":57,"x_max":525,"o":"m 292 625 q 213 597 242 625 q 185 526 185 568 q 209 466 185 490 q 272 424 233 442 q 355 388 311 406 q 438 347 399 371 q 501 286 476 322 q 525 196 525 250 q 493 89 525 136 q 406 14 461 42 q 279 -14 351 -14 q 155 8 217 -14 q 57 64 93 31 l 57 235 l 114 235 q 176 97 133 142 q 285 51 219 51 q 378 83 343 51 q 414 161 414 114 q 390 227 414 201 q 327 272 365 253 q 245 308 289 290 q 163 349 201 326 q 101 407 125 372 q 76 494 76 442 q 106 595 76 551 q 185 664 135 639 q 299 689 236 689 q 410 672 360 689 q 494 629 460 654 l 494 464 l 436 464 q 389 581 422 536 q 292 625 356 625 m 349 1024 l 489 793 l 449 763 l 301 932 l 154 763 l 114 793 l 254 1024 q 301 1050 269 1050 q 349 1024 333 1050 z "},"ș":{"ha":569,"x_min":57,"x_max":525,"o":"m 292 625 q 213 597 242 625 q 185 526 185 568 q 209 466 185 490 q 272 424 233 442 q 355 388 311 406 q 438 347 399 371 q 501 286 476 322 q 525 196 525 250 q 493 89 525 136 q 406 14 461 42 q 279 -14 351 -14 q 155 8 217 -14 q 57 64 93 31 l 57 235 l 114 235 q 176 97 133 142 q 285 51 219 51 q 378 83 343 51 q 414 161 414 114 q 390 227 414 201 q 327 272 365 253 q 245 308 289 290 q 163 349 201 326 q 101 407 125 372 q 76 494 76 442 q 106 595 76 551 q 185 664 135 639 q 299 689 236 689 q 410 672 360 689 q 494 629 460 654 l 494 464 l 436 464 q 389 581 422 536 q 292 625 356 625 m 278 -231 q 265 -210 278 -215 q 235 -199 251 -204 q 205 -183 218 -194 q 192 -146 192 -172 q 217 -92 192 -111 q 274 -72 242 -72 q 342 -101 315 -72 q 368 -175 368 -131 q 345 -254 368 -218 q 279 -314 322 -290 q 172 -342 236 -337 l 158 -292 q 253 -269 228 -285 q 278 -231 278 -253 z "},"ŧ":{"ha":547,"x_min":29,"x_max":467,"o":"m 32 369 l 32 438 l 131 438 l 131 599 l 29 599 l 29 640 q 94 688 61 658 q 156 754 126 717 q 203 833 185 792 l 253 833 l 253 675 l 463 675 l 463 599 l 253 599 l 253 438 l 461 438 l 461 369 l 253 369 l 253 164 q 285 99 253 119 q 367 78 318 78 q 417 82 389 78 q 467 92 446 86 l 467 33 q 383 -1 432 11 q 290 -14 335 -14 q 205 3 240 -14 q 150 51 169 21 q 131 117 131 81 l 131 369 l 32 369 z "},"ť":{"ha":483,"x_min":15,"x_max":471,"o":"m 239 833 l 239 675 l 449 675 l 449 599 l 239 599 l 239 164 q 272 99 239 119 q 353 78 304 78 q 403 82 375 78 q 453 92 432 86 l 453 33 q 369 -1 418 11 q 276 -14 321 -14 q 191 3 226 -14 q 136 51 156 21 q 117 117 117 81 l 117 599 l 15 599 l 15 640 q 80 688 47 658 q 142 754 113 717 q 189 833 171 792 l 239 833 m 344 1007 q 367 1063 350 1044 q 406 1082 385 1081 q 444 1071 428 1083 q 466 1035 461 1058 q 456 979 471 1011 l 344 747 l 307 757 l 344 1007 z "},"ţ":{"ha":483,"x_min":15,"x_max":453,"o":"m 125 -325 l 133 -271 q 263 -272 215 -289 q 311 -219 311 -254 q 275 -167 311 -182 q 176 -146 239 -151 l 229 -10 q 147 37 176 1 q 117 117 117 72 l 117 599 l 15 599 l 15 640 q 112 719 63 668 q 189 833 161 769 l 239 833 l 239 675 l 449 675 l 449 599 l 239 599 l 239 164 q 272 99 239 119 q 353 78 304 78 q 403 82 375 78 q 453 92 432 86 l 453 33 q 369 -1 418 11 q 278 -14 321 -14 l 254 -79 q 364 -115 319 -86 q 408 -192 408 -143 q 369 -281 408 -246 q 266 -327 331 -315 q 125 -325 201 -339 z "},"ț":{"ha":483,"x_min":15,"x_max":453,"o":"m 239 833 l 239 675 l 449 675 l 449 599 l 239 599 l 239 164 q 272 99 239 119 q 353 78 304 78 q 403 82 375 78 q 453 92 432 86 l 453 33 q 369 -1 418 11 q 276 -14 321 -14 q 191 3 226 -14 q 136 51 156 21 q 117 117 117 81 l 117 599 l 15 599 l 15 640 q 80 688 47 658 q 142 754 113 717 q 189 833 171 792 l 239 833 m 281 -231 q 267 -210 281 -215 q 238 -199 254 -204 q 208 -183 221 -194 q 194 -146 194 -172 q 219 -92 194 -111 q 276 -72 244 -72 q 344 -101 318 -72 q 371 -175 371 -131 q 348 -254 371 -218 q 282 -314 325 -290 q 175 -342 239 -337 l 161 -292 q 256 -269 231 -285 q 281 -231 281 -253 z "},"þ":{"ha":744,"x_min":-6,"x_max":700,"o":"m 224 1064 l 224 576 q 324 656 264 622 q 446 690 383 690 q 579 651 522 690 q 668 541 636 611 q 700 381 700 471 q 672 213 700 286 q 593 90 643 140 q 478 13 543 39 q 342 -14 414 -14 q 281 -9 311 -14 q 224 4 251 -4 l 224 -196 q 257 -246 224 -231 q 358 -267 290 -261 l 358 -319 l -6 -319 l -6 -267 q 72 -247 42 -264 q 101 -196 101 -231 l 101 857 q 92 905 101 888 q 50 938 83 922 l -4 963 l -4 992 l 200 1064 l 224 1064 m 224 533 l 224 211 q 270 91 224 132 q 381 50 317 50 q 484 85 439 50 q 555 183 529 121 q 581 322 581 244 q 527 520 581 449 q 374 592 474 592 q 292 576 335 592 q 224 533 249 561 z "},"ú":{"ha":768,"x_min":13,"x_max":744,"o":"m 633 675 l 633 146 q 646 96 633 113 q 693 75 658 79 l 744 68 l 744 17 l 542 -14 l 513 -14 l 513 100 q 417 23 471 60 q 299 -14 364 -14 q 199 13 240 -14 q 137 85 158 40 q 115 183 115 131 l 115 531 q 90 582 115 571 q 13 599 64 593 l 13 654 l 238 675 l 238 238 q 272 118 238 156 q 371 81 307 81 q 449 101 411 81 q 511 147 486 121 l 511 531 q 485 582 511 571 q 408 599 460 593 l 408 654 l 633 675 m 438 1010 q 481 1049 457 1042 q 526 1049 506 1057 q 557 1022 546 1040 q 563 979 568 1003 q 531 933 558 956 l 332 776 l 303 801 l 438 1010 z "},"ŭ":{"ha":768,"x_min":13,"x_max":744,"o":"m 633 675 l 633 146 q 646 96 633 113 q 693 75 658 79 l 744 68 l 744 17 l 542 -14 l 513 -14 l 513 100 q 417 23 471 60 q 299 -14 364 -14 q 199 13 240 -14 q 137 85 158 40 q 115 183 115 131 l 115 531 q 90 582 115 571 q 13 599 64 593 l 13 654 l 238 675 l 238 238 q 272 118 238 156 q 371 81 307 81 q 449 101 411 81 q 511 147 486 121 l 511 531 q 485 582 511 571 q 408 599 460 593 l 408 654 l 633 675 m 378 875 q 458 915 424 875 q 504 1033 493 956 l 563 1025 q 504 842 553 907 q 378 776 456 776 q 251 842 300 776 q 193 1025 203 907 l 251 1033 q 297 915 263 956 q 378 875 332 875 z "},"û":{"ha":768,"x_min":13,"x_max":744,"o":"m 633 675 l 633 146 q 646 96 633 113 q 693 75 658 79 l 744 68 l 744 17 l 542 -14 l 513 -14 l 513 100 q 417 23 471 60 q 299 -14 364 -14 q 199 13 240 -14 q 137 85 158 40 q 115 183 115 131 l 115 531 q 90 582 115 571 q 13 599 64 593 l 13 654 l 238 675 l 238 238 q 272 118 238 156 q 371 81 307 81 q 449 101 411 81 q 511 147 486 121 l 511 531 q 485 582 511 571 q 408 599 460 593 l 408 654 l 633 675 m 425 1024 l 565 793 l 525 763 l 378 932 l 231 763 l 190 793 l 331 1024 q 378 1050 346 1050 q 425 1024 410 1050 z "},"ü":{"ha":768,"x_min":13,"x_max":744,"o":"m 633 675 l 633 146 q 646 96 633 113 q 693 75 658 79 l 744 68 l 744 17 l 542 -14 l 513 -14 l 513 100 q 417 23 471 60 q 299 -14 364 -14 q 199 13 240 -14 q 137 85 158 40 q 115 183 115 131 l 115 531 q 90 582 115 571 q 13 599 64 593 l 13 654 l 238 675 l 238 238 q 272 118 238 156 q 371 81 307 81 q 449 101 411 81 q 511 147 486 121 l 511 531 q 485 582 511 571 q 408 599 460 593 l 408 654 l 633 675 m 254 832 q 195 856 219 832 q 171 915 171 879 q 195 973 171 949 q 254 997 219 997 q 313 973 288 997 q 338 915 338 949 q 313 856 338 879 q 254 832 288 832 m 503 832 q 444 856 469 832 q 419 915 419 879 q 444 973 419 949 q 503 997 469 997 q 562 973 538 997 q 586 915 586 949 q 562 856 586 879 q 503 832 538 832 z "},"ù":{"ha":768,"x_min":13,"x_max":744,"o":"m 633 675 l 633 146 q 646 96 633 113 q 693 75 658 79 l 744 68 l 744 17 l 542 -14 l 513 -14 l 513 100 q 417 23 471 60 q 299 -14 364 -14 q 199 13 240 -14 q 137 85 158 40 q 115 183 115 131 l 115 531 q 90 582 115 571 q 13 599 64 593 l 13 654 l 238 675 l 238 238 q 272 118 238 156 q 371 81 307 81 q 449 101 411 81 q 511 147 486 121 l 511 531 q 485 582 511 571 q 408 599 460 593 l 408 654 l 633 675 m 318 1010 l 453 801 l 424 776 l 225 933 q 192 979 197 956 q 199 1022 188 1003 q 230 1049 210 1040 q 274 1049 250 1057 q 318 1010 299 1042 z "},"ű":{"ha":768,"x_min":13,"x_max":744,"o":"m 633 675 l 633 146 q 646 96 633 113 q 693 75 658 79 l 744 68 l 744 17 l 542 -14 l 513 -14 l 513 100 q 417 23 471 60 q 299 -14 364 -14 q 199 13 240 -14 q 137 85 158 40 q 115 183 115 131 l 115 531 q 90 582 115 571 q 13 599 64 593 l 13 654 l 238 675 l 238 238 q 272 118 238 156 q 371 81 307 81 q 449 101 411 81 q 511 147 486 121 l 511 531 q 485 582 511 571 q 408 599 460 593 l 408 654 l 633 675 m 290 990 q 324 1042 303 1028 q 365 1054 344 1057 q 401 1035 386 1051 q 416 996 415 1019 q 394 944 417 972 l 260 776 l 225 792 l 290 990 m 517 990 q 550 1042 529 1028 q 592 1054 571 1057 q 627 1035 613 1051 q 642 996 642 1019 q 621 944 643 972 l 486 776 l 451 792 l 517 990 z "},"ū":{"ha":768,"x_min":13,"x_max":744,"o":"m 633 675 l 633 146 q 646 96 633 113 q 693 75 658 79 l 744 68 l 744 17 l 542 -14 l 513 -14 l 513 100 q 417 23 471 60 q 299 -14 364 -14 q 199 13 240 -14 q 137 85 158 40 q 115 183 115 131 l 115 531 q 90 582 115 571 q 13 599 64 593 l 13 654 l 238 675 l 238 238 q 272 118 238 156 q 371 81 307 81 q 449 101 411 81 q 511 147 486 121 l 511 531 q 485 582 511 571 q 408 599 460 593 l 408 654 l 633 675 m 215 842 l 215 922 l 540 922 l 540 842 l 215 842 z "},"ų":{"ha":768,"x_min":13,"x_max":744,"o":"m 633 675 l 633 146 q 646 96 633 113 q 693 75 658 79 l 744 68 l 744 17 q 619 -11 672 10 q 533 -61 567 -32 q 483 -123 499 -90 q 467 -185 467 -156 q 484 -237 467 -218 q 536 -257 501 -257 q 602 -238 572 -257 q 667 -185 632 -219 l 694 -218 q 615 -297 664 -260 q 504 -333 565 -333 q 413 -301 450 -333 q 375 -211 375 -268 q 415 -104 375 -154 q 513 -14 456 -54 l 513 100 q 417 23 471 60 q 299 -14 364 -14 q 199 13 240 -14 q 137 85 158 40 q 115 183 115 131 l 115 531 q 90 582 115 571 q 13 599 64 593 l 13 654 l 238 675 l 238 238 q 272 118 238 156 q 371 81 307 81 q 449 101 411 81 q 511 147 486 121 l 511 531 q 485 582 511 571 q 408 599 460 593 l 408 654 l 633 675 z "},"ů":{"ha":768,"x_min":13,"x_max":744,"o":"m 633 675 l 633 146 q 646 96 633 113 q 693 75 658 79 l 744 68 l 744 17 l 542 -14 l 513 -14 l 513 100 q 417 23 471 60 q 299 -14 364 -14 q 199 13 240 -14 q 137 85 158 40 q 115 183 115 131 l 115 531 q 90 582 115 571 q 13 599 64 593 l 13 654 l 238 675 l 238 238 q 272 118 238 156 q 371 81 307 81 q 449 101 411 81 q 511 147 486 121 l 511 531 q 485 582 511 571 q 408 599 460 593 l 408 654 l 633 675 m 235 919 q 254 992 235 960 q 306 1043 274 1024 q 378 1063 339 1063 q 449 1043 417 1063 q 501 992 482 1024 q 521 919 521 960 q 501 848 521 881 q 449 796 482 815 q 378 776 417 776 q 306 796 339 776 q 254 848 274 815 q 235 919 235 881 m 460 919 q 435 980 460 956 q 378 1004 411 1004 q 320 980 344 1004 q 296 919 296 956 q 320 859 296 883 q 378 835 344 835 q 435 859 411 835 q 460 919 460 883 z "},"ũ":{"ha":768,"x_min":13,"x_max":744,"o":"m 633 675 l 633 146 q 646 96 633 113 q 693 75 658 79 l 744 68 l 744 17 l 542 -14 l 513 -14 l 513 100 q 417 23 471 60 q 299 -14 364 -14 q 199 13 240 -14 q 137 85 158 40 q 115 183 115 131 l 115 531 q 90 582 115 571 q 13 599 64 593 l 13 654 l 238 675 l 238 238 q 272 118 238 156 q 371 81 307 81 q 449 101 411 81 q 511 147 486 121 l 511 531 q 485 582 511 571 q 408 599 460 593 l 408 654 l 633 675 m 310 994 q 357 980 338 994 q 393 946 376 965 q 426 912 410 926 q 464 897 443 897 q 505 922 488 897 q 544 997 522 946 l 596 974 q 521 838 557 872 q 449 803 485 803 q 402 817 422 803 q 365 851 382 832 q 332 885 349 871 q 294 900 315 900 q 253 876 271 900 q 211 800 235 851 l 160 824 q 237 960 199 926 q 310 994 275 994 z "},"ẃ":{"ha":1060,"x_min":7,"x_max":1053,"o":"m 318 -15 l 100 551 q 65 603 86 588 q 7 622 43 619 l 7 675 l 336 675 l 336 622 q 241 598 271 617 q 231 526 211 579 l 372 143 l 497 488 l 475 551 q 440 603 463 588 q 382 622 418 619 l 382 675 l 703 675 l 703 622 q 608 598 638 617 q 597 526 579 579 l 728 143 l 874 526 q 863 597 893 578 q 768 622 833 617 l 768 675 l 1053 675 l 1053 622 q 996 603 1017 619 q 960 551 975 588 l 729 -15 l 674 -15 l 529 396 l 374 -15 l 318 -15 m 590 1010 q 634 1049 610 1042 q 678 1049 658 1057 q 710 1022 699 1040 q 716 979 721 1003 q 683 933 711 956 l 485 776 l 456 801 l 590 1010 z "},"ŵ":{"ha":1060,"x_min":7,"x_max":1053,"o":"m 318 -15 l 100 551 q 65 603 86 588 q 7 622 43 619 l 7 675 l 336 675 l 336 622 q 241 598 271 617 q 231 526 211 579 l 372 143 l 497 488 l 475 551 q 440 603 463 588 q 382 622 418 619 l 382 675 l 703 675 l 703 622 q 608 598 638 617 q 597 526 579 579 l 728 143 l 874 526 q 863 597 893 578 q 768 622 833 617 l 768 675 l 1053 675 l 1053 622 q 996 603 1017 619 q 960 551 975 588 l 729 -15 l 674 -15 l 529 396 l 374 -15 l 318 -15 m 578 1024 l 718 793 l 678 763 l 531 932 l 383 763 l 343 793 l 483 1024 q 531 1050 499 1050 q 578 1024 563 1050 z "},"ẁ":{"ha":1060,"x_min":7,"x_max":1053,"o":"m 318 -15 l 100 551 q 65 603 86 588 q 7 622 43 619 l 7 675 l 336 675 l 336 622 q 241 598 271 617 q 231 526 211 579 l 372 143 l 497 488 l 475 551 q 440 603 463 588 q 382 622 418 619 l 382 675 l 703 675 l 703 622 q 608 598 638 617 q 597 526 579 579 l 728 143 l 874 526 q 863 597 893 578 q 768 622 833 617 l 768 675 l 1053 675 l 1053 622 q 996 603 1017 619 q 960 551 975 588 l 729 -15 l 674 -15 l 529 396 l 374 -15 l 318 -15 m 471 1010 l 606 801 l 576 776 l 378 933 q 345 979 350 956 q 351 1022 340 1003 q 383 1049 363 1040 q 427 1049 403 1057 q 471 1010 451 1042 z "},"ẅ":{"ha":1060,"x_min":7,"x_max":1053,"o":"m 318 -15 l 100 551 q 65 603 86 588 q 7 622 43 619 l 7 675 l 336 675 l 336 622 q 241 598 271 617 q 231 526 211 579 l 372 143 l 497 488 l 475 551 q 440 603 463 588 q 382 622 418 619 l 382 675 l 703 675 l 703 622 q 608 598 638 617 q 597 526 579 579 l 728 143 l 874 526 q 863 597 893 578 q 768 622 833 617 l 768 675 l 1053 675 l 1053 622 q 996 603 1017 619 q 960 551 975 588 l 729 -15 l 674 -15 l 529 396 l 374 -15 l 318 -15 m 407 832 q 348 856 372 832 q 324 915 324 879 q 348 973 324 949 q 407 997 372 997 q 465 973 440 997 q 490 915 490 949 q 465 856 490 879 q 407 832 440 832 m 656 832 q 597 856 622 832 q 572 915 572 879 q 597 973 572 949 q 656 997 622 997 q 715 973 690 997 q 739 915 739 949 q 715 856 739 879 q 656 832 690 832 z "},"ý":{"ha":717,"x_min":7,"x_max":710,"o":"m 325 -3 l 100 551 q 65 603 86 588 q 7 622 43 619 l 7 675 l 335 675 l 335 622 q 242 597 269 617 q 235 526 215 578 l 382 144 l 529 526 q 522 597 549 578 q 429 622 494 617 l 429 675 l 710 675 l 710 622 q 653 603 674 619 q 617 551 632 588 l 363 -69 q 297 -207 331 -147 q 221 -300 263 -267 q 121 -333 179 -333 q 42 -306 76 -333 q 8 -237 8 -278 q 31 -177 8 -201 q 88 -153 53 -153 q 131 -165 117 -153 q 152 -191 144 -176 q 167 -217 160 -206 q 188 -229 174 -229 q 215 -218 201 -229 q 249 -173 229 -207 q 296 -71 268 -139 l 325 -3 m 433 1010 q 477 1049 453 1042 q 522 1049 501 1057 q 553 1022 542 1040 q 559 979 564 1003 q 526 933 554 956 l 328 776 l 299 801 l 433 1010 z "},"ŷ":{"ha":717,"x_min":7,"x_max":710,"o":"m 325 -3 l 100 551 q 65 603 86 588 q 7 622 43 619 l 7 675 l 335 675 l 335 622 q 242 597 269 617 q 235 526 215 578 l 382 144 l 529 526 q 522 597 549 578 q 429 622 494 617 l 429 675 l 710 675 l 710 622 q 653 603 674 619 q 617 551 632 588 l 363 -69 q 297 -207 331 -147 q 221 -300 263 -267 q 121 -333 179 -333 q 42 -306 76 -333 q 8 -237 8 -278 q 31 -177 8 -201 q 88 -153 53 -153 q 131 -165 117 -153 q 152 -191 144 -176 q 167 -217 160 -206 q 188 -229 174 -229 q 215 -218 201 -229 q 249 -173 229 -207 q 296 -71 268 -139 l 325 -3 m 421 1024 l 561 793 l 521 763 l 374 932 l 226 763 l 186 793 l 326 1024 q 374 1050 342 1050 q 421 1024 406 1050 z "},"ÿ":{"ha":717,"x_min":7,"x_max":710,"o":"m 325 -3 l 100 551 q 65 603 86 588 q 7 622 43 619 l 7 675 l 335 675 l 335 622 q 242 597 269 617 q 235 526 215 578 l 382 144 l 529 526 q 522 597 549 578 q 429 622 494 617 l 429 675 l 710 675 l 710 622 q 653 603 674 619 q 617 551 632 588 l 363 -69 q 297 -207 331 -147 q 221 -300 263 -267 q 121 -333 179 -333 q 42 -306 76 -333 q 8 -237 8 -278 q 31 -177 8 -201 q 88 -153 53 -153 q 131 -165 117 -153 q 152 -191 144 -176 q 167 -217 160 -206 q 188 -229 174 -229 q 215 -218 201 -229 q 249 -173 229 -207 q 296 -71 268 -139 l 325 -3 m 250 832 q 191 856 215 832 q 167 915 167 879 q 191 973 167 949 q 250 997 215 997 q 308 973 283 997 q 333 915 333 949 q 308 856 333 879 q 250 832 283 832 m 499 832 q 440 856 465 832 q 415 915 415 879 q 440 973 415 949 q 499 997 465 997 q 558 973 533 997 q 582 915 582 949 q 558 856 582 879 q 499 832 533 832 z "},"ỳ":{"ha":717,"x_min":7,"x_max":710,"o":"m 325 -3 l 100 551 q 65 603 86 588 q 7 622 43 619 l 7 675 l 335 675 l 335 622 q 242 597 269 617 q 235 526 215 578 l 382 144 l 529 526 q 522 597 549 578 q 429 622 494 617 l 429 675 l 710 675 l 710 622 q 653 603 674 619 q 617 551 632 588 l 363 -69 q 297 -207 331 -147 q 221 -300 263 -267 q 121 -333 179 -333 q 42 -306 76 -333 q 8 -237 8 -278 q 31 -177 8 -201 q 88 -153 53 -153 q 131 -165 117 -153 q 152 -191 144 -176 q 167 -217 160 -206 q 188 -229 174 -229 q 215 -218 201 -229 q 249 -173 229 -207 q 296 -71 268 -139 l 325 -3 m 314 1010 l 449 801 l 419 776 l 221 933 q 188 979 193 956 q 194 1022 183 1003 q 226 1049 206 1040 q 270 1049 246 1057 q 314 1010 294 1042 z "},"ź":{"ha":633,"x_min":25,"x_max":599,"o":"m 25 32 l 428 617 l 246 617 q 168 596 196 617 q 126 540 140 575 q 101 458 113 504 l 44 458 l 58 675 l 585 675 l 585 643 l 182 58 l 368 58 q 463 83 431 58 q 512 149 494 107 q 543 244 529 192 l 599 244 l 578 0 l 25 0 l 25 32 m 385 1010 q 428 1049 404 1042 q 473 1049 453 1057 q 504 1022 493 1040 q 510 979 515 1003 q 478 933 506 956 l 279 776 l 250 801 l 385 1010 z "},"ž":{"ha":633,"x_min":25,"x_max":599,"o":"m 25 32 l 428 617 l 246 617 q 168 596 196 617 q 126 540 140 575 q 101 458 113 504 l 44 458 l 58 675 l 585 675 l 585 643 l 182 58 l 368 58 q 463 83 431 58 q 512 149 494 107 q 543 244 529 192 l 599 244 l 578 0 l 25 0 l 25 32 m 372 801 q 325 775 357 775 q 278 801 293 775 l 138 1032 l 178 1063 l 325 893 l 472 1063 l 513 1032 l 372 801 z "},"ż":{"ha":633,"x_min":25,"x_max":599,"o":"m 25 32 l 428 617 l 246 617 q 168 596 196 617 q 126 540 140 575 q 101 458 113 504 l 44 458 l 58 675 l 585 675 l 585 643 l 182 58 l 368 58 q 463 83 431 58 q 512 149 494 107 q 543 244 529 192 l 599 244 l 578 0 l 25 0 l 25 32 m 325 832 q 263 858 289 832 q 238 919 238 883 q 263 981 238 956 q 325 1007 289 1007 q 387 981 361 1007 q 413 919 413 956 q 387 858 413 883 q 325 832 361 832 z "},"º":{"ha":601,"x_min":58,"x_max":543,"o":"m 58 710 q 89 847 58 785 q 174 945 119 908 q 301 982 229 982 q 425 950 371 982 q 511 861 479 918 q 543 728 543 804 q 513 592 543 654 q 428 492 482 529 q 301 456 374 456 q 178 488 233 456 q 90 578 122 521 q 58 710 58 635 m 176 747 q 193 631 176 688 q 240 540 210 575 q 311 504 271 504 q 399 555 372 504 q 426 690 426 606 q 409 807 426 751 q 361 898 392 863 q 288 933 331 933 q 203 883 229 933 q 176 747 176 833 m 90 256 l 90 333 l 511 333 l 511 256 l 90 256 z "},"ª":{"ha":588,"x_min":76,"x_max":547,"o":"m 493 533 q 517 538 506 533 q 536 546 528 542 l 547 517 q 503 474 531 493 q 444 456 476 456 q 387 474 414 456 q 349 529 360 493 q 290 482 328 508 q 201 456 253 456 q 113 488 150 456 q 76 572 76 521 q 100 645 76 615 q 164 697 124 675 q 253 735 204 718 l 349 768 l 349 839 q 326 904 349 879 q 264 929 304 929 q 215 912 231 929 q 200 871 200 894 q 206 842 200 857 q 221 810 211 828 l 131 785 q 104 805 117 790 q 92 842 92 819 q 109 894 92 869 q 156 940 126 919 q 224 971 186 960 q 303 982 263 982 q 419 949 383 982 q 454 850 454 915 l 454 575 q 466 543 454 553 q 493 533 478 533 m 185 600 q 207 550 185 569 q 261 531 229 531 q 306 538 283 531 q 349 560 329 544 l 349 718 q 268 690 306 706 q 208 654 231 675 q 185 600 185 633 m 76 256 l 76 333 l 511 333 l 511 256 l 76 256 z "},"ﬀ":{"ha":872,"x_min":42,"x_max":1017,"o":"m 271 124 q 301 72 271 89 q 378 53 331 56 l 378 0 l 42 0 l 42 53 q 119 72 89 56 q 149 124 149 89 l 149 599 l 42 599 l 42 675 l 149 675 q 174 838 149 768 q 240 956 199 908 q 335 1026 282 1003 q 442 1050 388 1050 q 528 1028 494 1050 q 561 967 561 1007 q 543 917 561 936 q 496 897 525 897 q 454 909 468 897 q 431 937 440 921 q 410 965 422 953 q 376 976 399 976 q 301 916 331 976 q 271 726 271 856 l 271 675 l 563 675 l 563 706 q 607 901 563 821 q 724 1022 651 981 q 879 1064 797 1064 q 978 1039 940 1064 q 1017 972 1017 1014 q 998 922 1017 942 q 947 903 979 903 q 902 917 918 903 q 876 950 886 932 q 852 983 865 968 q 817 997 839 997 q 753 970 783 997 q 703 886 722 943 q 685 740 685 829 l 685 675 l 851 675 l 851 599 l 685 599 l 685 124 q 716 74 685 89 q 819 53 747 58 l 819 0 l 456 0 l 456 53 q 533 72 503 56 q 563 124 563 89 l 563 599 l 271 599 l 271 124 z "},"ﬁ":{"ha":819,"x_min":42,"x_max":792,"o":"m 271 124 q 301 72 271 89 q 378 53 331 56 l 378 0 l 42 0 l 42 53 q 119 72 89 56 q 149 124 149 89 l 149 599 l 42 599 l 42 675 l 149 675 q 197 878 149 790 q 327 1015 246 965 q 508 1064 408 1064 q 619 1036 579 1064 q 660 965 660 1008 q 636 909 660 926 q 588 892 613 892 q 545 907 561 892 q 515 942 529 922 q 483 978 501 963 q 432 993 464 993 q 349 961 385 993 q 292 863 313 929 q 271 692 271 797 l 271 675 l 622 675 l 661 689 l 685 689 l 685 124 q 715 72 685 89 q 792 53 744 56 l 792 0 l 456 0 l 456 53 q 533 72 503 56 q 563 124 563 89 l 563 531 q 547 580 563 561 q 492 599 532 599 l 271 599 l 271 124 z "},"ﬃ":{"ha":1233,"x_min":42,"x_max":1206,"o":"m 271 124 q 301 72 271 89 q 378 53 331 56 l 378 0 l 42 0 l 42 53 q 119 72 89 56 q 149 124 149 89 l 149 599 l 42 599 l 42 675 l 149 675 q 174 838 149 768 q 240 956 199 908 q 335 1026 282 1003 q 442 1050 388 1050 q 528 1028 494 1050 q 561 967 561 1007 q 543 917 561 936 q 496 897 525 897 q 454 909 468 897 q 431 937 440 921 q 410 965 422 953 q 376 976 399 976 q 301 916 331 976 q 271 726 271 856 l 271 675 l 563 675 q 611 878 563 790 q 741 1015 660 965 q 922 1064 822 1064 q 1033 1036 993 1064 q 1074 965 1074 1008 q 1050 909 1074 926 q 1001 892 1026 892 q 959 907 975 892 q 929 942 943 922 q 897 978 915 963 q 846 993 878 993 q 763 961 799 993 q 706 863 726 929 q 685 692 685 797 l 685 675 l 1036 675 l 1075 689 l 1099 689 l 1099 124 q 1128 72 1099 89 q 1206 53 1158 56 l 1206 0 l 869 0 l 869 53 q 947 72 917 56 q 976 124 976 89 l 976 531 q 961 580 976 561 q 906 599 946 599 l 685 599 l 685 124 q 715 72 685 89 q 792 53 744 56 l 792 0 l 456 0 l 456 53 q 533 72 503 56 q 563 124 563 89 l 563 599 l 271 599 l 271 124 z "},"ﬂ":{"ha":824,"x_min":42,"x_max":792,"o":"m 271 124 q 301 72 271 89 q 378 53 331 56 l 378 0 l 42 0 l 42 53 q 119 72 89 56 q 149 124 149 89 l 149 599 l 42 599 l 42 675 l 149 675 q 190 892 149 806 q 302 1021 232 978 q 460 1064 372 1064 q 533 1057 494 1064 q 594 1036 571 1050 l 661 1064 l 685 1064 l 685 124 q 715 72 685 89 q 792 53 744 56 l 792 0 l 456 0 l 456 53 q 533 72 503 56 q 563 124 563 89 l 563 599 l 271 599 l 271 124 m 271 675 l 563 675 l 563 861 q 525 960 563 926 q 435 994 488 994 q 319 936 367 994 q 271 746 271 878 l 271 675 z "},"ﬄ":{"ha":1238,"x_min":42,"x_max":1206,"o":"m 271 124 q 301 72 271 89 q 378 53 331 56 l 378 0 l 42 0 l 42 53 q 119 72 89 56 q 149 124 149 89 l 149 599 l 42 599 l 42 675 l 149 675 q 174 838 149 768 q 240 956 199 908 q 335 1026 282 1003 q 442 1050 388 1050 q 528 1028 494 1050 q 561 967 561 1007 q 543 917 561 936 q 496 897 525 897 q 454 909 468 897 q 431 937 440 921 q 410 965 422 953 q 376 976 399 976 q 301 916 331 976 q 271 726 271 856 l 271 675 l 563 675 q 604 892 563 806 q 716 1021 646 978 q 874 1064 786 1064 q 947 1057 908 1064 q 1008 1036 985 1050 l 1075 1064 l 1099 1064 l 1099 124 q 1128 72 1099 89 q 1206 53 1158 56 l 1206 0 l 869 0 l 869 53 q 947 72 917 56 q 976 124 976 89 l 976 599 l 685 599 l 685 124 q 715 72 685 89 q 792 53 744 56 l 792 0 l 456 0 l 456 53 q 533 72 503 56 q 563 124 563 89 l 563 599 l 271 599 l 271 124 m 685 675 l 976 675 l 976 861 q 939 960 976 926 q 849 994 901 994 q 733 936 781 994 q 685 746 685 878 l 685 675 z "},"&":{"ha":1031,"x_min":56,"x_max":1003,"o":"m 811 0 l 688 125 q 541 24 624 61 q 360 -14 458 -14 q 213 19 282 -14 q 99 113 143 51 q 56 261 56 175 q 85 385 56 332 q 165 478 115 439 q 272 546 214 517 q 202 637 233 586 q 171 753 171 688 q 202 869 171 817 q 289 954 233 922 q 419 986 344 986 q 586 933 522 986 q 650 790 650 879 q 591 650 650 710 q 432 550 532 590 l 715 274 q 772 429 760 349 q 751 492 779 474 q 665 511 722 511 l 665 569 l 1003 569 l 1003 511 q 913 502 940 510 q 874 474 885 494 q 850 414 863 454 q 814 315 835 363 q 765 225 793 267 l 960 35 l 960 0 l 811 0 m 285 781 q 318 679 285 728 q 392 590 351 631 q 511 676 475 625 q 547 788 547 726 q 509 881 547 846 q 413 915 471 915 q 320 878 356 915 q 285 781 285 840 m 183 292 q 215 174 183 222 q 300 99 247 125 q 415 74 353 74 q 533 102 476 74 q 638 175 590 131 l 308 507 q 219 420 254 479 q 183 292 183 361 z "},"`":{"ha":694,"x_min":213,"x_max":478,"o":"m 343 1010 l 478 801 l 449 776 l 250 933 q 217 979 222 956 q 224 1022 213 1003 q 255 1049 235 1040 q 299 1049 275 1057 q 343 1010 324 1042 z "},"´":{"ha":694,"x_min":217,"x_max":482,"o":"m 351 1010 q 395 1049 371 1042 q 440 1049 419 1057 q 471 1022 460 1040 q 477 979 482 1003 q 444 933 472 956 l 246 776 l 217 801 l 351 1010 z "},"ˆ":{"ha":694,"x_min":160,"x_max":535,"o":"m 394 1024 l 535 793 l 494 763 l 347 932 l 200 763 l 160 793 l 300 1024 q 347 1050 315 1050 q 394 1024 379 1050 z "},"˜":{"ha":694,"x_min":129,"x_max":565,"o":"m 279 994 q 326 980 307 994 q 363 946 346 965 q 396 912 379 926 q 433 897 413 897 q 474 922 457 897 q 514 997 492 946 l 565 974 q 490 838 526 872 q 418 803 454 803 q 372 817 392 803 q 335 851 351 832 q 301 885 318 871 q 264 900 285 900 q 222 876 240 900 q 181 800 204 851 l 129 824 q 206 960 168 926 q 279 994 244 994 z "},"¯":{"ha":694,"x_min":185,"x_max":510,"o":"m 185 842 l 185 922 l 510 922 l 510 842 l 185 842 z "},"˘":{"ha":694,"x_min":163,"x_max":532,"o":"m 347 875 q 428 915 393 875 q 474 1033 463 956 l 532 1025 q 474 842 522 907 q 347 776 425 776 q 221 842 269 776 q 163 1025 172 907 l 221 1033 q 267 915 232 956 q 347 875 301 875 z "},"˙":{"ha":694,"x_min":260,"x_max":435,"o":"m 347 832 q 285 858 311 832 q 260 919 260 883 q 285 981 260 956 q 347 1007 311 1007 q 409 981 383 1007 q 435 919 435 956 q 409 858 435 883 q 347 832 383 832 z "},"¨":{"ha":694,"x_min":140,"x_max":556,"o":"m 224 832 q 165 856 189 832 q 140 915 140 879 q 165 973 140 949 q 224 997 189 997 q 282 973 257 997 q 307 915 307 949 q 282 856 307 879 q 224 832 257 832 m 472 832 q 414 856 439 832 q 389 915 389 879 q 414 973 389 949 q 472 997 439 997 q 531 973 507 997 q 556 915 556 949 q 531 856 556 879 q 472 832 507 832 z "},"˚":{"ha":694,"x_min":204,"x_max":490,"o":"m 204 919 q 224 992 204 960 q 276 1043 243 1024 q 347 1063 308 1063 q 419 1043 386 1063 q 471 992 451 1024 q 490 919 490 960 q 471 848 490 881 q 419 796 451 815 q 347 776 386 776 q 276 796 308 776 q 224 848 243 815 q 204 919 204 881 m 429 919 q 405 980 429 956 q 347 1004 381 1004 q 290 980 314 1004 q 265 919 265 956 q 290 859 265 883 q 347 835 314 835 q 405 859 381 835 q 429 919 429 883 z "},"˝":{"ha":694,"x_min":139,"x_max":557,"o":"m 204 990 q 238 1042 217 1028 q 279 1054 258 1057 q 315 1035 300 1051 q 330 996 329 1019 q 308 944 331 972 l 174 776 l 139 792 l 204 990 m 431 990 q 464 1042 443 1028 q 506 1054 485 1057 q 541 1035 526 1051 q 556 996 556 1019 q 535 944 557 972 l 400 776 l 365 792 l 431 990 z "},"ˇ":{"ha":694,"x_min":160,"x_max":535,"o":"m 394 801 q 347 775 379 775 q 300 801 315 775 l 160 1032 l 200 1063 l 347 893 l 494 1063 l 535 1032 l 394 801 z "},"":{"ha":694,"x_min":244,"x_max":454,"o":"m 364 -231 q 351 -210 364 -215 q 321 -199 338 -204 q 291 -183 304 -194 q 278 -146 278 -172 q 303 -92 278 -111 q 360 -72 328 -72 q 428 -101 401 -72 q 454 -175 454 -131 q 431 -254 454 -218 q 365 -314 408 -290 q 258 -342 322 -337 l 244 -292 q 339 -269 314 -285 q 364 -231 364 -253 z "},"¸":{"ha":694,"x_min":204,"x_max":488,"o":"m 204 -325 l 213 -271 q 342 -272 294 -289 q 390 -219 390 -254 q 354 -167 390 -182 q 256 -146 318 -151 l 317 11 l 365 11 l 333 -79 q 443 -115 399 -86 q 488 -192 488 -143 q 449 -281 488 -246 q 345 -327 410 -315 q 204 -325 281 -339 z "},"˛":{"ha":694,"x_min":188,"x_max":507,"o":"m 443 39 l 461 6 q 374 -45 417 -15 q 306 -111 332 -75 q 279 -185 279 -147 q 297 -237 279 -218 q 349 -257 314 -257 q 415 -238 385 -257 q 479 -185 444 -219 l 507 -218 q 427 -297 476 -260 q 317 -333 378 -333 q 225 -301 263 -333 q 188 -211 188 -268 q 224 -108 188 -156 q 319 -24 260 -61 q 443 39 378 14 z "},".":{"ha":394,"x_min":96,"x_max":299,"o":"m 299 88 q 269 15 299 44 q 197 -14 240 -14 q 125 15 154 -14 q 96 88 96 44 q 125 160 96 131 q 197 189 154 189 q 269 160 240 189 q 299 88 299 131 z "},",":{"ha":394,"x_min":64,"x_max":317,"o":"m 219 -25 q 206 7 219 -4 q 163 21 193 18 q 124 33 142 24 q 97 60 107 43 q 86 100 86 76 q 113 161 86 136 q 183 186 139 186 q 276 142 236 186 q 317 26 317 97 q 288 -86 317 -32 q 203 -174 260 -140 q 64 -211 147 -208 l 64 -146 q 177 -104 135 -142 q 219 -25 219 -67 z "},":":{"ha":394,"x_min":96,"x_max":299,"o":"m 299 88 q 269 15 299 44 q 197 -14 240 -14 q 125 15 154 -14 q 96 88 96 44 q 125 160 96 131 q 197 189 154 189 q 269 160 240 189 q 299 88 299 131 m 299 546 q 269 474 299 503 q 197 444 240 444 q 125 474 154 444 q 96 546 96 503 q 125 618 96 589 q 197 647 154 647 q 269 618 240 647 q 299 546 299 589 z "},";":{"ha":394,"x_min":64,"x_max":317,"o":"m 219 -25 q 206 7 219 -4 q 163 21 193 18 q 124 33 142 24 q 97 60 107 43 q 86 100 86 76 q 113 161 86 136 q 183 186 139 186 q 276 142 236 186 q 317 26 317 97 q 288 -86 317 -32 q 203 -174 260 -140 q 64 -211 147 -208 l 64 -146 q 177 -104 135 -142 q 219 -25 219 -67 m 299 546 q 269 474 299 503 q 197 444 240 444 q 125 474 154 444 q 96 546 96 503 q 125 618 96 589 q 197 647 154 647 q 269 618 240 647 q 299 546 299 589 z "},"…":{"ha":1089,"x_min":96,"x_max":993,"o":"m 299 88 q 269 15 299 44 q 197 -14 240 -14 q 125 15 154 -14 q 96 88 96 44 q 125 160 96 131 q 197 189 154 189 q 269 160 240 189 q 299 88 299 131 m 646 88 q 617 15 646 44 q 544 -14 588 -14 q 472 15 501 -14 q 443 88 443 44 q 472 160 443 131 q 544 189 501 189 q 617 160 588 189 q 646 88 646 131 m 993 88 q 964 15 993 44 q 892 -14 935 -14 q 819 15 849 -14 q 790 88 790 44 q 819 160 790 131 q 892 189 849 189 q 964 160 935 189 q 993 88 993 131 z "},"!":{"ha":369,"x_min":83,"x_max":286,"o":"m 103 897 q 128 962 103 938 q 185 986 153 986 q 242 962 217 986 q 267 897 267 938 q 257 808 267 883 q 235 608 247 733 q 214 315 222 482 l 156 315 q 135 608 147 482 q 113 808 122 733 q 103 897 103 883 m 185 -14 q 113 15 142 -14 q 83 88 83 44 q 113 160 83 131 q 185 189 142 189 q 257 160 228 189 q 286 88 286 131 q 257 15 286 44 q 185 -14 228 -14 z "},"¡":{"ha":369,"x_min":83,"x_max":286,"o":"m 185 689 q 257 660 228 689 q 286 588 286 631 q 257 515 286 544 q 185 486 228 486 q 113 515 142 486 q 83 588 83 544 q 113 660 83 631 q 185 689 142 689 m 103 -222 q 113 -133 103 -208 q 135 67 122 -58 q 156 360 147 193 l 214 360 q 235 67 222 193 q 257 -133 247 -58 q 267 -222 267 -208 q 242 -286 267 -261 q 185 -311 217 -311 q 128 -286 153 -311 q 103 -222 103 -261 z "},"?":{"ha":624,"x_min":69,"x_max":568,"o":"m 493 735 q 467 805 493 776 q 397 848 440 833 q 303 863 354 863 q 257 857 279 863 q 214 844 235 851 q 173 831 193 836 q 135 825 153 825 q 85 845 101 825 q 69 889 69 865 q 110 957 69 928 q 231 986 151 986 q 400 949 324 986 q 522 844 476 911 q 568 692 568 778 q 540 599 568 640 q 464 529 511 558 q 359 482 417 500 q 244 457 301 464 l 244 315 l 193 315 l 151 542 q 163 572 151 561 q 200 585 175 583 q 305 598 253 588 q 399 627 357 608 q 467 673 442 646 q 493 735 493 700 m 326 88 q 297 15 326 44 q 225 -14 268 -14 q 153 15 182 -14 q 124 88 124 44 q 153 160 124 131 q 225 189 182 189 q 297 160 268 189 q 326 88 326 131 z "},"¿":{"ha":624,"x_min":56,"x_max":554,"o":"m 297 588 q 326 660 297 631 q 399 689 356 689 q 471 660 442 689 q 500 588 500 631 q 471 515 500 544 q 399 486 442 486 q 326 515 356 486 q 297 588 297 544 m 131 -60 q 157 -129 131 -100 q 226 -173 183 -158 q 321 -187 269 -187 q 367 -182 344 -187 q 410 -169 389 -176 q 451 -156 431 -161 q 489 -150 471 -150 q 538 -170 522 -150 q 554 -214 554 -190 q 513 -282 554 -253 q 393 -311 472 -311 q 224 -274 301 -311 q 101 -169 147 -236 q 56 -17 56 -103 q 84 76 56 35 q 160 146 113 117 q 265 193 207 175 q 379 218 322 211 l 379 360 l 431 360 l 472 133 q 460 103 472 115 q 424 90 449 92 q 319 77 371 88 q 224 48 267 67 q 156 2 182 29 q 131 -60 131 -25 z "},"‘":{"ha":394,"x_min":79,"x_max":325,"o":"m 172 882 q 185 851 172 860 q 218 840 199 843 q 257 833 238 838 q 290 813 276 828 q 303 763 303 797 q 278 706 303 729 q 208 682 253 682 q 118 726 157 682 q 79 839 79 769 q 108 945 79 894 q 191 1029 136 996 q 325 1064 246 1063 l 325 1000 q 213 960 253 996 q 172 882 172 925 z "},"’":{"ha":394,"x_min":69,"x_max":315,"o":"m 222 864 q 209 894 222 886 q 176 906 196 903 q 138 913 157 908 q 105 933 118 918 q 92 983 92 949 q 117 1040 92 1017 q 186 1064 143 1064 q 276 1020 238 1064 q 315 907 315 976 q 287 801 315 851 q 203 717 258 750 q 69 682 149 685 l 69 746 q 182 785 142 750 q 222 864 222 821 z "},"“":{"ha":700,"x_min":79,"x_max":631,"o":"m 172 882 q 185 851 172 860 q 218 840 199 843 q 257 833 238 838 q 290 813 276 828 q 303 763 303 797 q 278 706 303 729 q 208 682 253 682 q 118 726 157 682 q 79 839 79 769 q 108 945 79 894 q 191 1029 136 996 q 325 1064 246 1063 l 325 1000 q 213 960 253 996 q 172 882 172 925 m 478 882 q 491 851 478 860 q 524 840 504 843 q 563 833 543 838 q 595 813 582 828 q 608 763 608 797 q 583 706 608 729 q 514 682 558 682 q 424 726 463 682 q 385 839 385 769 q 413 945 385 894 q 497 1029 442 996 q 631 1064 551 1063 l 631 1000 q 518 960 558 996 q 478 882 478 925 z "},"”":{"ha":700,"x_min":69,"x_max":621,"o":"m 528 864 q 515 894 528 886 q 482 906 501 903 q 443 913 463 908 q 410 933 424 918 q 397 983 397 949 q 423 1040 397 1017 q 492 1064 449 1064 q 582 1020 543 1064 q 621 907 621 976 q 592 801 621 851 q 509 717 564 750 q 375 682 454 685 l 375 746 q 488 785 447 750 q 528 864 528 821 m 222 864 q 209 894 222 886 q 176 906 196 903 q 138 913 157 908 q 105 933 118 918 q 92 983 92 949 q 117 1040 92 1017 q 186 1064 143 1064 q 276 1020 238 1064 q 315 907 315 976 q 287 801 315 851 q 203 717 258 750 q 69 682 149 685 l 69 746 q 182 785 142 750 q 222 864 222 821 z "},"‚":{"ha":394,"x_min":69,"x_max":315,"o":"m 222 3 q 209 33 222 25 q 176 44 196 42 q 138 52 157 47 q 105 72 118 57 q 92 122 92 88 q 117 179 92 156 q 186 203 143 203 q 276 159 238 203 q 315 46 315 115 q 287 -60 315 -10 q 203 -144 258 -111 q 69 -179 149 -176 l 69 -115 q 182 -76 142 -111 q 222 3 222 -40 z "},"„":{"ha":700,"x_min":69,"x_max":621,"o":"m 528 3 q 515 33 528 25 q 482 44 501 42 q 443 52 463 47 q 410 72 424 57 q 397 122 397 88 q 423 179 397 156 q 492 203 449 203 q 582 159 543 203 q 621 46 621 115 q 592 -60 621 -10 q 509 -144 564 -111 q 375 -179 454 -176 l 375 -115 q 488 -76 447 -111 q 528 3 528 -40 m 222 3 q 209 33 222 25 q 176 44 196 42 q 138 52 157 47 q 105 72 118 57 q 92 122 92 88 q 117 179 92 156 q 186 203 143 203 q 276 159 238 203 q 315 46 315 115 q 287 -60 315 -10 q 203 -144 258 -111 q 69 -179 149 -176 l 69 -115 q 182 -76 142 -111 q 222 3 222 -40 z "},"‹":{"ha":469,"x_min":83,"x_max":386,"o":"m 83 346 l 83 360 l 343 651 l 386 624 l 242 353 l 386 82 l 343 54 l 83 346 z "},"›":{"ha":469,"x_min":83,"x_max":386,"o":"m 386 346 l 126 54 l 83 82 l 228 353 l 83 624 l 126 651 l 386 360 l 386 346 z "},"«":{"ha":761,"x_min":83,"x_max":678,"o":"m 83 346 l 83 360 l 343 651 l 386 624 l 242 353 l 386 82 l 343 54 l 83 346 m 375 346 l 375 360 l 635 651 l 678 624 l 533 353 l 678 82 l 635 54 l 375 346 z "},"»":{"ha":761,"x_min":83,"x_max":678,"o":"m 678 346 l 418 54 l 375 82 l 519 353 l 375 624 l 418 651 l 678 360 l 678 346 m 386 346 l 126 54 l 83 82 l 228 353 l 83 624 l 126 651 l 386 360 l 386 346 z "},"/":{"ha":582,"x_min":56,"x_max":526,"o":"m 526 1050 l 142 -197 l 56 -197 l 432 1050 l 526 1050 z "},"\\":{"ha":582,"x_min":56,"x_max":526,"o":"m 56 1050 l 150 1050 l 526 -197 l 440 -197 l 56 1050 z "},"|":{"ha":421,"x_min":167,"x_max":254,"o":"m 254 1050 l 254 -197 l 167 -197 l 167 1050 l 254 1050 z "},"·":{"ha":369,"x_min":83,"x_max":286,"o":"m 286 353 q 257 281 286 310 q 185 251 228 251 q 113 281 142 251 q 83 353 83 310 q 113 425 83 396 q 185 454 142 454 q 257 425 228 454 q 286 353 286 396 z "},"•":{"ha":572,"x_min":83,"x_max":489,"o":"m 489 353 q 461 251 489 297 q 388 178 433 206 q 286 150 342 150 q 185 178 231 150 q 111 251 139 206 q 83 353 83 297 q 111 454 83 408 q 185 528 139 500 q 286 556 231 556 q 388 528 342 556 q 461 454 433 500 q 489 353 489 408 z "},"-":{"ha":556,"x_min":83,"x_max":472,"o":"m 472 300 l 83 300 l 83 406 l 472 406 l 472 300 z "},"–":{"ha":833,"x_min":83,"x_max":750,"o":"m 750 307 l 83 307 l 83 399 l 750 399 l 750 307 z "},"—":{"ha":1417,"x_min":83,"x_max":1333,"o":"m 1333 399 l 1333 307 l 83 307 l 83 399 l 1333 399 z "},"(":{"ha":601,"x_min":111,"x_max":499,"o":"m 243 432 q 269 211 243 319 q 351 9 294 103 q 499 -154 408 -85 l 468 -206 q 278 -37 358 -136 q 155 181 199 61 q 111 432 111 301 q 155 683 111 564 q 278 902 199 803 q 468 1069 358 1001 l 499 1018 q 351 856 408 950 q 269 653 294 761 q 243 432 243 544 z "},")":{"ha":601,"x_min":103,"x_max":490,"o":"m 358 432 q 333 653 358 544 q 251 856 307 761 q 103 1018 194 950 l 133 1069 q 323 902 243 1001 q 447 683 403 803 q 490 432 490 564 q 447 181 490 301 q 323 -37 403 61 q 133 -206 243 -136 l 103 -154 q 251 9 194 -85 q 333 211 307 103 q 358 432 358 319 z "},"[":{"ha":610,"x_min":167,"x_max":526,"o":"m 526 -129 l 526 -197 l 167 -197 l 167 1050 l 526 1050 l 526 982 l 357 975 q 291 964 308 974 q 274 919 274 954 l 274 -67 q 291 -110 274 -101 q 357 -122 308 -119 l 526 -129 z "},"]":{"ha":610,"x_min":83,"x_max":443,"o":"m 83 -129 l 253 -122 q 319 -110 301 -119 q 336 -67 336 -101 l 336 919 q 319 964 336 954 q 253 975 301 974 l 83 982 l 83 1050 l 443 1050 l 443 -197 l 83 -197 l 83 -129 z "},"{":{"ha":606,"x_min":83,"x_max":522,"o":"m 83 407 l 83 443 q 169 463 128 450 q 237 504 210 476 q 264 582 264 532 q 251 652 264 613 q 224 733 238 692 q 210 806 210 774 q 251 942 210 888 q 365 1023 293 996 q 522 1050 436 1050 l 522 1001 q 425 980 468 999 q 357 919 382 961 q 332 804 332 878 q 340 733 332 772 q 357 657 349 694 q 365 589 365 619 q 348 519 365 549 q 302 472 331 490 q 240 441 274 453 q 172 425 206 429 q 240 409 206 421 q 302 378 274 397 q 348 331 331 360 q 365 261 365 301 q 357 194 365 232 q 340 117 349 156 q 332 46 332 79 q 357 -69 332 -28 q 425 -129 382 -111 q 522 -151 468 -147 l 522 -200 q 365 -173 436 -200 q 251 -92 293 -146 q 210 44 210 -37 q 224 118 210 78 q 251 199 238 158 q 264 268 264 239 q 237 346 264 318 q 169 388 210 374 q 83 407 128 401 z "},"}":{"ha":606,"x_min":83,"x_max":522,"o":"m 522 407 q 438 388 479 401 q 369 346 396 374 q 342 268 342 318 q 355 199 342 239 q 382 118 368 158 q 396 44 396 78 q 354 -92 396 -37 q 242 -173 313 -146 q 83 -200 171 -200 l 83 -151 q 181 -129 139 -147 q 249 -69 224 -111 q 274 46 274 -28 q 265 117 274 79 q 249 194 257 156 q 240 261 240 232 q 258 331 240 301 q 303 378 275 360 q 366 409 332 397 q 433 425 400 421 q 366 441 400 429 q 303 472 332 453 q 258 519 275 490 q 240 589 240 549 q 249 657 240 619 q 265 733 257 694 q 274 804 274 772 q 249 919 274 878 q 181 980 224 961 q 83 1001 139 999 l 83 1050 q 242 1023 171 1050 q 354 942 313 996 q 396 806 396 888 q 382 733 396 774 q 355 652 368 692 q 342 582 342 613 q 369 504 342 532 q 438 463 396 476 q 522 443 479 450 l 522 407 z "},"*":{"ha":656,"x_min":42,"x_max":614,"o":"m 518 546 l 482 519 l 328 694 l 174 519 l 136 546 l 256 747 l 42 840 l 54 883 l 283 831 l 304 1064 l 351 1064 l 371 831 l 600 883 l 614 840 l 399 747 l 518 546 z "},"†":{"ha":664,"x_min":111,"x_max":553,"o":"m 553 890 l 553 810 l 372 810 l 372 436 l 292 436 l 292 810 l 111 810 l 111 890 l 292 890 l 292 1064 l 372 1064 l 372 890 l 553 890 z "},"‡":{"ha":664,"x_min":111,"x_max":553,"o":"m 553 668 l 553 596 l 372 596 l 372 436 l 292 436 l 292 596 l 111 596 l 111 668 l 292 668 l 292 832 l 111 832 l 111 904 l 292 904 l 292 1064 l 372 1064 l 372 904 l 553 904 l 553 832 l 372 832 l 372 668 l 553 668 z "},"§":{"ha":783,"x_min":83,"x_max":700,"o":"m 638 -21 q 604 -137 638 -83 q 511 -223 571 -190 q 369 -256 451 -256 q 249 -235 304 -256 q 160 -177 193 -214 q 126 -96 126 -140 q 151 -24 126 -50 q 214 1 176 1 q 264 -17 243 1 q 285 -64 285 -36 q 271 -106 285 -93 q 257 -135 257 -119 q 289 -175 257 -160 q 364 -190 321 -190 q 481 -148 439 -190 q 524 -53 524 -106 q 496 33 524 1 q 415 104 468 65 l 203 274 q 111 371 139 321 q 83 472 83 421 q 96 543 83 510 q 128 604 108 576 q 172 651 149 632 q 153 698 160 674 q 146 751 146 722 q 179 868 146 815 q 273 953 213 921 q 414 986 333 986 q 535 965 481 986 q 624 908 590 944 q 657 826 657 872 q 632 755 657 781 q 569 729 607 729 q 519 749 540 729 q 499 794 499 768 q 513 838 499 824 q 526 865 526 851 q 495 906 526 890 q 419 921 464 921 q 302 878 344 921 q 260 783 260 836 q 288 698 260 729 q 368 626 317 667 l 581 457 q 671 360 642 408 q 700 258 700 311 q 688 188 700 221 q 655 126 675 154 q 611 79 635 99 q 631 33 624 57 q 638 -21 638 8 m 493 197 q 544 156 521 176 q 586 114 568 136 q 611 154 601 131 q 621 208 621 178 q 601 283 621 250 q 535 350 582 315 l 290 533 q 240 574 264 554 q 196 617 215 594 q 172 576 182 600 q 163 522 163 553 q 182 449 163 481 q 249 381 201 417 l 493 197 z "},"¶":{"ha":957,"x_min":69,"x_max":860,"o":"m 735 875 l 735 -239 l 651 -239 l 651 906 l 508 906 l 508 -239 l 425 -239 l 425 428 q 252 458 333 428 q 120 547 171 488 q 69 699 69 607 q 100 819 69 768 q 182 904 131 869 q 298 956 233 939 q 431 972 363 972 l 860 972 l 860 911 q 779 909 806 911 q 744 899 753 907 q 735 875 735 892 z "},"^":{"ha":669,"x_min":56,"x_max":614,"o":"m 285 972 l 385 972 l 614 569 l 507 569 l 335 875 l 163 569 l 56 569 l 285 972 z "},"~":{"ha":810,"x_min":83,"x_max":726,"o":"m 293 533 q 360 514 328 533 q 424 469 393 494 q 487 425 456 444 q 549 406 518 406 q 613 438 586 406 q 664 518 640 471 l 726 494 q 638 347 690 401 q 517 292 586 292 q 449 311 482 292 q 385 356 417 331 q 323 400 354 381 q 261 419 292 419 q 197 388 224 419 q 146 307 169 356 l 83 331 q 172 479 119 425 q 293 533 224 533 z "},"_":{"ha":681,"x_min":56,"x_max":625,"o":"m 625 -262 l 56 -262 l 56 -171 l 625 -171 l 625 -262 z "},"'":{"ha":283,"x_min":69,"x_max":214,"o":"m 161 606 l 122 606 l 81 872 q 73 928 76 900 q 69 982 69 956 q 88 1041 69 1018 q 142 1064 107 1064 q 196 1041 178 1064 q 214 982 214 1018 q 210 928 214 956 q 203 872 207 900 l 161 606 z "},"\"":{"ha":526,"x_min":69,"x_max":457,"o":"m 161 606 l 122 606 l 81 872 q 73 928 76 900 q 69 982 69 956 q 88 1041 69 1018 q 142 1064 107 1064 q 196 1041 178 1064 q 214 982 214 1018 q 210 928 214 956 q 203 872 207 900 l 161 606 m 404 606 l 365 606 l 324 872 q 316 928 319 900 q 313 982 313 956 q 331 1041 313 1018 q 385 1064 350 1064 q 439 1041 421 1064 q 457 982 457 1018 q 453 928 457 956 q 446 872 450 900 l 404 606 z "},"@":{"ha":1339,"x_min":69,"x_max":1269,"o":"m 821 96 q 936 126 876 96 q 1048 211 996 156 q 1133 342 1100 267 q 1165 510 1165 418 q 1127 676 1165 604 q 1008 788 1089 747 q 797 829 926 829 q 606 794 697 829 q 435 697 514 758 q 299 556 357 636 q 208 384 240 475 q 175 199 175 293 q 233 -21 175 71 q 393 -160 290 -112 q 631 -208 496 -208 q 835 -183 738 -208 q 1031 -100 932 -158 l 1050 -157 q 927 -225 999 -196 q 774 -270 856 -254 q 608 -286 692 -286 q 328 -231 450 -286 q 138 -69 207 -175 q 69 186 69 38 q 106 396 69 292 q 210 592 143 500 q 370 756 278 685 q 576 867 463 826 q 817 907 689 907 q 1062 858 961 907 q 1216 719 1163 808 q 1269 511 1269 631 q 1224 320 1269 410 q 1106 162 1179 231 q 944 54 1032 93 q 768 15 856 15 q 702 46 725 15 q 700 128 679 76 l 743 235 l 731 235 q 643 126 690 175 q 546 46 596 76 q 449 15 496 15 q 381 49 410 15 q 351 147 351 82 q 375 278 351 210 q 442 413 399 347 q 545 531 486 478 q 676 615 604 583 q 829 646 749 646 q 912 640 865 646 q 989 619 958 633 l 808 147 q 801 110 799 125 q 821 96 803 96 m 514 107 q 594 148 543 107 q 704 266 646 189 q 808 451 763 343 l 853 554 q 821 571 840 565 q 785 576 801 576 q 670 538 726 576 q 568 439 614 500 q 495 308 522 378 q 468 172 468 238 q 481 119 468 131 q 514 107 494 107 z "},"©":{"ha":1126,"x_min":69,"x_max":1057,"o":"m 1057 486 q 1019 293 1057 383 q 913 133 981 203 q 755 25 844 64 q 564 -14 665 -14 q 373 25 463 -14 q 215 133 283 64 q 108 293 146 203 q 69 486 69 383 q 108 679 69 589 q 215 839 146 769 q 373 947 283 908 q 564 986 463 986 q 755 947 665 986 q 913 839 844 908 q 1019 679 981 769 q 1057 486 1057 589 m 986 486 q 953 651 986 574 q 863 789 921 729 q 728 882 804 849 q 564 915 651 915 q 399 882 476 915 q 265 789 322 849 q 174 651 207 729 q 140 486 140 574 q 174 321 140 399 q 265 183 207 243 q 399 90 322 124 q 564 57 476 57 q 728 90 651 57 q 863 183 804 124 q 953 321 921 243 q 986 486 986 399 m 592 256 q 681 294 644 256 q 739 401 718 332 l 799 401 l 772 240 q 685 208 731 221 q 576 196 640 196 q 428 232 493 196 q 325 332 363 268 q 288 476 288 396 q 329 637 288 567 q 440 747 371 707 q 589 786 508 786 q 699 771 650 786 q 776 735 747 756 l 776 590 l 721 590 q 672 692 710 656 q 581 729 635 729 q 459 666 504 729 q 414 507 414 603 q 436 379 414 436 q 499 289 458 322 q 592 256 539 256 z "},"®":{"ha":856,"x_min":76,"x_max":779,"o":"m 76 635 q 122 811 76 732 q 246 938 167 890 q 428 986 325 986 q 610 938 531 986 q 734 811 689 890 q 779 635 779 732 q 734 458 779 538 q 610 330 689 378 q 428 282 531 282 q 246 330 325 282 q 122 458 167 378 q 76 635 76 538 m 142 635 q 178 490 142 556 q 280 385 215 424 q 428 346 344 346 q 576 385 511 346 q 677 490 640 424 q 714 635 714 556 q 677 781 714 715 q 576 885 640 846 q 428 924 511 924 q 280 885 344 924 q 178 781 215 846 q 142 635 142 715 m 438 507 l 438 464 l 267 464 l 267 507 l 317 507 l 317 782 l 267 782 l 267 825 l 440 825 q 545 799 503 825 q 588 719 588 774 q 562 658 588 682 q 497 622 536 633 l 614 483 l 614 464 l 539 464 l 418 615 l 393 615 l 393 507 l 438 507 m 393 782 l 393 653 l 422 653 q 483 667 460 653 q 507 719 507 682 q 483 769 507 756 q 422 782 460 782 l 393 782 z "},"™":{"ha":1243,"x_min":83,"x_max":1171,"o":"m 422 513 l 169 513 l 169 551 q 234 559 217 551 q 251 585 251 567 l 251 931 l 211 931 q 150 901 164 931 q 119 810 136 871 l 83 810 l 89 972 l 501 972 l 507 810 l 472 810 q 452 878 461 851 q 427 917 443 904 q 379 931 411 931 l 340 931 l 340 585 q 358 559 340 567 q 422 551 375 551 l 422 513 m 760 924 l 853 651 l 946 924 l 946 972 l 1136 972 l 1136 933 q 1087 922 1104 932 q 1069 886 1069 911 l 1100 614 q 1122 567 1104 578 q 1171 553 1139 556 l 1171 513 l 957 513 l 957 553 q 1013 567 1001 556 q 1021 611 1024 579 l 989 908 l 851 513 l 818 513 l 682 908 l 650 611 q 659 567 647 579 q 714 553 671 556 l 714 513 l 531 513 l 531 553 q 579 567 563 556 q 600 614 596 578 l 632 886 q 615 922 632 911 q 565 933 597 932 l 565 972 l 760 972 l 760 924 z "},"#":{"ha":894,"x_min":42,"x_max":853,"o":"m 85 0 l 190 303 l 42 303 l 42 376 l 215 376 l 292 596 l 125 596 l 125 671 l 318 671 l 422 972 l 501 972 l 397 671 l 626 671 l 731 972 l 810 972 l 706 671 l 853 671 l 853 596 l 679 596 l 603 376 l 769 376 l 769 303 l 578 303 l 472 0 l 393 0 l 499 303 l 269 303 l 164 0 l 85 0 m 294 376 l 524 376 l 600 596 l 371 596 l 294 376 z "},"°":{"ha":525,"x_min":42,"x_max":483,"o":"m 264 543 q 152 573 203 543 q 72 653 101 603 q 42 764 42 704 q 72 876 42 825 q 152 956 101 926 q 264 986 203 986 q 375 956 325 986 q 454 876 425 926 q 483 764 483 825 q 454 653 483 704 q 375 573 425 603 q 264 543 325 543 m 264 621 q 365 663 324 621 q 406 764 406 706 q 365 865 406 822 q 264 908 324 908 q 162 867 204 908 q 119 764 119 825 q 162 663 119 704 q 264 621 204 621 z "},"€":{"ha":890,"x_min":44,"x_max":857,"o":"m 46 357 l 46 424 l 139 424 q 137 453 138 439 q 136 483 136 468 q 138 520 136 503 q 140 556 139 538 l 44 556 l 44 622 l 153 622 q 243 811 181 729 q 392 940 306 893 q 575 986 479 986 q 715 960 654 986 q 809 894 775 933 q 843 814 843 854 q 821 757 843 776 q 771 738 799 738 q 727 755 743 738 q 699 799 711 772 q 673 851 688 825 q 633 894 658 876 q 564 911 608 911 q 388 835 464 911 q 285 622 313 758 l 615 622 l 596 556 l 275 556 q 273 524 274 540 q 272 490 272 507 q 273 456 272 472 q 275 424 274 439 l 571 424 l 550 357 l 283 357 q 381 149 308 222 q 560 76 454 76 q 696 114 633 76 q 806 225 758 151 l 857 183 q 778 81 824 125 q 674 11 733 36 q 539 -14 615 -14 q 365 28 446 -14 q 226 153 283 71 q 147 357 168 236 l 46 357 z "},"$":{"ha":763,"x_min":56,"x_max":707,"o":"m 61 103 l 56 332 l 122 332 q 203 151 147 210 q 344 81 260 92 l 344 451 q 247 485 294 467 q 162 533 200 504 q 101 605 124 561 q 78 713 78 649 q 113 837 78 781 q 208 931 147 893 q 344 976 268 968 l 344 1128 l 415 1128 l 415 979 q 553 949 494 975 q 658 885 613 924 l 658 693 l 599 693 q 567 797 588 751 q 510 872 546 843 q 415 906 474 900 l 415 558 q 519 524 468 543 q 613 477 571 506 q 681 404 656 449 q 707 293 707 360 q 668 158 707 219 q 563 57 629 96 q 415 10 497 18 l 415 -140 l 344 -140 l 344 10 q 237 26 290 13 q 138 59 183 39 q 61 103 93 79 m 186 742 q 232 639 186 674 q 344 581 278 604 l 344 904 q 231 851 276 894 q 186 742 186 807 m 596 261 q 572 342 596 311 q 506 394 547 374 q 415 429 465 414 l 415 82 q 499 110 457 89 q 568 169 540 132 q 596 261 596 207 z "},"¢":{"ha":714,"x_min":69,"x_max":681,"o":"m 435 4 l 435 -140 l 364 -140 l 364 3 q 217 51 285 10 q 110 167 150 93 q 69 342 69 240 q 110 512 69 435 q 217 642 150 589 q 364 714 283 694 l 364 876 l 435 876 l 435 724 l 446 724 q 562 702 511 724 q 641 648 613 681 q 669 583 669 615 q 649 533 669 550 q 601 517 628 517 q 551 535 568 517 q 524 580 535 554 q 494 626 513 606 q 435 650 475 647 l 435 90 q 624 217 553 100 l 681 178 q 581 60 643 107 q 435 4 519 14 m 199 367 q 247 185 199 253 q 364 97 296 117 l 364 640 q 245 544 292 618 q 199 367 199 471 z "},"£":{"ha":876,"x_min":56,"x_max":846,"o":"m 118 492 l 118 558 l 288 558 l 336 674 q 492 906 401 825 q 694 986 582 986 q 806 953 767 986 q 846 875 846 919 q 824 823 846 844 q 771 801 803 801 q 722 819 739 801 q 692 860 704 838 q 667 901 681 883 q 629 919 653 919 q 581 887 603 919 q 542 814 560 854 l 426 558 l 615 558 l 615 492 l 396 492 l 267 204 l 635 104 q 668 97 653 99 q 694 94 683 94 q 747 133 747 94 q 735 154 747 146 q 705 172 722 163 q 675 194 688 181 q 663 232 663 208 q 688 294 663 272 q 744 315 714 315 q 811 286 786 315 q 836 208 836 257 q 801 98 836 149 q 712 17 767 47 q 596 -14 657 -14 q 544 -8 569 -14 q 494 11 518 -3 l 233 151 l 111 -14 l 56 17 l 258 492 l 118 492 z "},"¥":{"ha":964,"x_min":25,"x_max":939,"o":"m 140 343 l 140 410 l 424 410 l 340 542 l 138 542 l 138 608 l 297 608 l 171 807 q 106 885 140 856 q 25 917 71 914 l 25 972 l 439 972 l 439 917 q 315 879 344 911 q 319 792 285 847 l 511 485 l 703 792 q 708 880 738 847 q 583 917 678 913 l 583 972 l 939 972 l 939 917 q 859 885 893 914 q 793 807 825 856 l 667 608 l 822 608 l 822 542 l 624 542 l 540 410 l 824 410 l 824 343 l 540 343 l 540 157 q 583 83 540 103 q 715 56 625 63 l 715 0 l 249 0 l 249 56 q 381 83 339 63 q 424 157 424 103 l 424 343 l 140 343 z "},"ƒ":{"ha":757,"x_min":-54,"x_max":729,"o":"m 83 -279 l -18 -333 l -54 -333 l 208 481 l 81 481 l 81 546 l 229 546 l 243 590 q 342 808 285 719 q 468 941 399 896 q 615 986 538 986 q 700 963 671 986 q 729 901 729 939 q 710 857 729 875 q 663 839 690 839 q 620 850 636 839 q 592 875 604 861 q 566 900 579 889 q 533 911 553 911 q 485 874 508 911 q 438 777 461 838 q 390 643 415 717 l 358 546 l 528 546 l 528 481 l 336 481 l 83 -279 z "},"฿":{"ha":850,"x_min":28,"x_max":815,"o":"m 28 0 l 28 56 q 133 81 96 58 q 169 157 169 103 l 169 815 q 133 892 169 869 q 28 917 96 914 l 28 972 l 385 972 q 410 972 397 972 q 435 971 422 972 l 435 1128 l 506 1128 l 506 964 q 693 891 629 947 q 757 738 757 835 q 724 628 757 675 q 637 551 690 581 q 519 511 583 522 q 676 472 610 503 q 778 390 742 440 q 815 271 815 339 q 778 142 815 199 q 671 49 740 85 q 506 3 601 13 l 506 -140 l 435 -140 l 435 0 l 28 0 m 350 908 l 292 908 l 292 529 l 351 529 q 396 531 375 529 q 435 535 417 533 l 435 903 q 394 907 415 906 q 350 908 374 908 m 624 731 q 593 826 624 788 q 506 886 563 865 l 506 554 q 594 622 564 578 q 624 731 624 667 m 406 467 l 292 467 l 292 165 q 326 85 292 110 q 435 60 360 60 l 435 467 q 420 467 428 467 q 406 467 413 467 m 679 271 q 640 389 679 338 q 506 458 601 440 l 506 65 q 633 132 586 81 q 679 271 679 183 z "},"₫":{"ha":810,"x_min":56,"x_max":775,"o":"m 775 58 l 571 28 l 542 28 l 542 147 q 447 62 501 96 q 331 28 392 28 q 194 66 257 28 q 94 174 132 104 q 56 333 56 243 q 82 486 56 418 q 155 603 108 554 q 263 677 201 651 q 392 703 324 703 q 476 690 440 703 q 542 658 511 678 l 542 819 l 376 819 l 376 886 l 542 886 l 542 1029 l 639 1064 l 664 1064 l 664 886 l 775 886 l 775 819 l 664 819 l 664 188 q 676 138 664 154 q 724 117 689 121 l 775 110 l 775 58 m 542 190 l 542 461 q 493 589 542 546 q 376 632 444 632 q 231 567 289 632 q 174 393 174 501 q 237 202 174 272 q 401 132 300 132 q 478 147 440 132 q 542 190 515 163 m 65 -153 l 65 -86 l 775 -86 l 775 -153 l 65 -153 z "},"₣":{"ha":789,"x_min":28,"x_max":747,"o":"m 297 908 l 297 632 l 578 632 l 578 565 l 297 565 l 297 433 l 579 433 l 579 367 l 297 367 l 297 157 q 337 83 297 103 q 467 56 376 63 l 467 0 l 28 0 l 28 56 q 133 81 96 58 q 169 157 169 103 l 169 815 q 133 892 169 869 q 28 917 96 914 l 28 972 l 747 972 l 747 719 l 692 719 q 658 824 681 782 q 594 888 635 867 q 485 908 553 908 l 297 908 z "},"₦":{"ha":1042,"x_min":56,"x_max":986,"o":"m 286 789 l 286 157 q 325 81 286 103 q 442 56 364 58 l 442 0 l 56 0 l 56 56 q 172 81 133 58 q 211 157 211 103 l 211 354 l 71 354 l 71 421 l 211 421 l 211 553 l 69 553 l 69 619 l 211 619 l 211 815 q 174 892 211 869 q 69 917 138 914 l 69 972 l 319 972 l 756 253 l 756 815 q 717 892 756 869 q 600 918 678 915 l 600 972 l 986 972 l 986 917 q 869 892 908 914 q 831 815 831 869 l 831 619 l 972 619 l 972 553 l 831 553 l 831 421 l 974 421 l 974 354 l 831 354 l 831 0 l 774 0 l 286 789 z "}}}
